<svg width="78" height="78" viewBox="0 0 78 78" fill="none" xmlns="http://www.w3.org/2000/svg">
<path d="M33.8043 9.8291C36.1137 5.8291 41.8872 5.8291 44.1966 9.8291L67.0749 49.4553C69.3843 53.4553 66.4975 58.4553 61.8787 58.4553H16.1223C11.5035 58.4553 8.61672 53.4553 10.9261 49.4553L33.8043 9.8291Z" fill="#AD8772"/>
<path d="M41.7232 25.2197L41.1963 39.504H36.7471L36.2202 25.2197H41.7232ZM36.2202 45.3142C36.191 43.7922 37.4496 42.592 38.9717 42.5628C40.4352 42.592 41.7524 43.7922 41.7817 45.3142C41.7524 46.8656 40.4352 48.095 38.9717 48.0657C37.4496 48.095 36.191 46.8656 36.2202 45.3142Z" fill="white"/>
</svg>
