<svg width="60" height="56" viewBox="0 0 60 56" fill="none" xmlns="http://www.w3.org/2000/svg">
<rect width="60" height="56" rx="28" fill="#F0F0F0"/>
<path fill-rule="evenodd" clip-rule="evenodd" d="M21.0002 20C21.0002 15.0294 25.0296 11 30.0002 11C34.9707 11 39.0002 15.0294 39.0002 20C39.0002 24.9706 34.9707 29 30.0002 29C25.0296 29 21.0002 24.9706 21.0002 20Z" fill="#7C3D1A"/>
<path fill-rule="evenodd" clip-rule="evenodd" d="M13.5027 48.2107C13.6573 39.2311 20.9841 32 30.0002 32C39.0164 32 46.3433 39.2315 46.4977 48.2113C46.5079 48.8068 46.1648 49.352 45.6235 49.6004C40.8656 51.7836 35.5732 53 30.0008 53C24.4279 53 19.135 51.7834 14.3768 49.5998C13.8355 49.3514 13.4924 48.8062 13.5027 48.2107Z" fill="#7C3D1A"/>
</svg>
