<svg width="20" height="23" viewBox="0 0 20 23" fill="none" xmlns="http://www.w3.org/2000/svg">
<path d="M5.00202 20.1896L3.6354 4.5752H16.8011L15.4345 20.1896C15.378 20.8352 14.8374 21.3306 14.1893 21.3306H6.24726C5.59914 21.3306 5.05853 20.8352 5.00202 20.1896Z" stroke="#FF2929" stroke-width="1.5"/>
<path d="M1.54358 4.32471H18.8929" stroke="#FF2929" stroke-width="1.5" stroke-linecap="round"/>
<path d="M10.2183 11.1646L10.2183 18.7558" stroke="#FF2929" stroke-width="1.5" stroke-linecap="round"/>
<path d="M7.2782 11.1646L7.98228 18.7231" stroke="#FF2929" stroke-width="1.5" stroke-linecap="round"/>
<path d="M13.158 11.1646L12.4539 18.7231" stroke="#FF2929" stroke-width="1.5" stroke-linecap="round"/>
<path d="M8.52566 1.90043C8.55587 1.79244 8.65428 1.71777 8.76642 1.71777H11.6701C11.7823 1.71777 11.8807 1.79244 11.9109 1.90043L12.4911 3.97465C12.5356 4.13405 12.4158 4.29199 12.2503 4.29199H8.18624C8.02073 4.29199 7.9009 4.13405 7.94549 3.97465L8.52566 1.90043Z" stroke="#FF2929" stroke-width="1.5"/>
</svg>
