<svg width="240" height="240" viewBox="0 0 240 240" fill="none" xmlns="http://www.w3.org/2000/svg">
<rect x="120" y="19" width="142.836" height="142.836" rx="10.5208" transform="rotate(45 120 19)" fill="#111211"/>
<rect x="48.458" y="48.4583" width="143.083" height="143.083" rx="10.5208" fill="#111211"/>
<rect x="67.3962" y="67.3959" width="105.208" height="105.208" rx="9.46875" fill="#111211" style="mix-blend-mode:multiply"/>
<rect x="67.3962" y="67.3959" width="105.208" height="105.208" rx="9.46875" stroke="#313131" stroke-width="8.41667"/>
<rect opacity="0.47" x="62.4911" y="62.4911" width="115.018" height="115.018" rx="14.7589" stroke="#5B5B5B" stroke-width="1.01786"/>
<path d="M127.814 97.2094C126.528 102.417 129.085 107.37 133.519 108.27C137.958 109.171 142.595 105.68 143.884 100.473C145.174 95.265 142.554 90.5605 138.115 89.6597C133.677 88.7589 129.1 92.0052 127.814 97.2128V97.2094Z" fill="#5B5B5B"/>
<path d="M129.753 99.0688C128.744 103.155 130.409 106.972 133.471 107.594C136.534 108.216 139.836 105.408 140.845 101.322C141.853 97.2366 140.14 93.613 137.077 92.991C134.015 92.3689 130.761 94.9829 129.753 99.0722V99.0688Z" fill="#111211"/>
<path d="M112.611 97.2094C113.897 102.417 111.34 107.37 106.905 108.27C102.467 109.171 97.8301 105.68 96.5406 100.473C95.2548 95.265 97.8714 90.5605 102.31 89.6597C106.748 88.7589 111.325 92.0052 112.611 97.2128V97.2094Z" fill="#5B5B5B"/>
<path d="M110.683 99.0688C111.692 103.155 110.027 106.972 106.965 107.594C103.902 108.216 100.6 105.408 99.5914 101.322C98.583 97.2366 100.296 93.613 103.359 92.991C106.421 92.3689 109.675 94.9829 110.683 99.0722V99.0688Z" fill="#111211"/>
<path d="M151.288 123.472C148.443 118.849 144.837 117.785 141.272 109.001C136.144 96.3698 122.045 96.4513 120.965 96.3936H120.737C120.737 96.3936 120.414 96.3936 120.396 96.3936C120.377 96.3936 120.366 96.3936 120.366 96.3936H119.747C118.72 96.4106 104.652 96.3698 99.5235 109.001C95.9585 117.782 92.6298 119.1 89.7846 123.723C86.4071 129.206 85.1588 142.378 98.8112 148.313C100.843 149.197 103.062 149.405 105.315 149.459C108.089 149.527 112.351 149.615 116.475 148.388C117.026 148.225 117.562 148.082 118.075 147.963C119.597 147.61 121.194 147.61 122.712 147.963C123.23 148.082 123.762 148.225 124.313 148.388C128.436 149.619 132.695 149.53 135.473 149.459C137.726 149.405 139.945 149.197 141.976 148.313C155.633 142.378 154.658 128.955 151.284 123.468L151.288 123.472Z" fill="#5B5B5B"/>
<path d="M126.824 118.89C126.824 122.459 124.399 125.355 121.389 125.355C118.378 125.355 115.953 122.459 115.953 118.89C115.953 115.32 118.386 113.668 121.389 113.668C124.391 113.668 126.824 115.32 126.824 118.89Z" fill="#111211"/>
</svg>
