<svg width="238" height="229" viewBox="0 0 238 229" fill="none" xmlns="http://www.w3.org/2000/svg">
<circle cx="120" cy="120" r="80" fill="#E59564"/>
<g filter="url(#filter0_i_2296_1487)">
<circle cx="120" cy="120" r="52" fill="#B0694A"/>
</g>
<circle cx="120" cy="120" r="57" stroke="#C37444" stroke-width="10"/>
<g style="mix-blend-mode:overlay" opacity="0.25">
<circle cx="120" cy="120" r="62.5" stroke="#FBFCFF"/>
</g>
<path d="M126.814 96.2096C125.528 101.417 128.085 106.37 132.519 107.271C136.958 108.172 141.595 104.68 142.884 99.4729C144.174 94.2653 141.554 89.5607 137.115 88.6599C132.677 87.7591 128.1 91.0054 126.814 96.213V96.2096Z" fill="#F9B887"/>
<path d="M128.753 98.0688C127.744 102.155 129.409 105.972 132.471 106.594C135.534 107.216 138.836 104.408 139.845 100.322C140.853 96.2366 139.14 92.613 136.077 91.991C133.015 91.3689 129.761 93.9829 128.753 98.0722V98.0688Z" fill="#A86142"/>
<path d="M111.61 96.2096C112.896 101.417 110.339 106.37 105.905 107.271C101.466 108.172 96.8291 104.68 95.5396 99.4729C94.2539 94.2653 96.8704 89.5607 101.309 88.6599C105.747 87.7591 110.324 91.0054 111.61 96.213V96.2096Z" fill="#F9B887"/>
<path d="M109.683 98.0688C110.692 102.155 109.027 105.972 105.965 106.594C102.902 107.216 99.5998 104.408 98.5914 100.322C97.583 96.2366 99.2961 92.613 102.359 91.991C105.421 91.3689 108.675 93.9829 109.683 98.0722V98.0688Z" fill="#B0694A"/>
<path d="M150.289 122.472C147.444 117.849 143.838 116.785 140.273 108.001C135.145 95.3698 121.046 95.4513 119.966 95.3936H119.738C119.738 95.3936 119.415 95.3936 119.397 95.3936C119.378 95.3936 119.367 95.3936 119.367 95.3936H118.748C117.721 95.4106 103.653 95.3698 98.5244 108.001C94.9595 116.782 91.6308 118.1 88.7856 122.723C85.4081 128.206 84.1598 141.378 97.8122 147.313C99.844 148.197 102.063 148.405 104.316 148.459C107.09 148.527 111.352 148.615 115.476 147.388C116.027 147.225 116.563 147.082 117.076 146.963C118.598 146.61 120.195 146.61 121.713 146.963C122.231 147.082 122.763 147.225 123.314 147.388C127.437 148.619 131.696 148.53 134.474 148.459C136.726 148.405 138.946 148.197 140.977 147.313C154.634 141.378 153.659 127.955 150.285 122.468L150.289 122.472Z" fill="#F9B887"/>
<path d="M125.825 117.89C125.825 121.459 123.4 124.355 120.39 124.355C117.379 124.355 114.954 121.459 114.954 117.89C114.954 114.32 117.387 112.668 120.39 112.668C123.392 112.668 125.825 114.32 125.825 117.89Z" fill="#AC6445"/>
<defs>
<filter id="filter0_i_2296_1487" x="58" y="58" width="124" height="124" filterUnits="userSpaceOnUse" color-interpolation-filters="sRGB">
<feFlood flood-opacity="0" result="BackgroundImageFix"/>
<feBlend mode="normal" in="SourceGraphic" in2="BackgroundImageFix" result="shape"/>
<feColorMatrix in="SourceAlpha" type="matrix" values="0 0 0 0 0 0 0 0 0 0 0 0 0 0 0 0 0 0 127 0" result="hardAlpha"/>
<feOffset/>
<feGaussianBlur stdDeviation="22.5"/>
<feComposite in2="hardAlpha" operator="arithmetic" k2="-1" k3="1"/>
<feColorMatrix type="matrix" values="0 0 0 0 0.358333 0 0 0 0 0.0840788 0 0 0 0 0.0627083 0 0 0 1 0"/>
<feBlend mode="normal" in2="shape" result="effect1_innerShadow_2296_1487"/>
</filter>
</defs>
</svg>
