<svg width="270" height="397" viewBox="0 0 270 397" fill="none" xmlns="http://www.w3.org/2000/svg">
<path d="M106.13 131.678L110.339 154.099L88.4475 146.091L106.13 131.678Z" fill="#FFEF9E"/>
<path d="M21.83 4.62314L26.0394 27.0442L4.14745 19.0367L21.83 4.62314Z" fill="#FFEF9E"/>
<path d="M251.83 148.623L256.039 171.044L234.147 163.037L251.83 148.623Z" fill="#FFEF9E"/>
<path d="M96.1655 228.053L99.8562 247.712L80.662 240.691L96.1655 228.053Z" fill="#FFEF9E"/>
<path d="M165.718 371.37L169.408 391.028L150.214 384.008L165.718 371.37Z" fill="#FFEF9E"/>
<rect x="163.208" y="127" width="11.5357" height="13.8428" fill="#FF97BC"/>
<rect x="258.313" y="74.7593" width="11.5357" height="13.8428" fill="#FF97BC"/>
<rect x="120.208" y="269" width="11.5357" height="13.8428" fill="#FF97BC"/>
<rect x="186.792" y="317.778" width="9.99759" height="11.5357" fill="#FF97BC"/>
<ellipse cx="222.552" cy="110.135" rx="7.30593" ry="7.69045" fill="#B5AFFF"/>
<ellipse cx="246.745" cy="231.921" rx="6.53689" ry="6.92141" fill="#B5AFFF"/>
<ellipse cx="174.871" cy="41.6905" rx="7.30593" ry="7.69045" fill="#B5AFFF"/>
<ellipse cx="41.5144" cy="174.69" rx="7.30593" ry="7.69045" fill="#B5AFFF"/>
</svg>
