<svg width="180" height="180" viewBox="0 0 180 180" fill="none" xmlns="http://www.w3.org/2000/svg">
<path d="M83.2464 5.15926C87.2336 2.1133 92.7663 2.11331 96.7536 5.15926L173.833 64.043C177.538 66.8733 179.085 71.7136 177.709 76.1681L148.046 172.16C146.605 176.821 142.296 180 137.417 180H42.5832C37.7042 180 33.3946 176.821 31.9541 172.16L2.29112 76.1681C0.914604 71.7136 2.46169 66.8733 6.16663 64.043L83.2464 5.15926Z" fill="#FBE4AE"/>
<path d="M151.534 73.9511L96.1265 31.0868C92.5189 28.2959 87.4811 28.2959 83.8735 31.0868L28.4657 73.9511C25.1515 76.5149 23.7844 80.8713 25.0393 84.8691L46.2903 152.567C47.6004 156.741 51.4686 159.581 55.8432 159.581H124.157C128.531 159.581 132.4 156.741 133.71 152.568L154.961 84.8691C156.216 80.8713 154.848 76.5149 151.534 73.9511Z" fill="#E7B43F" style="mix-blend-mode:multiply"/>
<path d="M151.534 73.9511L96.1265 31.0868C92.5189 28.2959 87.4811 28.2959 83.8735 31.0868L28.4657 73.9511C25.1515 76.5149 23.7844 80.8713 25.0393 84.8691L46.2903 152.567C47.6004 156.741 51.4686 159.581 55.8432 159.581H124.157C128.531 159.581 132.4 156.741 133.71 152.568L154.961 84.8691C156.216 80.8713 154.848 76.5149 151.534 73.9511Z" stroke="#F7CF72" stroke-width="8.9"/>
<path opacity="0.88" d="M154.456 69.6936L99.2391 26.6301C93.8097 22.3957 86.1962 22.3957 80.7667 26.6301L25.5495 69.6936C20.6203 73.5378 18.5876 80.0332 20.4461 86.0016L41.8089 154.609C43.7635 160.886 49.5739 165.162 56.1486 165.162H123.857C130.432 165.162 136.242 160.886 138.197 154.609L159.56 86.0016C161.418 80.0332 159.386 73.5378 154.456 69.6936Z" stroke="#FCEAC0" stroke-width="1.1125"/>
<path d="M99.7566 76.0864C98.3982 81.8115 101.099 87.2563 105.784 88.2466C110.473 89.2369 115.372 85.399 116.735 79.6739C118.097 73.9489 115.329 68.7769 110.64 67.7866C105.951 66.7963 101.115 70.3651 99.7566 76.0902V76.0864Z" fill="#FBE4AE"/>
<path d="M101.799 78.13C100.734 82.6218 102.492 86.8185 105.728 87.5023C108.964 88.1862 112.453 85.0995 113.518 80.6076C114.583 76.1158 112.773 72.1321 109.538 71.4483C106.302 70.7644 102.865 73.6382 101.799 78.1337V78.13Z" fill="#E7B43F"/>
<path d="M83.6913 76.0864C85.0497 81.8115 82.3488 87.2563 77.6637 88.2466C72.9747 89.2369 68.0758 85.399 66.7134 79.6739C65.355 73.9489 68.1193 68.7769 72.8083 67.7866C77.4974 66.7963 82.3329 70.3651 83.6913 76.0902V76.0864Z" fill="#FBE4AE"/>
<path d="M81.6574 78.13C82.7227 82.6218 80.9643 86.8185 77.7287 87.5023C74.4932 88.1862 71.0041 85.0995 69.9388 80.6076C68.8735 76.1158 70.6833 72.1321 73.9189 71.4483C77.1545 70.7644 80.5921 73.6382 81.6574 78.1337V78.13Z" fill="#E7B43F"/>
<path d="M124.558 104.958C121.552 99.8759 117.742 98.7062 113.975 89.0499C108.557 75.1633 93.6622 75.253 92.5216 75.1895H92.28C92.28 75.1895 91.9394 75.1895 91.9196 75.1895C91.8998 75.1895 91.8879 75.1895 91.8879 75.1895H91.2344C90.1492 75.2081 75.2857 75.1633 69.8677 89.0499C66.1013 98.7025 62.5845 100.152 59.5785 105.235C56.0101 111.262 54.6913 125.743 69.1153 132.268C71.2618 133.24 73.6064 133.468 75.9866 133.527C78.9174 133.602 83.4204 133.699 87.7769 132.35C88.3591 132.171 88.9255 132.014 89.468 131.883C91.076 131.494 92.7632 131.494 94.3671 131.883C94.9137 132.014 95.4761 132.171 96.0583 132.35C100.415 133.703 104.914 133.606 107.849 133.527C110.229 133.468 112.573 133.24 114.72 132.268C129.148 125.743 128.118 110.986 124.554 104.954L124.558 104.958Z" fill="#FBE4AE"/>
<path d="M98.7095 99.9202C98.7095 103.844 96.1472 107.028 92.9671 107.028C89.7869 107.028 87.2246 103.844 87.2246 99.9202C87.2246 95.9963 89.7949 94.1802 92.9671 94.1802C96.1393 94.1802 98.7095 95.9963 98.7095 99.9202Z" fill="#E7B43F"/>
</svg>
