<svg width="25" height="28" viewBox="0 0 25 28" fill="none" xmlns="http://www.w3.org/2000/svg">
<path d="M11.0009 5.35757C11.5472 5.27674 11.9246 4.76832 11.8437 4.22198C11.7629 3.67565 11.2545 3.29827 10.7082 3.3791L11.0009 5.35757ZM4.044 8.18264L4.81103 8.82426L4.81103 8.82426L4.044 8.18264ZM4.49216 22.7666L5.21834 22.0791L5.21834 22.0791L4.49216 22.7666ZM11.524 26.1555L11.4387 27.1519L11.4387 27.1519L11.524 26.1555ZM19.0297 24.0116L18.431 23.2107L18.431 23.2107L19.0297 24.0116ZM22.8162 9.21446C22.539 8.73675 21.9271 8.57418 21.4494 8.85134C20.9717 9.1285 20.8091 9.74044 21.0863 10.2181L22.8162 9.21446ZM8.47445 0.985855C7.92217 0.988816 7.47686 1.43892 7.47982 1.9912C7.48278 2.54348 7.93289 2.98879 8.48517 2.98583L8.47445 0.985855ZM12.741 3.89544L13.5721 4.45146C13.733 4.21104 13.7818 3.91276 13.7061 3.6336C13.6303 3.35443 13.4374 3.12174 13.1772 2.99558L12.741 3.89544ZM9.31342 7.22063C9.00634 7.67967 9.12953 8.30074 9.58857 8.60782C10.0476 8.9149 10.6687 8.79172 10.9758 8.33268L9.31342 7.22063ZM13.4603 10.4287C13.4603 9.87644 13.0126 9.42874 12.4603 9.42876C11.908 9.42878 11.4603 9.87651 11.4603 10.4288L13.4603 10.4287ZM12.4605 16.4193L11.4605 16.4194C11.4605 16.8262 11.707 17.1925 12.0839 17.3457C12.4608 17.4989 12.8929 17.4085 13.1768 17.1171L12.4605 16.4193ZM15.4579 14.7757C15.8433 14.3801 15.835 13.747 15.4395 13.3616C15.0439 12.9762 14.4108 12.9845 14.0254 13.3801L15.4579 14.7757ZM10.7082 3.3791C7.80469 3.80864 5.16015 5.28975 3.27697 7.54103L4.81103 8.82426C6.37963 6.94904 8.5824 5.71535 11.0009 5.35757L10.7082 3.3791ZM3.27697 7.54103C1.39379 9.79231 0.403173 12.6569 0.493324 15.5906L2.49238 15.5292C2.41729 13.0855 3.24243 10.6995 4.81103 8.82426L3.27697 7.54103ZM0.493324 15.5906C0.583475 18.5243 1.74811 21.3227 3.76597 23.4541L5.21834 22.0791C3.53756 20.3037 2.56747 17.9728 2.49238 15.5292L0.493324 15.5906ZM3.76597 23.4541C5.78383 25.5855 8.51432 26.9014 11.4387 27.1519L11.6094 25.1591C9.17349 24.9505 6.89913 23.8544 5.21834 22.0791L3.76597 23.4541ZM11.4387 27.1519C14.3631 27.4023 17.2775 26.5698 19.6284 24.8126L18.431 23.2107C16.4728 24.6744 14.0452 25.3678 11.6094 25.1591L11.4387 27.1519ZM19.6284 24.8126C21.9793 23.0553 23.6029 20.4958 24.1905 17.6201L22.231 17.2197C21.7415 19.6149 20.3892 21.747 18.431 23.2107L19.6284 24.8126ZM24.1905 17.6201C24.7782 14.7445 24.2891 11.7532 22.8162 9.21446L21.0863 10.2181C22.3132 12.3328 22.7206 14.8244 22.231 17.2197L24.1905 17.6201ZM8.48517 2.98583C8.40079 2.98628 8.33966 2.97479 8.32416 2.97184C8.31187 2.96951 8.30277 2.96743 8.29759 2.96618C8.29224 2.9649 8.28905 2.96402 8.28837 2.96383C8.2874 2.96357 8.29174 2.96475 8.30253 2.96827C8.31298 2.97168 8.32708 2.97648 8.34523 2.98297C8.42136 3.0102 8.53384 3.05455 8.68196 3.11653C8.97545 3.23935 9.36521 3.413 9.79653 3.61046C10.6569 4.00432 11.6515 4.47867 12.3048 4.79531L13.1772 2.99558C12.516 2.6751 11.5072 2.19397 10.629 1.79196C10.1911 1.59149 9.77795 1.40712 9.45403 1.27156C9.29343 1.20436 9.14359 1.14444 9.01869 1.09977C8.9571 1.07774 8.88898 1.05487 8.82184 1.03629C8.78522 1.02616 8.6418 0.984958 8.47445 0.985855L8.48517 2.98583ZM11.4603 10.4288L11.4605 16.4194L13.4605 16.4193L13.4603 10.4287L11.4603 10.4288ZM13.1768 17.1171L15.4579 14.7757L14.0254 13.3801L11.7443 15.7215L13.1768 17.1171ZM11.9098 3.33942L9.31342 7.22063L10.9758 8.33268L13.5721 4.45146L11.9098 3.33942Z" fill="#ADADAD"/>
</svg>
