<svg width="24" height="25" viewBox="0 0 24 25" fill="none" xmlns="http://www.w3.org/2000/svg">
<path d="M11.3233 1.59244L1.30264 10.5774C1.10929 10.7528 1 10.992 1 11.2471V22.4165C1 22.9267 1.43714 23.3413 1.97516 23.3413H8.10355C8.64157 23.3413 9.07872 22.9267 9.07872 22.4165V17.9519C9.07872 17.4417 9.51586 17.0271 10.0539 17.0271H13.8957C14.4337 17.0271 14.8708 17.4417 14.8708 17.9519V22.4165C14.8708 22.9267 15.308 23.3413 15.846 23.3413H22.0248C22.5629 23.3413 23 22.9267 23 22.4165V11.2471C23 10.992 22.8907 10.7528 22.6974 10.5774L12.6599 1.59244C12.2816 1.2576 11.7016 1.2576 11.3233 1.59244Z" stroke="#ACACAC" stroke-width="2" stroke-miterlimit="10"/>
</svg>
