<svg width="76" height="105" viewBox="0 0 76 105" fill="none" xmlns="http://www.w3.org/2000/svg">
<g clip-path="url(#clip0_1776_8986)">
<path d="M30.5067 104.92C30.1248 104.899 29.2225 104.703 29.063 103.387C29.063 103.358 29.0588 103.328 29.0588 103.303V92.5159L23.6576 92.5369C22.4993 94.7907 21.1815 96.8309 19.7379 98.5946C19.2175 99.3067 18.5796 99.4534 18.1347 99.4534C17.971 99.4534 17.799 99.4324 17.6269 99.3947C16.2168 99.068 16.2797 98.0877 16.3343 97.7944C16.3553 97.6813 16.4015 97.5808 16.4686 97.4886C17.8074 95.7417 18.9741 94.0576 19.9393 92.4657C19.9393 92.4657 16.5106 92.4866 16.5064 92.4866C16.4812 92.4866 16.456 92.4866 16.4308 92.4866C15.5537 92.3944 15.0459 91.7702 15.1089 90.8612C15.1634 90.0233 15.6334 89.441 16.4015 89.2651C16.4518 89.2525 16.5022 89.2483 16.5525 89.2483L21.5383 89.1771C22.1174 88.0083 22.3902 87.3254 22.5161 86.9232C22.1678 86.9191 21.5509 86.9149 20.6779 86.9149C19.6455 86.9149 18.248 86.9149 16.4854 86.9274C16.4476 86.9274 16.4098 86.9274 16.3721 86.9191C15.1424 86.718 14.8067 85.9178 14.9074 85.2308C15.0207 84.4432 15.5747 83.9112 16.4224 83.7729C16.456 83.7687 16.4938 83.7645 16.5274 83.7645L23.5569 83.6849C24.5263 83.7101 25.2314 84.0117 25.6846 84.5898C25.693 84.6024 25.7056 84.615 25.714 84.6275C26.0749 85.1554 26.2218 85.7586 26.1505 86.4247C26.1505 86.4624 26.1379 86.5001 26.1295 86.5378C25.8945 87.3924 25.5713 88.3267 25.1601 89.3237L29.0924 89.3069L29.1386 82.5161C29.1134 82.0721 29.2309 81.7118 29.4785 81.4437C29.6506 81.2593 29.9695 81.0415 30.5067 81.0415C30.5529 81.0415 30.599 81.0415 30.6494 81.0457C31.8958 81.1295 32.1434 81.9003 32.1938 82.2313C32.198 82.2648 32.2022 82.3025 32.2022 82.336L32.177 103.337C32.177 103.395 32.1686 103.454 32.156 103.513C31.8371 104.749 31.0481 104.933 30.6074 104.933C30.5739 104.933 30.5445 104.933 30.5109 104.933L30.5067 104.92Z" fill="#844D31"/>
<path d="M25.1181 85.0173C25.3825 85.4027 25.4874 85.8426 25.4371 86.3369C24.9796 88.0084 24.178 89.9606 23.0323 92.1935C21.8866 94.4264 20.6024 96.4163 19.1755 98.1548C18.823 98.6492 18.3614 98.8293 17.7864 98.6952C17.2156 98.5612 16.9638 98.3056 17.0352 97.916C18.7097 95.7376 20.0904 93.6765 21.1858 91.7411L16.5064 91.7662C16.0112 91.7117 15.7846 91.4227 15.8181 90.8948C15.8517 90.367 16.0993 90.0486 16.5568 89.9439L21.9747 89.8643C22.6966 88.4399 23.1289 87.4303 23.2715 86.8312C23.3597 86.4793 23.1666 86.2699 22.6882 86.1986C22.0713 86.1819 20.0023 86.1819 16.477 86.1986C15.8265 86.0939 15.5327 85.7965 15.6041 85.3147C15.6754 84.8329 15.9818 84.5439 16.5274 84.4559L23.5569 84.3763C24.2788 84.3931 24.7992 84.6067 25.1181 85.0089V85.0173ZM29.7933 90.0025L29.8478 82.4828C29.8143 81.9549 30.0619 81.7077 30.5991 81.7454C31.1362 81.779 31.43 81.9759 31.4846 82.3278L31.4594 103.329C31.2999 103.944 30.9977 104.238 30.5487 104.213C30.0996 104.187 29.8394 103.882 29.7681 103.303V91.7997L23.0281 91.8248C22.5539 91.7704 22.3021 91.4729 22.2769 90.9283C22.2517 90.3837 22.449 90.0821 22.8729 90.0318L29.7975 90.0067L29.7933 90.0025Z" fill="#844D31"/>
<path d="M57.2987 105C57.2106 105 57.1141 104.992 57.0133 104.979C56.1027 104.841 55.5529 104.212 55.4983 103.261C55.4983 103.249 55.4983 103.232 55.4983 103.22L55.5235 82.5036C55.4731 81.6197 55.9767 81.0206 56.8455 80.941C56.9042 80.9368 56.963 80.9326 57.0217 80.9326C57.433 80.9326 58.1884 81.0792 58.6291 82.0553C58.6711 82.1475 58.692 82.2439 58.692 82.3444L58.7172 90.325L60.4253 90.3417C60.4631 90.3417 60.5008 90.3417 60.5344 90.3417C61.1136 90.3417 61.4577 90.5679 61.6465 90.7607C61.9319 91.0497 62.0704 91.4477 62.062 91.9504C62.0494 92.9307 61.4535 93.5381 60.5092 93.5381C60.4715 93.5381 60.4379 93.5381 60.4001 93.5381L58.7214 93.5549L58.6962 103.328C58.6962 104.56 57.9744 105.004 57.3029 105.004L57.2987 105ZM46.2655 99.4492C46.1018 99.4492 45.9297 99.4283 45.7577 99.3906C44.3476 99.0638 44.4105 98.0835 44.4651 97.7903C44.4861 97.6813 44.5322 97.5766 44.5994 97.4844C45.9591 95.7124 47.1426 93.9445 48.1288 92.2101C48.1288 92.2101 44.6959 92.2688 44.6917 92.2688C44.6665 92.2688 44.6413 92.2688 44.6162 92.2688C43.739 92.1766 43.2312 91.5524 43.2942 90.6434C43.3487 89.7929 43.8314 89.219 44.612 89.0682C44.6497 89.0598 44.6917 89.0556 44.7295 89.0556L49.732 88.9341C50.265 87.9203 50.5252 87.2961 50.6469 86.9107C50.2986 86.9065 49.6774 86.9023 48.8045 86.9023C47.7637 86.9023 46.362 86.9023 44.591 86.9149C44.5532 86.9149 44.5112 86.9149 44.4735 86.9065C43.2648 86.7054 42.9417 85.9011 43.0382 85.2182C43.1515 84.4307 43.7055 83.8986 44.5532 83.7604C44.5868 83.7562 44.6246 83.752 44.6581 83.752L51.6877 83.6724C52.6571 83.6975 53.3622 83.9992 53.8154 84.5773C53.8238 84.5899 53.8364 84.6024 53.8448 84.615C54.2057 85.1428 54.3526 85.7461 54.2813 86.4122C54.2813 86.4499 54.2687 86.4876 54.2603 86.5253C53.7902 88.2345 52.9635 90.2538 51.801 92.5202C50.6427 94.7782 49.3123 96.8183 47.8519 98.5862C47.3524 99.2984 46.7187 99.4492 46.2697 99.4492H46.2655Z" fill="#844D31"/>
<path d="M53.2531 85.0173C53.5175 85.4027 53.6224 85.8425 53.572 86.3369C53.1146 88.0084 52.313 89.9606 51.1673 92.1935C50.0216 94.4264 48.7248 96.4163 47.2811 98.1548C46.9454 98.6492 46.4921 98.8293 45.9214 98.6952C45.3464 98.5612 45.0988 98.3056 45.1701 97.916C46.8446 95.7376 48.238 93.5885 49.3459 91.4771L44.6959 91.5567C44.2007 91.5023 43.9741 91.2132 44.0076 90.6853C44.0412 90.1575 44.2888 89.8517 44.7463 89.7637L50.1643 89.6338C50.8525 88.3687 51.2638 87.4345 51.4065 86.8354C51.4946 86.4835 51.3016 86.274 50.8231 86.2028C50.2062 86.1861 48.1288 86.1861 44.5868 86.2028C43.9531 86.0981 43.6719 85.8007 43.739 85.3189C43.8104 84.8371 44.1168 84.5481 44.6623 84.4601L51.6919 84.3805C52.4137 84.3972 52.9341 84.6109 53.2531 85.0131V85.0173ZM56.9126 81.6533C57.3952 81.6114 57.752 81.8418 57.9828 82.3529L58.008 91.0331L60.4379 91.0582C61.0548 91.0247 61.357 91.3179 61.3486 91.9421C61.3402 92.5663 61.0254 92.8596 60.4085 92.8261L58.0038 92.8512L57.9786 103.324C57.9786 104.045 57.6932 104.363 57.1183 104.275C56.5475 104.187 56.2411 103.835 56.2076 103.22L56.2327 82.4827C56.1992 81.9717 56.4216 81.6952 56.9084 81.6533H56.9126Z" fill="#844D31"/>
<path d="M46.1899 10.117C44.7504 16.535 47.6126 22.6388 52.5774 23.7489C57.5463 24.8591 62.7377 20.5567 64.1814 14.1387C65.6208 7.72075 62.6915 1.9228 57.7226 0.812638C52.7536 -0.29752 47.6294 3.70324 46.1899 10.1212V10.117Z" fill="#D3A56A"/>
<path d="M48.3597 12.4086C47.2307 17.4441 49.0941 22.1487 52.5228 22.9153C55.9516 23.682 59.6489 20.2216 60.7778 15.1861C61.9068 10.1506 59.9888 5.68483 56.5601 4.9182C53.1314 4.15156 49.4886 7.37311 48.3597 12.4128V12.4086Z" fill="#603A2D"/>
<path d="M29.168 10.117C30.6074 16.535 27.7453 22.6388 22.7805 23.7489C17.8116 24.8591 12.6202 20.5567 11.1765 14.1387C9.73704 7.72075 12.6664 1.9228 17.6353 0.812638C22.6043 -0.29752 27.7285 3.70324 29.168 10.1212V10.117Z" fill="#D3A56A"/>
<path d="M27.0108 12.4086C28.1398 17.4441 26.2764 22.1487 22.8477 22.9153C19.4189 23.682 15.7216 20.2216 14.5927 15.1861C13.4638 10.1506 15.3817 5.68483 18.8104 4.9182C22.2391 4.15156 25.8819 7.37311 27.0108 12.4128V12.4086Z" fill="#603A2D"/>
<path d="M72.47 42.4833C69.2846 36.7859 65.2474 35.4747 61.2563 24.6496C55.5151 9.08225 39.7312 9.18279 38.5225 9.11157H38.2665C38.2665 9.11157 37.9056 9.11157 37.8846 9.11157C37.8636 9.11157 37.851 9.11157 37.851 9.11157H37.1586C36.0086 9.13252 20.2583 9.08225 14.5171 24.6496C10.526 35.4705 6.79931 37.0959 3.61399 42.7933C-0.16728 49.5506 -1.56479 65.7841 13.7197 73.0986C15.9944 74.1878 18.4788 74.4433 21.0011 74.5104C24.1067 74.5941 28.8784 74.7031 33.4948 73.1907C34.1117 72.9896 34.7119 72.8137 35.2868 72.6671C36.9907 72.2314 38.7785 72.2314 40.4782 72.6671C41.0573 72.8137 41.6533 72.9896 42.2702 73.1907C46.8866 74.7073 51.6541 74.5983 54.7639 74.5104C57.2861 74.4433 59.7706 74.1878 62.0452 73.0986C77.334 65.7841 76.2428 49.2406 72.4658 42.4792L72.47 42.4833Z" fill="#D3A56A"/>
<path d="M45.082 36.8363C45.082 41.2351 42.3667 44.8043 38.9967 44.8043C35.6267 44.8043 32.9114 41.2351 32.9114 36.8363C32.9114 32.4376 35.6351 30.4016 38.9967 30.4016C42.3583 30.4016 45.082 32.4376 45.082 36.8363Z" fill="#603A2D"/>
<path d="M49.8528 32.6475C50.8538 32.5487 51.5551 31.3561 51.4191 29.9839C51.2831 28.6116 50.3613 27.5793 49.3603 27.6782C48.3592 27.777 47.658 28.9696 47.794 30.3419C47.93 31.7141 48.8517 32.7464 49.8528 32.6475Z" fill="#603A2D"/>
<path d="M49.7152 33.334C48.41 33.334 47.2895 32.0982 47.1216 30.4141C47.0419 29.6097 47.2013 28.8222 47.5707 28.198C47.9735 27.5151 48.6031 27.0836 49.2955 27.0166C50.693 26.8783 51.9185 28.1561 52.0906 29.9239C52.1703 30.7283 52.0108 31.5159 51.6415 32.1401C51.2386 32.8229 50.6091 33.2544 49.9166 33.3214C49.8495 33.3298 49.7781 33.3298 49.711 33.3298L49.7152 33.334ZM49.4928 28.3488C49.4718 28.3488 49.4508 28.3488 49.4256 28.3488C49.0689 28.3823 48.8381 28.6923 48.729 28.8724C48.5065 29.2495 48.41 29.7606 48.4604 30.2758C48.5569 31.2436 49.178 32.0353 49.7823 31.9767C50.1391 31.9432 50.3699 31.6332 50.479 31.4488C50.7014 31.0718 50.798 30.5607 50.7476 30.0454C50.6553 29.1112 50.0761 28.3404 49.4886 28.3404L49.4928 28.3488Z" fill="#603A2D"/>
<path d="M30.2054 30.3611C30.3414 28.9889 29.6401 27.7963 28.6391 27.6974C27.6381 27.5986 26.7163 28.6309 26.5803 30.0031C26.4443 31.3754 27.1455 32.5679 28.1466 32.6668C29.1476 32.7657 30.0694 31.7334 30.2054 30.3611Z" fill="#603A2D"/>
<path d="M28.2824 33.3467C28.2153 33.3467 28.1481 33.3467 28.0768 33.3383C27.3843 33.2713 26.7548 32.8398 26.3519 32.1569C25.9826 31.5327 25.8273 30.7451 25.9071 29.9408C26.0833 28.1729 27.3172 26.8952 28.7021 27.0334C30.0954 27.1717 31.0481 28.6631 30.876 30.4309C30.7082 32.1108 29.5918 33.3509 28.2824 33.3509V33.3467ZM28.5049 28.3656C27.9173 28.3656 27.3382 29.1406 27.2458 30.0707C27.1955 30.5859 27.292 31.097 27.5144 31.4741C27.6194 31.6542 27.8544 31.9642 28.2111 31.9977C28.8238 32.0522 29.4407 31.2646 29.5331 30.2969C29.6296 29.3292 29.1805 28.4285 28.5678 28.3698C28.5468 28.3698 28.5259 28.3698 28.5007 28.3698L28.5049 28.3656Z" fill="#603A2D"/>
<path d="M29.168 30.1669C29.5944 30.1669 29.9402 29.7636 29.9402 29.2662C29.9402 28.7687 29.5944 28.3655 29.168 28.3655C28.7415 28.3655 28.3958 28.7687 28.3958 29.2662C28.3958 29.7636 28.7415 30.1669 29.168 30.1669Z" fill="white"/>
<path d="M50.0719 30.1544C50.4984 30.1544 50.8441 29.7512 50.8441 29.2537C50.8441 28.7563 50.4984 28.353 50.0719 28.353C49.6454 28.353 49.2997 28.7563 49.2997 29.2537C49.2997 29.7512 49.6454 30.1544 50.0719 30.1544Z" fill="white"/>
<path d="M36.4577 49.0272L36.5668 50.3636C36.6046 50.8537 37.0159 51.2265 37.5069 51.2265H40.6586C41.1497 51.2265 41.5567 50.8495 41.5987 50.3636L41.7036 49.0439C40.8853 48.9685 39.983 48.78 38.9883 48.4407C38.0693 48.7549 37.2257 48.9392 36.4577 49.023V49.0272Z" fill="white"/>
<path d="M34.8378 49.7434C32.3197 49.7434 30.5865 48.03 29.3904 46.8402C28.828 46.2831 28.3076 46.0275 27.9089 45.8725C26.7464 45.4201 25.5042 46.3794 25.4916 46.392C25.2524 46.635 24.8579 46.6434 24.6103 46.4046C24.3627 46.1658 24.3585 45.772 24.5977 45.529C24.669 45.4536 26.4233 43.9664 28.358 44.7163C29.0001 44.9635 29.575 45.2818 30.2633 45.9605C32.0931 47.7745 34.3719 50.0283 38.64 47.0748C38.9212 46.878 39.3115 46.9492 39.5045 47.2299C39.7018 47.5105 39.6304 47.9001 39.3493 48.0928C37.616 49.291 36.122 49.7392 34.8336 49.7392L34.8378 49.7434Z" fill="#603A2D"/>
<path d="M43.2564 49.7434C45.7745 49.7434 47.5077 48.03 48.7038 46.8402C49.2662 46.2831 49.7866 46.0275 50.1852 45.8725C51.3477 45.4201 52.59 46.3794 52.6026 46.392C52.8418 46.635 53.2363 46.6434 53.4839 46.4046C53.7315 46.1658 53.7357 45.772 53.4965 45.529C53.4251 45.4536 51.6709 43.9664 49.7362 44.7163C49.0941 44.9635 48.5191 45.2818 47.8309 45.9605C46.0011 47.7745 43.7223 50.0283 39.4542 47.0748C39.173 46.878 38.7827 46.9492 38.5896 47.2299C38.3924 47.5105 38.4637 47.9001 38.7449 48.0928C40.4782 49.291 41.9722 49.7392 43.2606 49.7392L43.2564 49.7434Z" fill="#603A2D"/>
</g>
<defs>
<clipPath id="clip0_1776_8986">
<rect width="75" height="105" fill="white" transform="translate(0.5)"/>
</clipPath>
</defs>
</svg>
