<svg width="24" height="33" viewBox="0 0 24 33" fill="none" xmlns="http://www.w3.org/2000/svg">
<path d="M23.9362 11.9681C23.9362 18.5779 14.692 32.9182 11.9681 32.9182C9.24422 32.9182 0 18.5779 0 11.9681C0 5.3583 5.3583 0 11.9681 0C18.5779 0 23.9362 5.3583 23.9362 11.9681Z" fill="#7C3D1A"/>
<path d="M10.9041 11.355V11.947H8.77614V13.659H11.6401V14.267H5.22414V13.659H8.04014V11.947H6.02414V8.66698H10.8401V9.25898H6.76014V11.355H10.9041Z" fill="white"/>
<path d="M14.5942 9.64298C14.6022 10.459 15.2342 11.243 16.3062 11.547L15.9542 12.139C15.1542 11.899 14.5542 11.387 14.2422 10.739C13.9382 11.451 13.3302 12.003 12.4982 12.267L12.1302 11.675C13.2102 11.363 13.8662 10.531 13.8582 9.64298V9.53098H12.3382V8.93898H13.8582V8.09098H14.6102V8.93898H16.1142V9.53098H14.5942V9.64298ZM13.0262 13.339V12.747H17.6502V15.131H16.9142V13.339H13.0262ZM16.9142 12.395V8.12298H17.6502V9.94698H18.6582V10.571H17.6502V12.395H16.9142Z" fill="white"/>
</svg>
