<svg width="24" height="12" viewBox="0 0 24 12" fill="none" xmlns="http://www.w3.org/2000/svg">
<path d="M3.13213 4.53013C5.11583 2.8631 7.84093 1.35286 10.9463 1.00819C14.0247 0.666497 17.5473 1.46096 21.1907 4.5198C22.0512 5.24222 22.025 6.50334 21.1722 7.1498C19.1478 8.68442 16.3997 10.0651 13.2995 10.3714C10.2215 10.6755 6.74657 9.92711 3.21086 7.12597C2.34888 6.44308 2.32617 5.20742 3.13213 4.53013Z" stroke="#808080" stroke-width="1.5"/>
<path d="M14.44 5.68457C14.44 7.32063 13.3327 8.43457 12.2085 8.43457C11.0844 8.43457 9.97705 7.32063 9.97705 5.68457C9.97705 4.04851 11.0844 2.93457 12.2085 2.93457C13.3327 2.93457 14.44 4.04851 14.44 5.68457Z" stroke="#808080" stroke-width="1.5"/>
</svg>
