<svg width="17" height="17" viewBox="0 0 17 17" fill="none" xmlns="http://www.w3.org/2000/svg">
<path d="M1.1081 3.05706L3.91101 14.8312C3.94299 14.9683 4.0053 15.0961 4.09316 15.2048C4.18101 15.3134 4.29208 15.4001 4.41784 15.4581C4.54359 15.5161 4.68068 15.5439 4.81859 15.5394C4.9565 15.5348 5.09156 15.4981 5.2134 15.4319L8.53373 13.6604L10.1495 15.7271C10.2056 15.8118 10.2829 15.8795 10.3734 15.9233C10.4638 15.9671 10.564 15.9854 10.6637 15.9762C10.819 15.9626 10.9626 15.8866 11.0629 15.7648C11.1633 15.6431 11.2122 15.4856 11.1989 15.3271L10.9668 12.5637C10.9503 12.3593 10.8676 12.1663 10.7317 12.0153L3.94972 5.19373L12.8454 11.3941L15.6294 9.91502C15.7836 9.83294 15.9115 9.70729 15.9978 9.55305C16.0841 9.39881 16.1251 9.22249 16.116 9.04509C16.1157 8.87178 16.0659 8.7023 15.9728 8.5574C15.8797 8.4125 15.7473 8.29844 15.5917 8.22918L2.36501 1.99818C2.2108 1.92517 2.03955 1.8981 1.87094 1.92006C1.70234 1.94203 1.54323 2.01215 1.4119 2.12236C1.28058 2.23256 1.18237 2.37839 1.12857 2.54306C1.07477 2.70774 1.06757 2.88458 1.10778 3.05325L1.1081 3.05706Z" stroke="#656565" stroke-linejoin="round"/>
</svg>
