<svg width="240" height="240" viewBox="0 0 240 240" fill="none" xmlns="http://www.w3.org/2000/svg">
<path d="M113.611 33.3101C116.941 31.3677 121.059 31.3677 124.389 33.3101L190.694 71.9883C193.98 73.9049 196 77.4223 196 81.226V158.774C196 162.578 193.98 166.095 190.694 168.012L124.389 206.69C121.059 208.632 116.941 208.632 113.611 206.69L47.3058 168.012C44.0203 166.095 42 162.578 42 158.774V81.226C42 77.4223 44.0203 73.9049 47.3058 71.9884L113.611 33.3101Z" fill="#B283EC"/>
<path d="M168.778 85.3495L123.861 59.0685C120.859 57.3118 117.142 57.3118 114.139 59.0685L69.2228 85.3495C66.272 87.076 64.4586 90.2382 64.4586 93.657V146.343C64.4586 149.762 66.272 152.924 69.2228 154.651L114.139 180.932C117.142 182.688 120.859 182.688 123.861 180.932L168.778 154.651C171.728 152.924 173.542 149.762 173.542 146.343V93.657C173.542 90.2382 171.728 87.076 168.778 85.3495Z" fill="#433B85" stroke="#8F63D7" stroke-width="8.55556"/>
<path opacity="0.42" d="M171.177 81.2947L126.261 55.1613C121.772 52.55 116.228 52.55 111.74 55.1613L66.8229 81.2947C62.3795 83.8799 59.6459 88.6329 59.6459 93.7737V146.227C59.6459 151.367 62.3795 156.12 66.8229 158.706L111.74 184.839C116.228 187.45 121.772 187.45 126.261 184.839L171.177 158.706C175.621 156.12 178.354 151.367 178.354 146.227V93.7737C178.354 88.6329 175.621 83.8799 171.177 81.2947Z" stroke="#D5B3FB" stroke-width="1.06944"/>
<g filter="url(#filter0_iii_2296_1544)">
<path d="M126.641 98.4787C125.298 103.857 127.969 108.972 132.602 109.902C137.239 110.833 142.084 107.227 143.431 101.849C144.778 96.4705 142.041 91.6118 137.404 90.6814C132.767 89.7511 127.985 93.1038 126.641 98.4822V98.4787Z" fill="#B283EC"/>
<path d="M128.667 100.399C127.614 104.619 129.352 108.561 132.552 109.204C135.752 109.846 139.202 106.946 140.256 102.727C141.309 98.5067 139.52 94.7643 136.32 94.1219C133.12 93.4794 129.721 96.1792 128.667 100.402V100.399Z" fill="#433B85"/>
<path d="M110.757 98.4787C112.101 103.857 109.43 108.972 104.796 109.902C100.159 110.833 95.3146 107.227 93.9674 101.849C92.624 96.4705 95.3577 91.6118 99.9948 90.6814C104.632 89.7511 109.414 93.1038 110.757 98.4822V98.4787Z" fill="#B283EC"/>
<path d="M108.744 100.399C109.797 104.619 108.059 108.561 104.859 109.204C101.659 109.846 98.2087 106.946 97.1551 102.727C96.1016 98.5067 97.8914 94.7643 101.091 94.1219C104.291 93.4794 107.69 96.1792 108.744 100.402V100.399Z" fill="#433B85"/>
<path d="M151.167 125.602C148.194 120.828 144.427 119.729 140.702 110.657C135.345 97.6114 120.615 97.6957 119.487 97.636H119.248C119.248 97.636 118.911 97.636 118.891 97.636C118.872 97.636 118.86 97.636 118.86 97.636H118.214C117.141 97.6535 102.442 97.6114 97.0847 110.657C93.3601 119.725 89.8823 121.087 86.9097 125.862C83.381 131.525 82.0768 145.128 96.3406 151.258C98.4633 152.171 100.782 152.385 103.136 152.441C106.034 152.511 110.487 152.603 114.795 151.335C115.371 151.167 115.931 151.019 116.467 150.897C118.057 150.531 119.726 150.531 121.312 150.897C121.852 151.019 122.408 151.167 122.984 151.335C127.292 152.606 131.741 152.515 134.643 152.441C136.997 152.385 139.316 152.171 141.439 151.258C155.706 145.128 154.688 131.265 151.163 125.599L151.167 125.602Z" fill="#B283EC"/>
<path d="M125.608 120.87C125.608 124.556 123.074 127.547 119.929 127.547C116.784 127.547 114.25 124.556 114.25 120.87C114.25 117.183 116.792 115.477 119.929 115.477C123.066 115.477 125.608 117.183 125.608 120.87Z" fill="#433B85"/>
</g>
<path d="M126.641 98.4787C125.298 103.857 127.969 108.972 132.602 109.902C137.239 110.833 142.084 107.227 143.431 101.849C144.778 96.4705 142.041 91.6118 137.404 90.6814C132.767 89.7511 127.985 93.1038 126.641 98.4822V98.4787Z" fill="#B283EC"/>
<path d="M128.667 100.399C127.614 104.619 129.352 108.561 132.552 109.204C135.752 109.846 139.202 106.946 140.256 102.727C141.309 98.5067 139.52 94.7643 136.32 94.1219C133.12 93.4794 129.721 96.1792 128.667 100.402V100.399Z" fill="#433B85"/>
<path d="M110.757 98.4787C112.101 103.857 109.43 108.972 104.796 109.902C100.159 110.833 95.3146 107.227 93.9674 101.849C92.624 96.4705 95.3577 91.6118 99.9948 90.6814C104.632 89.7511 109.414 93.1038 110.757 98.4822V98.4787Z" fill="#B283EC"/>
<path d="M108.744 100.399C109.797 104.619 108.059 108.561 104.859 109.204C101.659 109.846 98.2087 106.946 97.1551 102.727C96.1016 98.5067 97.8914 94.7643 101.091 94.1219C104.291 93.4794 107.69 96.1792 108.744 100.402V100.399Z" fill="#433B85"/>
<path d="M151.167 125.602C148.194 120.828 144.427 119.729 140.702 110.657C135.345 97.6114 120.615 97.6957 119.487 97.636H119.248C119.248 97.636 118.911 97.636 118.891 97.636C118.872 97.636 118.86 97.636 118.86 97.636H118.214C117.141 97.6535 102.442 97.6114 97.0847 110.657C93.3601 119.725 89.8823 121.087 86.9097 125.862C83.381 131.525 82.0768 145.128 96.3406 151.258C98.4633 152.171 100.782 152.385 103.136 152.441C106.034 152.511 110.487 152.603 114.795 151.335C115.371 151.167 115.931 151.019 116.467 150.897C118.057 150.531 119.726 150.531 121.312 150.897C121.852 151.019 122.408 151.167 122.984 151.335C127.292 152.606 131.741 152.515 134.643 152.441C136.997 152.385 139.316 152.171 141.439 151.258C155.706 145.128 154.688 131.265 151.163 125.599L151.167 125.602Z" fill="#B283EC"/>
<path d="M125.608 120.87C125.608 124.556 123.074 127.547 119.929 127.547C116.784 127.547 114.25 124.556 114.25 120.87C114.25 117.183 116.792 115.477 119.929 115.477C123.066 115.477 125.608 117.183 125.608 120.87Z" fill="#433B85"/>
<defs>
<filter id="filter0_iii_2296_1544" x="74.582" y="84.5269" width="88.8174" height="77.9514" filterUnits="userSpaceOnUse" color-interpolation-filters="sRGB">
<feFlood flood-opacity="0" result="BackgroundImageFix"/>
<feBlend mode="normal" in="SourceGraphic" in2="BackgroundImageFix" result="shape"/>
<feColorMatrix in="SourceAlpha" type="matrix" values="0 0 0 0 0 0 0 0 0 0 0 0 0 0 0 0 0 0 127 0" result="hardAlpha"/>
<feOffset dx="-10" dy="-6"/>
<feGaussianBlur stdDeviation="12"/>
<feComposite in2="hardAlpha" operator="arithmetic" k2="-1" k3="1"/>
<feColorMatrix type="matrix" values="0 0 0 0 0.376471 0 0 0 0 0.227451 0 0 0 0 0.176471 0 0 0 0.5 0"/>
<feBlend mode="normal" in2="shape" result="effect1_innerShadow_2296_1544"/>
<feColorMatrix in="SourceAlpha" type="matrix" values="0 0 0 0 0 0 0 0 0 0 0 0 0 0 0 0 0 0 127 0" result="hardAlpha"/>
<feOffset dx="10" dy="10"/>
<feGaussianBlur stdDeviation="12"/>
<feComposite in2="hardAlpha" operator="arithmetic" k2="-1" k3="1"/>
<feColorMatrix type="matrix" values="0 0 0 0 0.984474 0 0 0 0 0.880845 0 0 0 0 0.822553 0 0 0 0.3 0"/>
<feBlend mode="normal" in2="effect1_innerShadow_2296_1544" result="effect2_innerShadow_2296_1544"/>
<feColorMatrix in="SourceAlpha" type="matrix" values="0 0 0 0 0 0 0 0 0 0 0 0 0 0 0 0 0 0 127 0" result="hardAlpha"/>
<feOffset dx="2" dy="2"/>
<feGaussianBlur stdDeviation="2"/>
<feComposite in2="hardAlpha" operator="arithmetic" k2="-1" k3="1"/>
<feColorMatrix type="matrix" values="0 0 0 0 0.947456 0 0 0 0 0.818031 0 0 0 0 0.698563 0 0 0 0.25 0"/>
<feBlend mode="normal" in2="effect2_innerShadow_2296_1544" result="effect3_innerShadow_2296_1544"/>
</filter>
</defs>
</svg>
