<svg width="64" height="65" viewBox="0 0 64 65" fill="none" xmlns="http://www.w3.org/2000/svg">
<g filter="url(#filter0_d_1179_2331)">
<path d="M37.1143 9.69537C36.0406 14.477 38.1763 19.0226 41.8853 19.8489C45.5944 20.6751 49.4731 17.4719 50.5491 12.6903C51.6227 7.90861 49.4382 3.58985 45.7268 2.76127C42.0178 1.93502 38.1902 4.91371 37.1143 9.69305V9.69537Z" fill="#D4A773"/>
<path d="M43.0589 20.4417C42.6336 20.4417 42.2083 20.3954 41.7854 20.3005C37.8323 19.4187 35.5339 14.6162 36.6634 9.59387C37.7835 4.61317 41.811 1.4146 45.8314 2.31029C49.8519 3.2083 52.1247 7.81174 51.0045 12.7924C49.9959 17.2755 46.5913 20.4417 43.0612 20.4417H43.0589ZM37.5697 9.79523C36.5518 14.32 38.5342 18.6272 41.9876 19.3956C42.3455 19.4766 42.708 19.5136 43.0682 19.5136C46.1707 19.5136 49.1849 16.6414 50.0959 12.5865C51.1021 8.11262 49.1384 3.99521 45.6269 3.21061C42.1154 2.42602 38.576 5.31908 37.5697 9.79291V9.79523Z" fill="#333333"/>
<path d="M39.2128 11.0218C38.3181 14.9981 39.7938 18.7128 42.5082 19.3168C45.2226 19.9209 48.1461 17.1898 49.0408 13.2136C49.9356 9.2374 48.418 5.71017 45.7036 5.1061C42.9892 4.50203 40.1075 7.04561 39.2128 11.0218Z" fill="#9E7B54"/>
<path d="M24.4069 9.69537C25.4805 14.477 23.3448 19.0226 19.6358 19.8489C15.9267 20.6751 12.048 17.4719 10.9721 12.6903C9.90071 7.90861 12.0852 3.58985 15.7966 2.76127C19.5056 1.93502 23.3332 4.91371 24.4092 9.69305L24.4069 9.69537Z" fill="#D4A773"/>
<path d="M18.4645 20.4417C14.9321 20.4417 11.5298 17.2755 10.5212 12.7924C9.40105 7.80943 11.6739 3.20599 15.6943 2.31029C19.7148 1.4146 23.7422 4.61317 24.8623 9.59387C25.9918 14.6162 23.6934 19.4187 19.7403 20.3005C19.3174 20.3954 18.8898 20.4417 18.4668 20.4417H18.4645ZM17.0538 3.08563C16.6704 3.08563 16.2846 3.12729 15.8965 3.21293C12.385 3.99521 10.4213 8.11494 11.4275 12.5888C12.4454 17.1135 16.0801 20.1686 19.5358 19.3979C22.9892 18.6272 24.9716 14.32 23.9537 9.79754C23.059 5.81669 20.1563 3.08795 17.0538 3.08795V3.08563Z" fill="#333333"/>
<path d="M22.3153 11.0218C23.21 14.9981 21.7343 18.7128 19.0199 19.3168C16.3056 19.9209 13.382 17.1898 12.4873 13.2136C11.5926 9.2374 13.1101 5.71017 15.8245 5.1061C18.5389 4.50203 21.4206 7.04561 22.3153 11.0218Z" fill="#9E7B54"/>
<path d="M56.7401 33.8053C54.3604 29.5606 51.3462 28.5839 48.3669 20.5204C44.0792 8.92266 32.2944 8.99903 31.3927 8.9458H31.2021C31.2021 8.9458 30.9326 8.9458 30.9186 8.9458C30.9047 8.9458 30.893 8.9458 30.893 8.9458H30.3748C29.5173 8.962 17.7557 8.92266 13.4703 20.5204C10.491 28.5816 7.70923 29.7921 5.32949 34.0368C2.50588 39.0707 1.46243 51.1637 12.8754 56.6119C14.5719 57.422 16.4287 57.6118 18.3111 57.665C20.6304 57.7275 24.1931 57.8085 27.6395 56.6813C28.102 56.5309 28.5482 56.4013 28.9781 56.2902C30.2493 55.9662 31.5856 55.9662 32.8568 56.2902C33.289 56.399 33.7352 56.5286 34.1954 56.6813C37.6418 57.8108 41.2021 57.7298 43.5238 57.665C45.4062 57.6141 47.263 57.4243 48.9595 56.6119C60.3748 51.1637 59.5614 38.8392 56.7378 33.8053H56.7401Z" fill="#D4A773"/>
<path d="M41.639 58.1601C39.494 58.1601 36.7331 58.0004 34.0513 57.121C33.6121 56.9775 33.1728 56.8502 32.7429 56.7391C31.5507 56.4359 30.2888 56.4359 29.0943 56.7391C28.6643 56.8479 28.2228 56.9775 27.7859 57.121C24.2186 58.2898 20.5142 58.1879 18.2995 58.1277C16.5565 58.0791 14.5231 57.9125 12.6755 57.0307C8.23907 54.913 5.17377 51.5292 3.80728 47.2475C2.20142 42.2066 3.21002 36.8672 4.92278 33.8098C5.77102 32.2962 6.65645 31.176 7.59533 29.991C9.329 27.8015 11.1208 25.5357 13.0334 20.3582C14.8438 15.4585 18.1461 11.9845 22.8428 10.0358C25.9895 8.73043 28.8758 8.5013 30.3144 8.48047H30.893C30.9256 8.48047 31.1998 8.48047 31.1998 8.48047H31.4182C31.4531 8.48278 31.5065 8.4851 31.5786 8.48741C35.4898 8.63091 44.9971 10.0705 48.7991 20.3582C50.6769 25.4384 52.5198 27.6071 54.3023 29.704C55.3109 30.889 56.2614 32.0092 57.1398 33.5761C58.8224 36.5779 59.7891 41.9011 58.1531 47.03C56.7517 51.4297 53.6399 54.8875 49.1547 57.0284C47.3071 57.9102 45.2737 58.0791 43.5307 58.1254C42.9823 58.1393 42.3408 58.1578 41.6344 58.1578L41.639 58.1601ZM30.9186 55.5865C31.6088 55.5865 32.3013 55.6721 32.973 55.8434C33.4238 55.9568 33.884 56.091 34.3418 56.2415C37.7557 57.3593 41.3578 57.2598 43.5121 57.202C45.1575 57.158 47.0701 57.0029 48.7596 56.1952C53.0078 54.1677 55.9499 50.902 57.2723 46.7522C58.8154 41.9127 57.8672 36.7654 56.3334 34.0297C55.4991 32.5392 54.5742 31.4537 53.5958 30.3034C51.8458 28.2459 49.8635 25.9129 47.9276 20.6799C44.3209 10.9176 35.269 9.54974 31.5461 9.41319C31.474 9.41088 31.4182 9.40856 31.3787 9.40625H30.3283C27.4396 9.44791 17.7138 10.3806 13.9072 20.6776C11.9435 25.9939 10.0215 28.4218 8.32738 30.5626C7.41406 31.7176 6.54955 32.81 5.73616 34.2588C4.12101 37.1403 3.17284 42.1858 4.69503 46.9651C5.99877 51.0548 8.82006 54.1608 13.0776 56.1929C14.7694 57.0006 16.6797 57.1557 18.3251 57.1996C20.477 57.2575 24.0815 57.357 27.4954 56.2392C27.9532 56.0887 28.4157 55.9545 28.8642 55.8411C29.5358 55.6698 30.2284 55.5842 30.9186 55.5842V55.5865Z" fill="#333333"/>
<path d="M36.2869 29.5999C36.2869 32.8771 34.2604 35.5364 31.7459 35.5364C29.2314 35.5364 27.2049 32.8794 27.2049 29.5999C27.2049 26.3203 29.2384 24.8066 31.7459 24.8066C34.2535 24.8066 36.2869 26.3226 36.2869 29.5999Z" fill="#4F3D2F"/>
<path d="M31.7459 35.997C28.9851 35.997 26.7401 33.1271 26.7401 29.5999C26.7401 25.7232 29.3267 24.3438 31.7459 24.3438C34.1652 24.3438 36.7517 25.7255 36.7517 29.5999C36.7517 33.1271 34.5045 35.997 31.7459 35.997ZM31.7459 25.2695C29.1919 25.2695 27.6697 26.8896 27.6697 29.5999C27.6697 32.567 29.5358 35.0712 31.7459 35.0712C33.956 35.0712 35.8221 32.6156 35.8221 29.5999C35.8221 26.8873 34.2976 25.2695 31.7459 25.2695Z" fill="#333333"/>
<path d="M39.5639 26.5337C40.2549 26.4656 40.739 25.6442 40.6451 24.6991C40.5512 23.754 39.9149 23.043 39.2239 23.1111C38.5329 23.1792 38.0489 24.0005 38.1428 24.9457C38.2367 25.8908 38.8729 26.6017 39.5639 26.5337Z" fill="#333333"/>
<path d="M39.4684 27.0009C38.5667 27.0009 37.7952 26.1492 37.679 24.9919C37.6232 24.4388 37.7324 23.8972 37.9881 23.4667C38.2646 22.9969 38.6992 22.7006 39.1779 22.652C40.1424 22.5571 40.986 23.4366 41.1068 24.654C41.1626 25.2072 41.051 25.7488 40.7977 26.1792C40.5212 26.6491 40.0866 26.9453 39.6079 26.9939C39.5614 26.9986 39.5126 27.0009 39.4661 27.0009H39.4684ZM39.315 23.5709C39.3011 23.5709 39.2848 23.5709 39.2709 23.5709C39.0245 23.594 38.8642 23.8069 38.7898 23.9319C38.6364 24.1911 38.569 24.5429 38.6062 24.897C38.6736 25.5636 39.1012 26.1075 39.5195 26.0682C39.7659 26.045 39.9262 25.8298 40.0006 25.7071C40.154 25.4479 40.2214 25.0961 40.1842 24.742C40.1191 24.1009 39.7217 23.5685 39.315 23.5685V23.5709Z" fill="#333333"/>
<path d="M24.9342 24.9488C25.0281 24.0037 24.544 23.1824 23.853 23.1143C23.1621 23.0462 22.5258 23.7572 22.4319 24.7023C22.338 25.6474 22.8221 26.4688 23.5131 26.5368C24.204 26.6049 24.8403 25.894 24.9342 24.9488Z" fill="#333333"/>
<path d="M23.6097 27.0009C23.5632 27.0009 23.5168 27.0009 23.468 26.9939C22.9892 26.9476 22.5546 26.6491 22.2781 26.1792C22.0248 25.7488 21.9156 25.2072 21.969 24.654C22.0899 23.4366 22.9427 22.5571 23.8979 22.652C24.86 22.7469 25.5177 23.7745 25.3968 24.9919C25.283 26.1492 24.5114 27.0009 23.6074 27.0009H23.6097ZM23.7631 23.5709C23.3564 23.5709 22.959 24.1032 22.8939 24.7443C22.8591 25.0984 22.9265 25.4502 23.0775 25.7094C23.1519 25.8344 23.3123 26.0473 23.5586 26.0705C23.9816 26.1075 24.4068 25.5636 24.4719 24.8994C24.537 24.2328 24.2279 23.6125 23.8073 23.5709C23.7933 23.5709 23.777 23.5709 23.7631 23.5709Z" fill="#333333"/>
<path d="M23.8142 24.5729C23.9836 24.5729 24.121 24.4361 24.121 24.2674C24.121 24.0987 23.9836 23.9619 23.8142 23.9619C23.6448 23.9619 23.5074 24.0987 23.5074 24.2674C23.5074 24.4361 23.6448 24.5729 23.8142 24.5729Z" fill="white"/>
<path d="M39.4963 24.633C39.6658 24.633 39.8031 24.4962 39.8031 24.3275C39.8031 24.1588 39.6658 24.022 39.4963 24.022C39.3269 24.022 39.1896 24.1588 39.1896 24.3275C39.1896 24.4962 39.3269 24.633 39.4963 24.633Z" fill="white"/>
<path d="M29.8472 38.6817L29.9286 39.6792C29.9588 40.0426 30.2632 40.3226 30.6304 40.3226H32.9846C33.3518 40.3226 33.6562 40.0426 33.6864 39.6792L33.7654 38.6979C33.1542 38.6424 32.4803 38.5012 31.7366 38.2466C31.0487 38.4803 30.4212 38.6192 29.8496 38.6817H29.8472Z" fill="white"/>
<path d="M32.9823 40.7857H30.6281C30.0239 40.7857 29.5126 40.3159 29.4638 39.7165L29.3453 38.2722L29.7938 38.2236C30.3562 38.1611 30.9581 38.0223 31.5832 37.8117L31.732 37.7607L31.883 37.8117C32.5593 38.0408 33.2054 38.1843 33.8026 38.2398L34.2604 38.2815L34.1443 39.7211C34.0954 40.3205 33.5842 40.7904 32.9799 40.7904L32.9823 40.7857ZM30.3469 39.08L30.3934 39.6424C30.4027 39.7651 30.5073 39.8599 30.6304 39.8599H32.9846C33.1078 39.8599 33.2123 39.7651 33.2216 39.6424L33.2658 39.1031C32.7754 39.0291 32.2642 38.6749 31.7366 38.5037C31.2602 38.6587 30.7954 39.0036 30.3469 39.08Z" fill="#333333"/>
<path d="M34.853 39.2139C33.8909 39.2139 32.7754 38.8783 31.481 37.9849C31.2695 37.8391 31.2183 37.5498 31.3648 37.3415C31.5112 37.1309 31.8017 37.08 32.0108 37.2258C35.1993 39.4268 36.9004 37.7465 38.2669 36.3972C38.7805 35.8903 39.2244 35.4529 39.7031 35.2654C41.1486 34.7053 42.4454 36.0153 42.4988 36.0732C42.6778 36.256 42.6731 36.55 42.4872 36.7282C42.3036 36.9064 42.0108 36.9018 41.8319 36.7189C41.8156 36.7027 40.9023 35.7954 40.0401 36.131C39.7426 36.2468 39.3429 36.6402 38.9223 37.0568C38.0275 37.9409 36.7331 39.2185 34.8553 39.2185L34.853 39.2139Z" fill="#333333"/>
<path d="M28.6388 39.2141C26.7587 39.2141 25.4665 37.9365 24.5718 37.0524C24.1512 36.6358 23.7515 36.2423 23.454 36.1266C22.5872 35.7887 21.6715 36.7052 21.6622 36.7145C21.4833 36.8973 21.1881 36.8996 21.0045 36.7237C20.821 36.5455 20.8163 36.2539 20.9929 36.0711C21.0464 36.0155 22.3431 34.7032 23.7886 35.2633C24.2674 35.4485 24.7113 35.8859 25.2249 36.3951C26.5913 37.7444 28.2925 39.4247 31.481 37.226C31.6924 37.0801 31.9806 37.1334 32.127 37.3417C32.2734 37.5523 32.22 37.8393 32.0108 37.9851C30.7164 38.8785 29.6009 39.2141 28.6388 39.2141Z" fill="#333333"/>
</g>
<defs>
<filter id="filter0_d_1179_2331" x="0" y="0.160156" width="63.9961" height="64" filterUnits="userSpaceOnUse" color-interpolation-filters="sRGB">
<feFlood flood-opacity="0" result="BackgroundImageFix"/>
<feColorMatrix in="SourceAlpha" type="matrix" values="0 0 0 0 0 0 0 0 0 0 0 0 0 0 0 0 0 0 127 0" result="hardAlpha"/>
<feOffset dx="1" dy="2"/>
<feGaussianBlur stdDeviation="2"/>
<feComposite in2="hardAlpha" operator="out"/>
<feColorMatrix type="matrix" values="0 0 0 0 0 0 0 0 0 0 0 0 0 0 0 0 0 0 0.25 0"/>
<feBlend mode="normal" in2="BackgroundImageFix" result="effect1_dropShadow_1179_2331"/>
<feBlend mode="normal" in="SourceGraphic" in2="effect1_dropShadow_1179_2331" result="shape"/>
</filter>
</defs>
</svg>
