<svg width="41" height="41" viewBox="0 0 41 41" fill="none" xmlns="http://www.w3.org/2000/svg">
<path d="M38.376 22.7805C36.7299 19.8327 34.4846 19.1531 32.4229 13.5536C32.2117 12.982 31.973 12.4516 31.7112 11.9534C32.7168 11.0535 33.5066 9.72421 33.8601 8.14928C34.604 4.82953 33.091 1.8289 30.5266 1.25495C27.9782 0.683291 25.3495 2.72197 24.585 6.00499C21.6372 4.99024 18.7054 5.04304 15.792 6.12437C15.7875 6.10601 15.7852 6.08764 15.7806 6.06927C15.039 2.74952 12.3919 0.680995 9.82522 1.25495C7.2585 1.8289 5.74786 4.82953 6.4917 8.14928C6.87281 9.85278 7.76588 11.267 8.89083 12.1647C8.67273 12.5986 8.47069 13.0623 8.28932 13.5513C6.22768 19.1508 3.98237 19.8304 2.33627 22.7782C0.384831 26.2747 -0.0169364 35.3157 7.87837 39.0992C9.05153 39.6616 10.3372 39.9555 11.6389 39.9899C13.2437 40.0336 15.7071 39.9303 18.0902 39.1451C18.4093 39.0395 18.7192 38.9499 19.0177 38.8742C19.897 38.6492 20.8199 38.6492 21.6992 38.8742C21.9976 38.9499 22.3053 39.0395 22.6267 39.1451C25.0097 39.928 27.4732 40.0336 29.0779 39.9899C30.3797 39.9532 31.663 39.6616 32.8385 39.0992C40.7338 35.3157 40.332 26.2747 38.3806 22.7782L38.376 22.7805Z" fill="#FFBF69"/>
<path d="M12.2633 40.5756C12.0384 40.5756 11.8248 40.5732 11.6228 40.5664C10.204 40.5273 8.86094 40.2082 7.63038 39.6182C4.46216 38.1007 2.24211 35.5776 1.20899 32.3267C-0.000905216 28.5133 0.685543 24.5599 1.83575 22.4983C2.4671 21.3688 3.16732 20.5721 3.91116 19.7273C5.17386 18.2924 6.48018 16.807 7.75206 13.3541C7.88292 13.0005 8.02756 12.6515 8.18368 12.3118C7.08628 11.3016 6.29422 9.88509 5.93148 8.27343C5.12565 4.67818 6.78093 1.34925 9.70121 0.694942C12.4654 0.0750714 15.2249 2.10916 16.1961 5.3784C18.8523 4.51977 21.5384 4.48533 24.1924 5.27509C25.1888 2.07243 27.93 0.0865505 30.6528 0.694942C33.5708 1.34925 35.2284 4.67818 34.4226 8.27572C34.092 9.74964 33.3871 11.0812 32.4183 12.0753C32.6203 12.4908 32.804 12.9202 32.9647 13.3564C34.2366 16.8116 35.5429 18.2947 36.8056 19.7295C37.5472 20.5744 38.2497 21.3711 38.881 22.5006C40.0312 24.5599 40.7177 28.5156 39.5078 32.329C38.477 35.5799 36.2546 38.103 33.0864 39.6205C31.8558 40.2105 30.5128 40.5296 29.094 40.5687C27.4134 40.6146 24.8949 40.4998 22.4476 39.6963C22.1514 39.5975 21.8507 39.5103 21.5591 39.4368C20.7739 39.2371 19.9451 39.2371 19.1623 39.4368C18.8684 39.5126 18.5699 39.5998 18.2738 39.6963C16.1203 40.4034 13.9117 40.5778 12.2679 40.5778L12.2633 40.5756ZM10.6953 1.73265C10.4474 1.73265 10.1994 1.7602 9.95145 1.8153C7.66023 2.32727 6.38605 5.05699 7.05184 8.02548C7.39392 9.54761 8.1722 10.8608 9.24893 11.7172C9.46015 11.887 9.52673 12.1809 9.40275 12.4243C9.18924 12.849 8.9964 13.2967 8.8265 13.7512C7.48116 17.4062 6.04168 19.0431 4.7698 20.4872C4.06958 21.2838 3.40608 22.0368 2.83672 23.0585C1.76917 24.9686 1.24343 28.6465 2.3018 31.98C3.23619 34.921 5.24962 37.2053 8.12399 38.5851C9.20761 39.1039 10.3945 39.3863 11.6504 39.4208C13.2391 39.4644 15.6175 39.3588 17.9065 38.6057C18.2279 38.5001 18.5516 38.406 18.8707 38.3234C19.8418 38.0754 20.8658 38.0754 21.8369 38.3234C22.156 38.4037 22.4797 38.5001 22.8011 38.6057C25.0901 39.3588 27.4685 39.4644 29.0572 39.4208C30.313 39.3863 31.5 39.1062 32.5836 38.5851C35.458 37.2076 37.4714 34.9232 38.4058 31.9823C39.4642 28.6488 38.9384 24.9709 37.8709 23.0608C37.2992 22.0391 36.638 21.2861 35.9378 20.4895C34.6682 19.0454 33.2287 17.4085 31.8811 13.7535C31.6882 13.2278 31.4587 12.7112 31.2015 12.2245C31.0798 11.9926 31.1304 11.7057 31.3255 11.5289C32.2829 10.6726 32.9831 9.42822 33.2976 8.02778C33.9634 5.05929 32.6892 2.33186 30.398 1.8176C28.1343 1.31022 25.8224 3.20656 25.1429 6.13602C25.1061 6.29444 25.0028 6.42989 24.8628 6.50795C24.7204 6.586 24.5528 6.60207 24.399 6.54927C21.6119 5.58962 18.7835 5.62865 15.9917 6.66406C15.8356 6.72146 15.6611 6.70998 15.5165 6.62962C15.3696 6.54927 15.2663 6.40923 15.2318 6.24622L15.2249 6.21179C14.6303 3.55323 12.7248 1.73495 10.6953 1.73495V1.73265Z" fill="#444444"/>
<path d="M24.2406 20.9071C24.2406 23.7217 22.5073 26.0015 20.3584 26.0015C18.2095 26.0015 16.4762 23.7194 16.4762 20.9071C16.4762 18.0947 18.2141 16.793 20.3584 16.793C22.5027 16.793 24.2406 18.0947 24.2406 20.9071Z" fill="#E98C00"/>
</svg>
