<svg width="63" height="63" viewBox="0 0 63 63" fill="none" xmlns="http://www.w3.org/2000/svg">
<g filter="url(#filter0_d_1776_8691)">
<path d="M37.4889 7.40211C36.4333 12.0976 38.5322 16.5632 42.1731 17.3754C45.8169 18.1876 49.624 15.0399 50.6827 10.3444C51.7383 5.64897 49.5901 1.40712 45.9462 0.594917C42.3023 -0.217287 38.5446 2.70971 37.4889 7.40517V7.40211Z" fill="#D3A56A"/>
<path d="M39.0803 9.07852C38.2524 12.7626 39.6189 16.2045 42.1333 16.7653C44.6477 17.3262 47.359 14.7946 48.1869 11.1106C49.0148 7.42653 47.6083 4.15932 45.0939 3.59844C42.5795 3.03756 39.9081 5.39449 39.0803 9.08159V9.07852Z" fill="#603A2D"/>
<path d="M25.0063 7.40211C26.0619 12.0976 23.963 16.5632 20.3222 17.3754C16.6783 18.1876 12.8713 15.0399 11.8126 10.3444C10.757 5.64897 12.9052 1.40712 16.549 0.594917C20.1929 -0.217287 23.9507 2.70971 25.0063 7.40517V7.40211Z" fill="#D3A56A"/>
<path d="M23.4241 9.07852C24.252 12.7626 22.8855 16.2045 20.3711 16.7653C17.8567 17.3262 15.1453 14.7946 14.3175 11.1106C13.4896 7.42653 14.896 4.15932 17.4105 3.59844C19.9249 3.03756 22.5962 5.39449 23.4241 9.08159V9.07852Z" fill="#603A2D"/>
<path d="M56.7611 31.0817C54.4252 26.9134 51.4645 25.954 48.5377 18.0343C44.3276 6.64505 32.7527 6.71861 31.8663 6.6665H31.6786C31.6786 6.6665 31.4139 6.6665 31.3985 6.6665C31.3831 6.6665 31.3739 6.6665 31.3739 6.6665H30.8661C30.0228 6.68183 18.4725 6.64505 14.2624 18.0343C11.3356 25.951 8.60265 27.1402 6.26674 31.3085C3.49381 36.2522 2.46897 48.1287 13.6776 53.4801C15.3457 54.277 17.1676 54.4639 19.0173 54.513C21.2947 54.5743 24.794 54.654 28.1793 53.5475C28.6317 53.4004 29.0718 53.2717 29.4935 53.1644C30.743 52.8457 32.054 52.8457 33.3005 53.1644C33.7252 53.2717 34.1622 53.4004 34.6146 53.5475C38 54.657 41.4962 54.5773 43.7767 54.513C45.6263 54.4639 47.4483 54.277 49.1163 53.4801C60.3281 48.1287 59.5279 36.0254 56.758 31.0786L56.7611 31.0817Z" fill="#D3A56A"/>
<path d="M36.6766 26.9499C36.6766 30.1681 34.6854 32.7794 32.2141 32.7794C29.7428 32.7794 27.7516 30.1681 27.7516 26.9499C27.7516 23.7317 29.7489 22.2422 32.2141 22.2422C34.6793 22.2422 36.6766 23.7317 36.6766 26.9499Z" fill="#603A2D"/>
<path d="M40.1748 23.8855C40.9089 23.8132 41.4232 22.9407 41.3234 21.9368C41.2237 20.9328 40.5478 20.1776 39.8137 20.2499C39.0796 20.3222 38.5653 21.1947 38.6651 22.1987C38.7648 23.2026 39.4407 23.9579 40.1748 23.8855Z" fill="#603A2D"/>
<path d="M40.074 24.3882C39.1169 24.3882 38.2951 23.484 38.172 22.2519C38.1136 21.6635 38.2305 21.0873 38.5013 20.6306C38.7968 20.131 39.2584 19.8153 39.7662 19.7663C40.7911 19.6651 41.6897 20.5999 41.8159 21.8933C41.8744 22.4818 41.7575 23.058 41.4866 23.5147C41.1912 24.0143 40.7295 24.3299 40.2217 24.379C40.1725 24.3851 40.1202 24.3851 40.0709 24.3851L40.074 24.3882ZM39.9109 20.7409C39.8955 20.7409 39.8801 20.7409 39.8616 20.7409C39.6001 20.7654 39.4308 20.9922 39.3508 21.124C39.1877 21.3999 39.1169 21.7738 39.1538 22.1508C39.2246 22.8588 39.6801 23.4381 40.1232 23.3951C40.3848 23.3706 40.5541 23.1438 40.6341 23.009C40.7972 22.7331 40.868 22.3592 40.8311 21.9822C40.7634 21.2987 40.3387 20.7348 39.9078 20.7348L39.9109 20.7409Z" fill="#603A2D"/>
<path d="M25.7668 22.2127C25.8665 21.2087 25.3523 20.3362 24.6182 20.2639C23.8841 20.1916 23.2081 20.9468 23.1084 21.9507C23.0087 22.9547 23.5229 23.8272 24.257 23.8995C24.9911 23.9718 25.6671 23.2166 25.7668 22.2127Z" fill="#603A2D"/>
<path d="M24.3566 24.3968C24.3073 24.3968 24.2581 24.3968 24.2058 24.3907C23.698 24.3417 23.2363 24.026 22.9409 23.5264C22.6701 23.0697 22.5562 22.4935 22.6147 21.9051C22.7439 20.6117 23.6487 19.6769 24.6643 19.778C25.6861 19.8791 26.3847 20.9702 26.2585 22.2636C26.1354 23.4927 25.3168 24.3999 24.3566 24.3999V24.3968ZM24.5197 20.7526C24.0888 20.7526 23.6641 21.3196 23.5964 22.0001C23.5595 22.377 23.6303 22.751 23.7934 23.0268C23.8703 23.1586 24.0427 23.3854 24.3043 23.4099C24.7536 23.4498 25.206 22.8736 25.2737 22.1656C25.3445 21.4576 25.0152 20.7986 24.5659 20.7557C24.5505 20.7557 24.5351 20.7557 24.5166 20.7557L24.5197 20.7526Z" fill="#603A2D"/>
<path d="M25.0063 22.0708C25.3191 22.0708 25.5726 21.7758 25.5726 21.4119C25.5726 21.048 25.3191 20.7529 25.0063 20.7529C24.6936 20.7529 24.44 21.048 24.44 21.4119C24.44 21.7758 24.6936 22.0708 25.0063 22.0708Z" fill="white"/>
<path d="M40.3359 22.0616C40.6487 22.0616 40.9022 21.7665 40.9022 21.4026C40.9022 21.0387 40.6487 20.7437 40.3359 20.7437C40.0232 20.7437 39.7696 21.0387 39.7696 21.4026C39.7696 21.7665 40.0232 22.0616 40.3359 22.0616Z" fill="white"/>
<path d="M30.3521 35.869L30.4322 36.8467C30.4599 37.2053 30.7615 37.4781 31.1215 37.4781H33.4328C33.7929 37.4781 34.0914 37.2023 34.1222 36.8467L34.1992 35.8813C33.599 35.8261 32.9373 35.6882 32.2079 35.4399C31.5339 35.6698 30.9153 35.8047 30.3521 35.866V35.869Z" fill="white"/>
<path d="M29.1642 36.3931C27.3176 36.3931 26.0465 35.1395 25.1694 34.2691C24.757 33.8614 24.3754 33.6745 24.083 33.5611C23.2305 33.2301 22.3195 33.9319 22.3103 33.9411C22.1349 34.1189 21.8456 34.125 21.664 33.9503C21.4824 33.7756 21.4794 33.4875 21.6548 33.3098C21.7071 33.2546 22.9935 32.1665 24.4123 32.7152C24.8832 32.896 25.3048 33.1289 25.8096 33.6254C27.1514 34.9526 28.8225 36.6015 31.9525 34.4407C32.1587 34.2967 32.4449 34.3488 32.5865 34.5541C32.7311 34.7595 32.6788 35.0445 32.4726 35.1855C31.2015 36.0621 30.1059 36.39 29.1611 36.39L29.1642 36.3931Z" fill="#603A2D"/>
<path d="M35.3378 36.3931C37.1844 36.3931 38.4555 35.1395 39.3326 34.2691C39.745 33.8614 40.1266 33.6745 40.419 33.5611C41.2715 33.2301 42.1824 33.9319 42.1917 33.9411C42.3671 34.1189 42.6564 34.125 42.838 33.9503C43.0196 33.7756 43.0226 33.4875 42.8472 33.3098C42.7949 33.2546 41.5084 32.1665 40.0897 32.7152C39.6188 32.896 39.1972 33.1289 38.6924 33.6254C37.3506 34.9526 35.6794 36.6015 32.5495 34.4407C32.3433 34.2967 32.0571 34.3488 31.9155 34.5541C31.7709 34.7595 31.8232 35.0445 32.0294 35.1855C33.3005 36.0621 34.3961 36.39 35.3409 36.39L35.3378 36.3931Z" fill="#603A2D"/>
</g>
<defs>
<filter id="filter0_d_1776_8691" x="0.437592" y="0.459961" width="62.0779" height="62.0854" filterUnits="userSpaceOnUse" color-interpolation-filters="sRGB">
<feFlood flood-opacity="0" result="BackgroundImageFix"/>
<feColorMatrix in="SourceAlpha" type="matrix" values="0 0 0 0 0 0 0 0 0 0 0 0 0 0 0 0 0 0 127 0" result="hardAlpha"/>
<feOffset dy="4"/>
<feGaussianBlur stdDeviation="2"/>
<feComposite in2="hardAlpha" operator="out"/>
<feColorMatrix type="matrix" values="0 0 0 0 0 0 0 0 0 0 0 0 0 0 0 0 0 0 0.25 0"/>
<feBlend mode="normal" in2="BackgroundImageFix" result="effect1_dropShadow_1776_8691"/>
<feBlend mode="normal" in="SourceGraphic" in2="effect1_dropShadow_1776_8691" result="shape"/>
</filter>
</defs>
</svg>
