<svg width="41" height="41" viewBox="0 0 41 41" fill="none" xmlns="http://www.w3.org/2000/svg">
<path d="M38.5205 22.3596C36.8744 19.4118 34.6291 18.7322 32.5675 13.1327C32.3562 12.5611 32.1175 12.0307 31.8558 11.5325C32.8613 10.6326 33.6511 9.30331 34.0046 7.72838C34.7485 4.40863 33.2355 1.408 30.6711 0.83405C28.1228 0.262392 25.4941 2.30108 24.7296 5.58409C21.7817 4.56934 18.85 4.62215 15.9366 5.70347C15.932 5.68511 15.9297 5.66674 15.9251 5.64838C15.1836 2.33092 12.5365 0.262392 9.96976 0.836346C7.40303 1.4103 5.89239 4.41093 6.63623 7.73068C7.01734 9.43418 7.91041 10.8484 9.03536 11.7461C8.81726 12.18 8.61522 12.6437 8.43386 13.1327C6.37221 18.7322 4.12691 19.4118 2.48081 22.3596C0.529362 25.8561 0.127595 34.8971 8.0229 38.6806C9.19607 39.243 10.4817 39.5369 11.7835 39.5713C13.3882 39.615 15.8516 39.5117 18.2347 38.7265C18.5538 38.6209 18.8637 38.5313 19.1622 38.4556C20.0415 38.2306 20.9644 38.2306 21.8437 38.4556C22.1422 38.5313 22.4498 38.6209 22.7712 38.7265C25.1543 39.5094 27.6177 39.615 29.2225 39.5713C30.5242 39.5346 31.8076 39.243 32.983 38.6806C40.8783 34.8971 40.4765 25.8561 38.5251 22.3596H38.5205Z" fill="#E1DDD9"/>
<path d="M12.4079 40.1573C12.1829 40.1573 11.9694 40.155 11.7673 40.1481C10.3485 40.1091 9.00547 39.79 7.77492 39.1999C4.60669 37.6801 2.38664 35.1593 1.35352 31.9084C0.143626 28.0951 0.830075 24.1417 1.98028 22.08C2.61163 20.9505 3.31185 20.1539 4.0557 19.309C5.31839 17.8741 6.62471 16.3887 7.89659 12.9358C8.02746 12.5823 8.17209 12.2333 8.32821 11.8935C7.23081 10.8834 6.43875 9.46684 6.07601 7.85517C5.69032 6.13101 5.85791 4.40686 6.54665 2.99952C7.25147 1.56234 8.42234 0.595804 9.84574 0.276686C11.2669 -0.0424327 12.7408 0.334081 13.992 1.33506C15.0802 2.20517 15.8998 3.47705 16.3406 4.95785C18.9969 4.09922 21.683 4.06478 24.3369 4.85454C25.3333 1.65188 28.0745 -0.334001 30.7974 0.276686C32.2185 0.595804 33.3916 1.56234 34.0964 3.00182C34.7852 4.40915 34.9528 6.13331 34.5671 7.85747C34.2365 9.33138 33.5317 10.663 32.5628 11.6547C32.7649 12.0703 32.9485 12.4996 33.1092 12.9358C34.3811 16.391 35.6874 17.8741 36.9501 19.309C37.6917 20.1539 38.3942 20.9505 39.0256 22.08C40.1758 24.1394 40.8622 28.0951 39.6523 31.9084C38.6192 35.1593 36.3991 37.6824 33.2309 39.1999C32.0004 39.79 30.6573 40.1091 29.2385 40.1481C27.558 40.194 25.0394 40.0792 22.5921 39.2757C22.2937 39.177 21.9952 39.0897 21.7036 39.0163C20.9185 38.8165 20.0897 38.8165 19.3045 39.0163C19.0106 39.092 18.7122 39.1793 18.416 39.2757C16.2625 39.9828 14.054 40.1573 12.4102 40.1573H12.4079ZM10.8329 1.31439C10.585 1.31439 10.3393 1.34194 10.096 1.39475C9.02154 1.63581 8.12618 2.38424 7.57748 3.5046C7.00352 4.67776 6.86577 6.13561 7.19637 7.60493C7.53845 9.12705 8.31673 10.4403 9.39347 11.2966C9.60468 11.4665 9.67126 11.7604 9.54958 12.0037C9.33607 12.4284 9.14322 12.8761 8.97333 13.3307C7.62798 16.9856 6.18851 18.6225 4.91663 20.0666C4.2164 20.8633 3.55291 21.6163 2.98355 22.6379C1.916 24.548 1.39025 28.2259 2.44862 31.5595C3.38302 34.5004 5.39645 36.7847 8.27081 38.1645C9.35444 38.6834 10.5414 38.9658 11.7972 39.0002C13.3882 39.0438 15.7644 38.9382 18.0533 38.1852C18.3747 38.0796 18.6984 37.9854 19.0175 37.9028C19.9887 37.6549 21.0126 37.6549 21.9837 37.9028C22.3005 37.9832 22.6265 38.0796 22.948 38.1852C25.2369 38.9382 27.6131 39.0438 29.2041 39.0002C30.4599 38.9658 31.6468 38.6857 32.7304 38.1645C35.6048 36.787 37.6182 34.5027 38.5526 31.5595C39.611 28.2259 39.0852 24.548 38.0177 22.6379C37.446 21.6163 36.7848 20.8633 36.0846 20.0666C34.815 18.6225 33.3756 16.9856 32.0279 13.3307C31.8351 12.8049 31.6055 12.2907 31.3483 11.7994C31.2267 11.5675 31.2772 11.2805 31.4723 11.1038C32.4297 10.2474 33.1299 9.00308 33.4444 7.60263C33.7727 6.13331 33.6373 4.67776 33.0633 3.50231C32.5146 2.38195 31.6193 1.63351 30.5448 1.39245C28.2788 0.885077 25.9693 2.78142 25.2897 5.71088C25.253 5.86929 25.1496 6.00474 25.0073 6.0828C24.865 6.16086 24.6974 6.17693 24.5436 6.12413C21.7564 5.16448 18.928 5.20351 16.1363 6.23892C15.9802 6.29631 15.8057 6.28483 15.661 6.20448C15.5141 6.12413 15.4108 5.98408 15.3764 5.82337L15.3695 5.78664C15.0366 4.30354 14.295 3.04544 13.2734 2.22813C12.5204 1.62662 11.6755 1.3121 10.8329 1.3121V1.31439Z" fill="#7C7C7C"/>
</svg>
