<svg width="25" height="25" viewBox="0 0 25 25" fill="none" xmlns="http://www.w3.org/2000/svg">
<path d="M2.604 0.520813H22.3957V20.3646C22.3957 22.6562 20.5207 24.4791 18.2811 24.4791H6.71859C4.479 24.4791 2.604 22.6041 2.604 20.3646V0.520813Z" stroke="#B4B5BE" stroke-miterlimit="10"/>
<path d="M10.9375 5.72915H7.34375C6.04167 5.72915 4.89583 4.9479 4.42708 3.74998L3.125 0.520813" stroke="#B4B5BE" stroke-miterlimit="10"/>
<path d="M21.875 0.520813L20.5729 3.74998C20.1042 4.9479 18.9583 5.72915 17.6563 5.72915H14.0625" stroke="#B4B5BE" stroke-miterlimit="10"/>
<path d="M12.5 7.29163C13.3629 7.29163 14.0625 6.59207 14.0625 5.72913C14.0625 4.86618 13.3629 4.16663 12.5 4.16663C11.6371 4.16663 10.9375 4.86618 10.9375 5.72913C10.9375 6.59207 11.6371 7.29163 12.5 7.29163Z" stroke="#B4B5BE" stroke-miterlimit="10"/>
</svg>
