<svg width="33" height="32" viewBox="0 0 33 32" fill="none" xmlns="http://www.w3.org/2000/svg">
<g clip-path="url(#clip0_1772_5129)">
<path d="M21.4687 31.2615C20.3719 31.2615 19.1133 31.1745 17.8671 30.7853C17.6224 30.7082 17.3736 30.6391 17.1331 30.5798C16.48 30.4217 15.7895 30.4217 15.1363 30.5798C14.8937 30.6391 14.647 30.7082 14.4023 30.7853C12.6171 31.3445 10.8028 31.2793 9.47782 31.2319C9.29743 31.2259 9.12533 31.218 8.9636 31.2141C7.8066 31.1844 6.7118 30.9355 5.70824 30.4771C3.17444 29.3192 1.41406 27.4401 0.613698 25.0413C-0.344249 22.1644 0.265354 19.0682 1.23782 17.4084C1.73545 16.5607 2.24967 15.9561 2.79707 15.3179C3.76539 14.1837 4.76688 13.012 5.83472 10.2457C5.95291 9.93948 6.08561 9.63716 6.23075 9.34275C5.33916 8.55832 4.6943 7.45972 4.39987 6.21292C4.08678 4.8772 4.22155 3.53952 4.78139 2.44882C5.35782 1.33836 6.3054 0.591463 7.45618 0.346451C8.60696 0.101438 9.79921 0.391896 10.8131 1.16448C11.7379 1.86987 12.4263 2.91513 12.7705 4.13229C13.7596 3.86554 14.817 3.7134 15.7916 3.69956H16.4198H16.4323C16.4509 3.69956 16.48 3.70154 16.5194 3.70352C16.8988 3.71735 17.9791 3.75489 19.3351 4.10265C19.6835 2.89932 20.3677 1.86592 21.2842 1.16645C22.2981 0.393872 23.4904 0.103414 24.6412 0.348426C25.792 0.593439 26.7395 1.34033 27.3118 2.45277C27.8717 3.54347 28.0085 4.87918 27.6933 6.21687C27.4155 7.40044 26.8121 8.4615 25.9848 9.23803C26.1569 9.57196 26.3062 9.90589 26.4389 10.2517C27.5067 13.0179 28.5082 14.1897 29.4765 15.3238C30.0218 15.964 30.5381 16.5667 31.0358 17.4143C32.0082 19.0741 32.6178 22.1703 31.6599 25.0453C30.8616 27.446 29.0991 29.3251 26.5654 30.483C25.5618 30.9414 24.467 31.1884 23.31 31.22C23.1483 31.2239 22.9762 31.2299 22.7958 31.2378C22.3956 31.2516 21.9498 31.2694 21.4729 31.2694L21.4687 31.2615ZM16.1358 29.6709C16.5401 29.6709 16.9465 29.7183 17.3384 29.8151C17.5976 29.8784 17.863 29.9515 18.1263 30.0344C19.7706 30.5502 21.4978 30.4869 22.7584 30.4415C22.943 30.4356 23.1172 30.4277 23.281 30.4237C24.3198 30.396 25.3026 30.1747 26.2004 29.7657C28.5559 28.6908 30.1234 27.0212 30.8616 24.8022C31.7449 22.1506 31.1913 19.3112 30.3038 17.7937C29.8415 17.0053 29.348 16.4284 28.8254 15.8158C27.8613 14.6876 26.7686 13.4072 25.653 10.5184C25.4954 10.1114 25.3151 9.72213 25.0994 9.32892L24.948 9.0523L25.1948 8.8468C26.0138 8.16709 26.613 7.17123 26.8785 6.03904C27.1522 4.8772 27.0381 3.72525 26.5612 2.79658C26.103 1.90544 25.3544 1.30872 24.4546 1.11705C23.5547 0.925391 22.6112 1.16052 21.7984 1.78096C20.9504 2.42708 20.3325 3.42294 20.0588 4.58477L19.9468 5.09851L19.5114 4.97007C18.0662 4.54525 16.876 4.50376 16.4841 4.48993C16.4447 4.48993 16.4136 4.48795 16.3908 4.48598H15.7999C14.7631 4.50178 13.6248 4.68554 12.5922 5.00564L12.1505 5.14395L12.0489 4.66381C12.0427 4.63812 12.0386 4.61046 12.0323 4.58477C11.7586 3.42294 11.1428 2.42708 10.2927 1.78096C9.47989 1.16052 8.53646 0.925391 7.63657 1.11705C6.73668 1.30872 5.98815 1.90544 5.52992 2.79658C5.05094 3.72723 4.93897 4.87918 5.21267 6.03904C5.49259 7.22853 6.12915 8.25601 7.00831 8.93572L7.26749 9.13726L7.11613 9.42179C6.92951 9.7735 6.76156 10.141 6.61435 10.5184C5.49881 13.4072 4.40609 14.6876 3.44192 15.8158C2.91941 16.4284 2.42592 17.0053 1.96353 17.7937C1.07608 19.3092 0.522465 22.1486 1.40577 24.8022C2.14393 27.0192 3.71355 28.6889 6.06695 29.7657C6.96476 30.1767 7.94759 30.398 8.9864 30.4237C9.15021 30.4277 9.32438 30.4336 9.50892 30.4415C10.7696 30.4869 12.4968 30.5502 14.1411 30.0344C14.4044 29.9515 14.6698 29.8784 14.929 29.8151C15.323 29.7183 15.7273 29.6709 16.1337 29.6709H16.1358Z" fill="#CC8E3E"/>
<path d="M16.4038 19.63C14.7533 19.63 13.4097 18.0058 13.4097 16.0102C13.4097 14.1884 14.5853 13.0107 16.4038 13.0107C18.2222 13.0107 19.3979 14.1884 19.3979 16.0102C19.3979 18.0058 18.0543 19.63 16.4038 19.63ZM16.4038 13.8011C15.7527 13.8011 14.2391 14.0165 14.2391 16.0102C14.2391 17.5435 15.2302 18.8397 16.4038 18.8397C17.5774 18.8397 18.5685 17.5692 18.5685 16.0102C18.5685 14.0165 17.0548 13.8011 16.4038 13.8011Z" fill="#CC8E3E"/>
</g>
<defs>
<clipPath id="clip0_1772_5129">
<rect width="32" height="31" fill="white" transform="translate(0.135254 0.261719)"/>
</clipPath>
</defs>
</svg>
