<svg width="33" height="32" viewBox="0 0 33 32" fill="none" xmlns="http://www.w3.org/2000/svg">
<g clip-path="url(#clip0_1772_5133)">
<path d="M23.0285 11.0082C22.7777 11.0082 22.5247 10.9825 22.2738 10.9292C19.9474 10.4332 18.5913 7.746 19.2507 4.94021C19.5638 3.6045 20.2853 2.45057 21.2806 1.69182C22.2945 0.91924 23.4868 0.628782 24.6376 0.873794C25.7883 1.11881 26.7359 1.8657 27.3082 2.97814C27.868 4.06884 28.0049 5.40455 27.6897 6.74224C27.1009 9.24571 25.1062 11.0102 23.0306 11.0102L23.0285 11.0082ZM23.8372 1.57722C23.1322 1.57722 22.4272 1.82618 21.799 2.30633C20.9509 2.95245 20.333 3.94831 20.0593 5.11014C19.4995 7.49111 20.5735 9.75549 22.4542 10.1566C24.3328 10.5557 26.3192 8.94735 26.879 6.56638C27.1527 5.40455 27.0387 4.25259 26.5618 3.32392C26.1035 2.43278 25.355 1.83606 24.4551 1.6444C24.2498 1.60093 24.0445 1.57919 23.8372 1.57919V1.57722Z" fill="#CC8E3E"/>
<path d="M9.06366 11.0082C6.98811 11.0082 4.99135 9.24376 4.40456 6.74028C4.09146 5.40457 4.22624 4.06688 4.78608 2.97618C5.35836 1.86375 6.30594 1.11685 7.45672 0.871841C8.6075 0.626829 9.79975 0.917287 10.8137 1.68987C11.8089 2.44861 12.5305 3.60254 12.8436 4.93826C13.503 7.74405 12.1469 10.4313 9.82048 10.9272C9.56959 10.9806 9.31663 11.0063 9.06574 11.0063L9.06366 11.0082ZM8.25501 1.57724C8.04766 1.57724 7.84238 1.59897 7.63711 1.64244C6.73722 1.83411 5.98869 2.43083 5.53045 3.32197C5.05148 4.25262 4.93951 5.40457 5.21321 6.56443C5.77305 8.9454 7.75737 10.5558 9.63802 10.1547C11.5187 9.75354 12.5927 7.48915 12.0329 5.10819C11.7592 3.94635 11.1434 2.9505 10.2932 2.30437C9.66497 1.8262 8.95791 1.57526 8.25501 1.57526V1.57724Z" fill="#CC8E3E"/>
<path d="M10.8012 31.7876C10.3243 31.7876 9.87852 31.7717 9.47834 31.7559C9.29795 31.75 9.12585 31.7421 8.96412 31.7382C7.80712 31.7085 6.71232 31.4596 5.70875 31.0011C3.17496 29.8433 1.41458 27.9642 0.614217 25.5654C-0.34373 22.6885 0.265873 19.5923 1.23833 17.9325C1.73597 17.0848 2.25019 16.4802 2.79759 15.842C3.7659 14.7078 4.7674 13.5361 5.83524 10.7698C8.20522 4.63267 14.5418 4.23749 15.7879 4.22168H16.1238H16.1425C16.1301 4.22168 16.2939 4.22168 16.2939 4.22168H16.4266C16.4452 4.22168 16.4743 4.22366 16.5137 4.22563C18.7654 4.30467 24.2394 5.09898 26.429 10.7698C27.4969 13.5361 28.4984 14.7078 29.4667 15.842C30.012 16.4822 30.5283 17.0848 31.0259 17.9325C31.9984 19.5923 32.608 22.6885 31.6501 25.5654C30.8518 27.9642 29.0893 29.8452 26.5555 31.0011C25.5519 31.4596 24.4571 31.7065 23.3001 31.7382C23.1384 31.7421 22.9663 31.748 22.7859 31.7559C21.463 31.8034 19.6488 31.8705 17.8614 31.3114C17.6167 31.2343 17.3679 31.1651 17.1274 31.1059C16.4743 30.9478 15.7838 30.9478 15.1306 31.1059C14.8901 31.1651 14.6434 31.2343 14.3966 31.3114C13.1505 31.7006 11.8919 31.7876 10.795 31.7876H10.8012ZM16.1363 30.1969C16.5406 30.1969 16.947 30.2444 17.341 30.3412C17.6002 30.4044 17.8656 30.4775 18.1289 30.5605C19.7732 31.0762 21.5004 31.013 22.761 30.9676C22.9456 30.9616 23.1198 30.9537 23.2836 30.9498C24.3224 30.9221 25.3052 30.7008 26.203 30.2918C28.5585 29.2169 30.126 27.5473 30.8642 25.3283C31.7475 22.6766 31.1939 19.8373 30.3064 18.3198C29.844 17.5314 29.3506 16.9544 28.828 16.3419C27.8639 15.2136 26.7712 13.9333 25.6556 11.0445C23.6381 5.82216 18.5726 5.0891 16.4867 5.01599C16.4473 5.01599 16.4162 5.01402 16.3934 5.01204H15.8024C14.1851 5.03378 8.74433 5.53368 6.61694 11.0445C5.50141 13.9333 4.40868 15.2136 3.44452 16.3419C2.922 16.9544 2.42851 17.5314 1.96613 18.3198C1.07868 19.8353 0.525057 22.6747 1.40836 25.3283C2.14652 27.5453 3.71614 29.2149 6.06954 30.2918C6.96736 30.7028 7.95018 30.9241 8.989 30.9498C9.1528 30.9537 9.32697 30.9597 9.51151 30.9676C10.7722 31.013 12.4994 31.0762 14.1437 30.5605C14.407 30.4775 14.6724 30.4044 14.9316 30.3412C15.3255 30.2444 15.7299 30.1969 16.1363 30.1969Z" fill="#CC8E3E"/>
<path d="M16.4038 19.9572C14.7533 19.9572 13.4097 18.333 13.4097 16.3373C13.4097 14.5155 14.5853 13.3379 16.4038 13.3379C18.2222 13.3379 19.3979 14.5155 19.3979 16.3373C19.3979 18.333 18.0543 19.9572 16.4038 19.9572ZM16.4038 14.1283C15.7527 14.1283 14.2391 14.3436 14.2391 16.3373C14.2391 17.8706 15.2302 19.1668 16.4038 19.1668C17.5774 19.1668 18.5685 17.8963 18.5685 16.3373C18.5685 14.3436 17.0548 14.1283 16.4038 14.1283Z" fill="#CC8E3E"/>
<path d="M4.22002 12.6107C7.27218 11.0299 16.7729 7.11566 27.9054 12.5296C28.0775 12.6126 27.9717 12.8616 27.7893 12.8043C24.1544 11.6919 15.7299 9.95504 4.33821 12.8814C4.15989 12.9268 4.05829 12.6936 4.22002 12.6087V12.6107Z" fill="#D1A669"/>
<path d="M4.29052 13.285C4.06244 13.285 3.85301 13.1546 3.76386 12.9412C3.65603 12.6824 3.76385 12.3979 4.02097 12.2635C5.55327 11.4712 8.75265 10.0643 12.9784 9.5565C18.1497 8.93409 23.2338 9.81732 28.092 12.1785C28.3595 12.3089 28.4756 12.6073 28.3615 12.8721C28.2475 13.1349 27.9468 13.2692 27.6607 13.1803C23.7584 11.9869 15.5516 10.4101 4.44396 13.2633C4.39212 13.2771 4.34028 13.2831 4.29052 13.2831V13.285ZM16.1778 10.1532C15.1514 10.1532 14.1188 10.2165 13.0841 10.3409C10.5338 10.6472 8.36905 11.2913 6.74344 11.9197C14.4423 10.3251 20.6109 10.8132 24.735 11.6352C21.9379 10.6492 19.0765 10.1532 16.1778 10.1532Z" fill="#895924"/>
<path d="M26.9391 12.1346C26.9516 12.0813 26.9578 12.0259 26.9536 11.9686C26.6447 6.45982 21.8985 2.04959 16.0243 1.97846C10.1522 1.90535 5.28578 6.199 4.82962 11.6979C4.81717 11.86 4.86694 12.0101 4.95817 12.1326C8.62823 10.4452 17.0901 7.69871 26.9391 12.1366V12.1346Z" fill="#E8C080"/>
<path d="M27.2419 12.7074L26.7629 12.492C17.2581 8.20825 9.13624 10.6485 5.14064 12.4861L4.82548 12.6323L4.62227 12.3596C4.46884 12.1522 4.39834 11.9131 4.41907 11.6661C4.89183 5.98338 9.91172 1.58105 15.8833 1.58105C15.9331 1.58105 15.9829 1.58105 16.0326 1.58105C22.0685 1.65614 27.049 6.20863 27.3704 11.9467C27.3746 12.0316 27.3683 12.1186 27.3476 12.2134L27.2419 12.7074ZM15.8833 2.37142C10.4031 2.37142 5.78342 6.37065 5.26091 11.5594C9.44519 9.7376 17.3161 7.61152 26.5037 11.508C25.9646 6.41215 21.4548 2.4386 16.0223 2.37142C15.9766 2.37142 15.929 2.37142 15.8833 2.37142Z" fill="#895924"/>
<path d="M15.7278 6.76987C15.7216 7.15714 15.9704 7.25199 16.1902 7.25594C16.3478 7.25594 16.4494 7.24013 16.5738 7.18678C16.6422 7.15517 16.7189 7.1117 16.8102 7.09787C16.9491 7.07613 17.0922 7.12355 17.173 7.25396C17.3037 7.46538 17.1813 7.71435 16.9532 7.84476C16.7749 7.94751 16.5012 8.04037 16.1798 8.03642C15.4852 8.02852 14.7284 7.73608 14.7408 6.75406L14.7491 6.13758C14.7616 5.17926 15.5288 4.88287 16.1881 4.89078C16.5282 4.89473 16.7811 4.98562 16.9325 5.07849C17.1564 5.21285 17.2726 5.45194 17.144 5.65545C17.0507 5.80562 16.9076 5.83526 16.7542 5.8155C16.6671 5.80562 16.5966 5.76808 16.5261 5.73449C16.4307 5.693 16.3602 5.67324 16.2109 5.67126C15.9994 5.66929 15.7403 5.75623 15.734 6.14548L15.7257 6.77184L15.7278 6.76987Z" fill="#CC8E3E"/>
</g>
<defs>
<clipPath id="clip0_1772_5133">
<rect width="32" height="31" fill="white" transform="translate(0.135254 0.787109)"/>
</clipPath>
</defs>
</svg>
