<svg width="14" height="14" viewBox="0 0 14 14" fill="none" xmlns="http://www.w3.org/2000/svg">
<path d="M12.9132 7.72421C12.4091 6.83101 11.7215 6.6251 11.0901 4.92842C11.0255 4.75521 10.9523 4.59452 10.8722 4.44356C11.1801 4.17087 11.422 3.76809 11.5303 3.29088C11.7581 2.28498 11.2947 1.37578 10.5094 1.20187C9.729 1.02866 8.92398 1.64639 8.68986 2.64115C7.78712 2.33368 6.8893 2.34968 5.9971 2.67733C5.99569 2.67176 5.99499 2.6662 5.99358 2.66063C5.76579 1.65543 4.95515 1.02796 4.16911 1.20257C3.38308 1.37717 2.92046 2.28568 3.14825 3.29158C3.26496 3.80775 3.53846 4.23626 3.88296 4.50826C3.81617 4.63973 3.7543 4.78025 3.69876 4.92842C3.0674 6.6251 2.3798 6.83101 1.87569 7.72421C1.27808 8.78367 1.15505 11.5231 3.57291 12.6695C3.93218 12.84 4.3259 12.929 4.72454 12.9394C5.21599 12.9527 5.97038 12.9214 6.70017 12.6834C6.7979 12.6514 6.88492 12.6132 6.98421 12.6014C7.4003 12.5519 7.38395 12.5587 7.8054 12.6014C7.8968 12.6243 7.99101 12.6514 8.08944 12.6834C8.81923 12.9207 9.57362 12.9527 10.0651 12.9394C10.4637 12.9283 10.8567 12.84 11.2167 12.6695C13.6346 11.5231 13.5108 8.78367 12.9132 7.72421Z" stroke="#CFB6A5" stroke-width="1.3" stroke-linecap="round" stroke-linejoin="round"/>
</svg>
