<svg width="20" height="24" viewBox="0 0 23 22" fill="none" xmlns="http://www.w3.org/2000/svg">
<path d="M9.62411 19.2482C4.31678 19.2482 0 14.9314 0 9.62411C0 4.31678 4.31678 0 9.62411 0C14.9314 0 19.2482 4.31678 19.2482 9.62411C19.2482 14.9314 14.9314 19.2482 9.62411 19.2482ZM9.62411 2.69799C5.80453 2.69799 2.69799 5.80453 2.69799 9.62411C2.69799 13.4437 5.80453 16.5502 9.62411 16.5502C13.4437 16.5502 16.5502 13.4437 16.5502 9.62411C16.5502 5.80453 13.4437 2.69799 9.62411 2.69799Z" fill="#B9BCC6"/>
<path d="M21.6843 21.9035C21.3467 21.9035 21.0128 21.776 20.7577 21.521L15.6862 16.45C15.1722 15.9362 15.1722 15.1072 15.6862 14.5934C16.2001 14.0795 17.0291 14.0795 17.543 14.5934L22.6146 19.6644C23.1285 20.1782 23.1285 21.0071 22.6146 21.521C22.3595 21.776 22.0219 21.9073 21.6843 21.9073V21.9035Z" fill="#B9BCC6"/>
</svg>
