<svg width="240" height="240" viewBox="0 0 240 240" fill="none" xmlns="http://www.w3.org/2000/svg">
<path d="M44 55C44 49.4772 48.4772 45 54 45H186C191.523 45 196 49.4772 196 55V154.747C196 158.297 194.118 161.581 191.055 163.375L125.055 202.039C121.933 203.868 118.067 203.868 114.945 202.039L48.9453 163.375C45.8822 161.581 44 158.297 44 154.747V55Z" fill="#DDDFE4"/>
<g filter="url(#filter0_i_2296_1631)">
<path d="M67 71C67 68.2386 69.2386 66 72 66H168C170.761 66 173 68.2386 173 71V143.381C173 145.112 172.105 146.72 170.633 147.631L122.633 177.369C121.02 178.368 118.98 178.368 117.367 177.369L69.3668 147.631C67.8953 146.72 67 145.112 67 143.381V71Z" fill="#77787B"/>
</g>
<path d="M168 62H72C67.0294 62 63 66.0294 63 71V143.381C63 146.497 64.6115 149.391 67.2602 151.032L115.26 180.769C118.164 182.568 121.836 182.568 124.74 180.769L172.74 151.032C175.388 149.391 177 146.497 177 143.381V71C177 66.0294 172.971 62 168 62Z" stroke="#CCCBCB" stroke-width="8"/>
<path opacity="0.74" d="M168 57.5H72C64.5442 57.5 58.5 63.5442 58.5 71V143.301C58.5 147.964 60.9063 152.296 64.8647 154.761L112.865 184.646C117.233 187.366 122.767 187.366 127.135 184.646L175.135 154.761C179.094 152.296 181.5 147.964 181.5 143.301V71C181.5 63.5442 175.456 57.5 168 57.5Z" stroke="#FBFCFF"/>
<path d="M126.814 93.2094C125.528 98.417 128.085 103.37 132.519 104.27C136.958 105.171 141.595 101.68 142.884 96.4726C144.174 91.265 141.554 86.5605 137.115 85.6597C132.677 84.7589 128.1 88.0052 126.814 93.2128V93.2094Z" fill="#DDDFE4"/>
<path d="M128.753 95.0688C127.744 99.1547 129.409 102.972 132.471 103.594C135.534 104.216 138.836 101.408 139.845 97.3225C140.853 93.2366 139.14 89.613 136.077 88.991C133.015 88.3689 129.761 90.9829 128.753 95.0722V95.0688Z" fill="#6A6B6D"/>
<path d="M111.611 93.2094C112.897 98.417 110.34 103.37 105.905 104.27C101.467 105.171 96.8301 101.68 95.5406 96.4726C94.2548 91.265 96.8714 86.5605 101.31 85.6597C105.748 84.7589 110.325 88.0052 111.611 93.2128V93.2094Z" fill="#DDDFE4"/>
<path d="M109.683 95.0688C110.692 99.1547 109.027 102.972 105.965 103.594C102.902 104.216 99.5998 101.408 98.5914 97.3225C97.583 93.2366 99.2961 89.613 102.359 88.991C105.421 88.3689 108.675 90.9829 109.683 95.0722V95.0688Z" fill="#6A6B6D"/>
<path d="M150.288 119.472C147.443 114.849 143.837 113.785 140.272 105.001C135.144 92.3698 121.045 92.4513 119.965 92.3936H119.737C119.737 92.3936 119.414 92.3936 119.396 92.3936C119.377 92.3936 119.366 92.3936 119.366 92.3936H118.747C117.72 92.4106 103.652 92.3698 98.5235 105.001C94.9585 113.782 91.6298 115.1 88.7846 119.723C85.4071 125.206 84.1588 138.378 97.8112 144.313C99.843 145.197 102.062 145.405 104.315 145.459C107.089 145.527 111.351 145.615 115.475 144.388C116.026 144.225 116.562 144.082 117.075 143.963C118.597 143.61 120.194 143.61 121.712 143.963C122.23 144.082 122.762 144.225 123.313 144.388C127.436 145.619 131.695 145.53 134.473 145.459C136.726 145.405 138.945 145.197 140.976 144.313C154.633 138.378 153.658 124.955 150.284 119.468L150.288 119.472Z" fill="#DDDFE4"/>
<path d="M125.824 114.89C125.824 118.459 123.399 121.355 120.389 121.355C117.378 121.355 114.953 118.459 114.953 114.89C114.953 111.32 117.386 109.668 120.389 109.668C123.391 109.668 125.824 111.32 125.824 114.89Z" fill="#77787B"/>
<defs>
<filter id="filter0_i_2296_1631" x="59" y="58" width="122" height="128.118" filterUnits="userSpaceOnUse" color-interpolation-filters="sRGB">
<feFlood flood-opacity="0" result="BackgroundImageFix"/>
<feBlend mode="normal" in="SourceGraphic" in2="BackgroundImageFix" result="shape"/>
<feColorMatrix in="SourceAlpha" type="matrix" values="0 0 0 0 0 0 0 0 0 0 0 0 0 0 0 0 0 0 127 0" result="hardAlpha"/>
<feOffset/>
<feGaussianBlur stdDeviation="22.5"/>
<feComposite in2="hardAlpha" operator="arithmetic" k2="-1" k3="1"/>
<feColorMatrix type="matrix" values="0 0 0 0 0.23559 0 0 0 0 0.238151 0 0 0 0 0.245833 0 0 0 1 0"/>
<feBlend mode="normal" in2="shape" result="effect1_innerShadow_2296_1631"/>
</filter>
</defs>
</svg>
