<svg width="5" height="5" viewBox="0 0 180 181" fill="none" xmlns="http://www.w3.org/2000/svg">
<g clip-path="url(#clip0_1928_1919)">
<path d="M109.515 24.9932C106.085 40.3132 112.905 54.8832 124.735 57.5332C136.575 60.1832 148.945 49.9132 152.385 34.5932C155.825 19.2732 148.835 5.43322 136.995 2.78322C125.155 0.133219 112.945 9.68322 109.515 25.0032V24.9932Z" fill="#D3A56A"/>
<path d="M114.685 30.4633C111.995 42.4833 116.435 53.7133 124.605 55.5433C132.775 57.3733 141.585 49.1133 144.275 37.0933C146.965 25.0733 142.395 14.4133 134.225 12.5833C126.055 10.7533 117.375 18.4433 114.685 30.4733V30.4633Z" fill="#603A2D"/>
<path d="M68.955 24.9932C72.385 40.3132 65.565 54.8832 53.735 57.5332C41.895 60.1832 29.525 49.9132 26.085 34.5932C22.655 19.2732 29.635 5.43322 41.475 2.78322C53.315 0.133219 65.525 9.68322 68.955 25.0032V24.9932Z" fill="#D3A56A"/>
<path d="M63.815 30.4633C66.505 42.4833 62.065 53.7133 53.895 55.5433C45.725 57.3733 36.915 49.1133 34.225 37.0933C31.535 25.0733 36.105 14.4133 44.275 12.5833C52.445 10.7533 61.125 18.4433 63.815 30.4733V30.4633Z" fill="#603A2D"/>
<path d="M172.135 102.253C164.545 88.6533 154.925 85.5233 145.415 59.6833C131.735 22.5233 94.125 22.7633 91.245 22.5933H90.635C90.635 22.5933 89.775 22.5933 89.725 22.5933C89.675 22.5933 89.645 22.5933 89.645 22.5933H87.995C85.255 22.6433 47.725 22.5233 34.045 59.6833C24.535 85.5133 15.655 89.3933 8.065 102.993C-0.945003 119.123 -4.275 157.873 32.145 175.333C37.565 177.933 43.485 178.543 49.495 178.703C56.895 178.903 68.265 179.163 79.265 175.553C80.735 175.073 82.165 174.653 83.535 174.303C87.595 173.263 91.855 173.263 95.905 174.303C97.285 174.653 98.705 175.073 100.175 175.553C111.175 179.173 122.535 178.913 129.945 178.703C135.955 178.543 141.875 177.933 147.295 175.333C183.725 157.873 181.125 118.383 172.125 102.243L172.135 102.253Z" fill="#D3A56A"/>
<path d="M106.875 88.7732C106.875 99.2732 100.405 107.793 92.375 107.793C84.345 107.793 77.875 99.2732 77.875 88.7732C77.875 78.2732 84.365 73.4132 92.375 73.4132C100.385 73.4132 106.875 78.2732 106.875 88.7732Z" fill="#603A2D"/>
<path d="M69.425 75.3632C70.025 75.4732 70.605 75.1432 70.625 74.7032C70.715 72.2432 66.345 69.9832 64.305 69.6932C61.965 69.3532 58.265 70.0732 57.115 72.3932C56.925 72.7732 57.255 73.1932 57.805 73.2932L62.205 73.5432C62.635 73.5632 63.065 73.6032 63.485 73.6832C63.515 73.6832 63.535 73.6832 63.565 73.6932C63.925 73.7632 64.285 73.8532 64.635 73.9532L69.445 75.3532L69.425 75.3632Z" fill="#603A2D"/>
<path d="M69.655 77.0432C69.485 77.0432 69.315 77.0332 69.145 77.0032L68.975 76.9632L64.165 75.5632C63.795 75.4532 63.515 75.3832 63.265 75.3432L63.475 74.0232L63.195 75.3332C62.825 75.2632 62.415 75.2332 62.105 75.2232L57.515 74.9532C56.765 74.8232 56.155 74.4132 55.825 73.8432C55.535 73.3232 55.515 72.7232 55.775 72.2032C57.285 69.1532 61.805 68.3332 64.535 68.7332C66.855 69.0632 72.215 71.6332 72.095 75.1032C72.075 75.6732 71.765 76.2132 71.255 76.5732C70.805 76.8932 70.235 77.0632 69.655 77.0632V77.0432ZM63.845 72.7232C64.315 72.8132 64.745 72.9332 65.075 73.0232L68.845 74.1232C67.985 72.8732 65.545 71.5532 64.075 71.3432C62.675 71.1432 60.485 71.4332 59.225 72.3832L62.285 72.5532C62.685 72.5732 63.215 72.6132 63.755 72.7132L63.555 74.0332L63.845 72.7232Z" fill="#603A2D"/>
<path d="M113.955 75.3233C113.355 75.4333 112.775 75.1033 112.755 74.6633C112.665 72.2033 117.035 69.9433 119.075 69.6533C121.415 69.3133 125.115 70.0333 126.265 72.3533C126.455 72.7333 126.125 73.1533 125.575 73.2533L121.175 73.5033C120.745 73.5233 120.315 73.5633 119.895 73.6433C119.865 73.6433 119.845 73.6433 119.815 73.6533C119.455 73.7233 119.095 73.8133 118.745 73.9133L113.935 75.3133L113.955 75.3233Z" fill="#603A2D"/>
<path d="M113.735 76.6732C113.155 76.6732 112.575 76.5032 112.135 76.1832C111.625 75.8132 111.315 75.2732 111.295 74.7132C111.165 71.2432 116.535 68.6832 118.855 68.3432C121.585 67.9532 126.105 68.7732 127.615 71.8132C127.875 72.3432 127.855 72.9432 127.565 73.4532C127.235 74.0232 126.625 74.4332 125.875 74.5632L125.685 74.5832L121.285 74.8332C120.975 74.8532 120.575 74.8832 120.195 74.9432L119.835 73.6532L120.125 74.9632C119.865 75.0132 119.585 75.0832 119.225 75.1832L114.245 76.6232C114.075 76.6532 113.905 76.6632 113.735 76.6632V76.6732ZM120.215 70.9032C119.895 70.9032 119.585 70.9232 119.305 70.9632C117.845 71.1732 115.395 72.5032 114.535 73.7432L118.305 72.6432C118.785 72.5032 119.155 72.4132 119.535 72.3432L119.905 73.6332L119.625 72.3232C120.165 72.2232 120.695 72.1932 121.095 72.1632L124.155 71.9932C123.145 71.2332 121.535 70.8932 120.215 70.8932V70.9032Z" fill="#603A2D"/>
<path d="M60.455 108.523L68.575 126.113L76.965 138.683L88.785 148.003L101.195 147.323L109.545 140.793L114.185 133.003L124.895 109.333C124.895 109.333 128.655 103.633 125.985 102.783C123.315 101.933 118.835 102.783 118.835 102.783C118.835 102.783 112.785 107.253 112.465 107.293C112.145 107.333 106.015 110.133 106.015 110.133L98.385 110.733L92.935 109.343L86.155 110.733L77.475 110.133L72.525 107.513L69.225 104.483L63.875 102.413H62.425C62.425 102.413 56.145 102.143 60.465 108.523H60.455Z" fill="#B25F5F"/>
<path d="M95.705 149.213C97.625 149.203 99.545 148.673 101.455 147.643L101.115 143.393C101.015 142.103 99.935 141.113 98.645 141.113H90.355C89.065 141.113 87.985 142.103 87.885 143.393L87.635 147.313C90.155 149.203 92.865 149.203 95.635 149.203C95.665 149.203 95.685 149.203 95.715 149.203L95.705 149.213Z" fill="white"/>
<path d="M95.715 150.853H95.625C92.805 150.853 89.605 150.853 86.645 148.633L85.935 148.103L86.245 143.293C86.415 141.143 88.225 139.483 90.345 139.483H98.635C100.765 139.483 102.565 141.143 102.735 143.263L103.165 148.583L102.225 149.093C100.075 150.243 97.885 150.843 95.715 150.853ZM89.325 146.483C91.215 147.573 93.285 147.573 95.625 147.573L95.705 149.213V147.573C97.015 147.573 98.375 147.253 99.735 146.663L99.485 143.533C99.445 143.103 99.085 142.763 98.645 142.763H90.355C89.915 142.763 89.555 143.103 89.515 143.533L89.325 146.483Z" fill="#603A2D"/>
<path d="M86.685 113.413L86.975 116.943C87.075 118.233 88.155 119.223 89.445 119.223H97.735C99.025 119.223 100.105 118.233 100.205 116.943L100.485 113.473C98.335 113.273 95.955 112.773 93.335 111.883C90.915 112.713 88.705 113.203 86.685 113.423V113.413Z" fill="white"/>
<path d="M97.735 120.853H89.445C87.315 120.853 85.515 119.193 85.345 117.073L84.935 111.963L86.515 111.783C88.495 111.563 90.615 111.073 92.815 110.323L93.345 110.143L93.875 110.323C96.255 111.133 98.535 111.643 100.645 111.833L102.265 111.983L101.855 117.073C101.685 119.193 99.885 120.853 97.755 120.853H97.735ZM88.445 114.823L88.605 116.813C88.645 117.243 89.005 117.583 89.445 117.583H97.735C98.175 117.583 98.535 117.243 98.575 116.813L98.725 114.903C96.995 114.643 95.195 114.203 93.335 113.603C91.655 114.153 90.015 114.553 88.435 114.823H88.445Z" fill="#603A2D"/>
<path d="M91.945 108.893C91.735 108.963 91.545 109.023 91.335 109.083H91.775C91.825 109.013 91.875 108.953 91.935 108.893H91.945Z" fill="#333333"/>
<path d="M71.025 104.683C69.485 103.383 68.145 102.273 66.705 101.883C61.665 100.533 56.875 104.323 56.675 104.493C55.975 105.063 55.865 106.083 56.425 106.793C56.985 107.503 58.015 107.613 58.725 107.053C58.765 107.023 62.445 104.133 65.855 105.053C66.595 105.253 67.725 106.193 68.915 107.203C71.975 109.763 76.515 113.573 84.055 113.573C84.895 113.573 85.775 113.523 86.685 113.423L86.425 110.173C78.655 111.083 74.345 107.483 71.025 104.703V104.683Z" fill="#603A2D"/>
<path d="M94.735 108.893C94.375 108.533 93.855 108.353 93.335 108.433C93.435 108.453 93.545 108.473 93.645 108.513C94.015 108.643 94.375 108.773 94.725 108.893H94.735Z" fill="#333333"/>
<path d="M92.535 111.593C91.685 111.283 91.245 110.343 91.555 109.493C91.615 109.343 91.695 109.203 91.785 109.083H91.345C89.565 109.633 87.935 109.983 86.435 110.153L86.695 113.403C88.715 113.183 90.925 112.693 93.345 111.863C93.075 111.773 92.805 111.683 92.535 111.583V111.593Z" fill="#603A2D"/>
<path d="M94.895 109.083H95.335C95.135 109.023 94.935 108.963 94.725 108.893C94.785 108.953 94.835 109.013 94.885 109.083H94.895Z" fill="#333333"/>
<path d="M130.005 104.493C129.805 104.333 125.005 100.533 119.975 101.883C118.535 102.273 117.205 103.393 115.655 104.683C112.405 107.413 108.215 110.923 100.745 110.213L100.485 113.463C101.225 113.533 101.935 113.563 102.615 113.563C110.155 113.563 114.695 109.753 117.755 107.193C118.945 106.193 120.075 105.243 120.815 105.043C124.215 104.133 127.885 106.993 127.945 107.043C128.645 107.603 129.675 107.493 130.245 106.793C130.815 106.093 130.705 105.053 129.995 104.493H130.005Z" fill="#603A2D"/>
<path d="M93.345 108.433C92.825 108.353 92.315 108.533 91.945 108.893C92.305 108.773 92.665 108.653 93.025 108.513C93.125 108.473 93.235 108.453 93.335 108.433H93.345Z" fill="#333333"/>
<path d="M95.345 109.083H94.905C94.995 109.203 95.075 109.343 95.135 109.493C95.445 110.343 95.005 111.283 94.155 111.593C93.885 111.693 93.615 111.783 93.345 111.873C95.965 112.763 98.345 113.273 100.495 113.463L100.755 110.213C99.115 110.063 97.325 109.693 95.345 109.083Z" fill="#603A2D"/>
<path d="M91.785 109.083H94.905C94.855 109.013 94.805 108.953 94.745 108.893C94.385 108.773 94.025 108.653 93.665 108.513C93.565 108.473 93.455 108.453 93.355 108.433C93.245 108.453 93.145 108.473 93.045 108.513C92.675 108.643 92.315 108.773 91.965 108.893C91.905 108.953 91.855 109.013 91.805 109.083H91.785Z" fill="#603A2D"/>
<path d="M91.555 109.493C91.245 110.343 91.685 111.283 92.535 111.593C92.805 111.693 93.075 111.783 93.345 111.873C93.615 111.783 93.885 111.693 94.155 111.593C95.005 111.283 95.445 110.343 95.135 109.493C95.075 109.343 94.995 109.203 94.905 109.083H91.785C91.695 109.203 91.615 109.343 91.555 109.493Z" fill="#603A2D"/>
<path d="M94.585 151.203C74.915 151.203 60.535 111.103 59.925 109.393C59.625 108.543 60.075 107.603 60.925 107.303C61.775 107.003 62.715 107.453 63.015 108.303C63.055 108.403 66.655 118.523 72.465 128.473C77.675 137.383 85.785 147.983 94.665 147.933C104.595 147.863 114.445 134.163 123.155 108.323C123.445 107.463 124.375 107.003 125.235 107.293C126.095 107.583 126.555 108.513 126.265 109.373C116.935 137.053 106.315 151.123 94.695 151.213H94.595L94.585 151.203Z" fill="#603A2D"/>
</g>
<defs>
<clipPath id="clip0_1928_1919">
<rect width="178.71" height="179.45" fill="white" transform="translate(0.644997 0.843262)"/>
</clipPath>
</defs>
</svg>
