<svg width="44" height="45" viewBox="0 0 44 45" fill="none" xmlns="http://www.w3.org/2000/svg">
<g filter="url(#filter0_d_1960_1521)">
<path d="M25.6205 8.23036C24.9325 11.303 26.3004 14.2252 28.6731 14.7567C31.0477 15.2882 33.5287 13.2284 34.2187 10.1558C34.9086 7.08313 33.5067 4.30731 31.132 3.77581C28.7573 3.24432 26.3084 5.15971 25.6205 8.23237V8.23036Z" fill="#D3A56A"/>
<path d="M26.6574 9.32748C26.1178 11.7383 27.0084 13.9906 28.647 14.3576C30.2856 14.7247 32.0526 13.068 32.5921 10.6572C33.1316 8.24643 32.215 6.10841 30.5764 5.74138C28.9378 5.37434 27.1969 6.91669 26.6574 9.32948V9.32748Z" fill="#603A2D"/>
<path d="M17.4856 8.23036C18.1735 11.303 16.8056 14.2252 14.433 14.7567C12.0583 15.2882 9.57727 13.2284 8.88733 10.1558C8.19939 7.08313 9.59934 4.30731 11.974 3.77581C14.3487 3.24432 16.7976 5.15971 17.4856 8.23237V8.23036Z" fill="#D3A56A"/>
<path d="M16.4546 9.32748C16.9942 11.7383 16.1036 13.9906 14.465 14.3576C12.8264 14.7247 11.0594 13.068 10.5199 10.6572C9.9804 8.24643 10.897 6.10841 12.5356 5.74138C14.1742 5.37434 15.9151 6.91669 16.4546 9.32948V9.32748Z" fill="#603A2D"/>
<path d="M38.1799 23.726C36.6576 20.9983 34.7281 20.3706 32.8208 15.188C30.077 7.73498 22.5338 7.78312 21.9562 7.74902H21.8338C21.8338 7.74902 21.6613 7.74902 21.6513 7.74902C21.6413 7.74902 21.6352 7.74902 21.6352 7.74902H21.3043C20.7548 7.75905 13.2276 7.73498 10.4838 15.188C8.57646 20.3686 6.79544 21.1468 5.27316 23.8744C3.46606 27.1096 2.79818 34.8815 10.1028 38.3833C11.1898 38.9048 12.3772 39.0271 13.5826 39.0592C15.0667 39.0993 17.3472 39.1515 19.5534 38.4274C19.8482 38.3312 20.135 38.2469 20.4098 38.1767C21.2241 37.9682 22.0785 37.9682 22.8908 38.1767C23.1676 38.2469 23.4524 38.3312 23.7472 38.4274C25.9534 39.1535 28.2318 39.1013 29.718 39.0592C30.9234 39.0271 32.1108 38.9048 33.1978 38.3833C40.5044 34.8815 39.9829 26.9611 38.1778 23.724L38.1799 23.726Z" fill="#D3A56A"/>
<path d="M25.091 21.0221C25.091 23.128 23.7933 24.8368 22.1828 24.8368C20.5722 24.8368 19.2746 23.128 19.2746 21.0221C19.2746 18.9162 20.5762 17.9414 22.1828 17.9414C23.7893 17.9414 25.091 18.9162 25.091 21.0221Z" fill="#603A2D"/>
<path d="M17.3371 18.7499C17.4575 18.7719 17.5738 18.7057 17.5778 18.6175C17.5959 18.1241 16.7194 17.6708 16.3102 17.6127C15.8409 17.5445 15.0988 17.6889 14.8682 18.1542C14.8301 18.2304 14.8963 18.3146 15.0066 18.3347L15.889 18.3848C15.9753 18.3888 16.0615 18.3969 16.1458 18.4129C16.1518 18.4129 16.1558 18.4129 16.1618 18.4149C16.234 18.429 16.3062 18.447 16.3764 18.4671L17.3411 18.7479L17.3371 18.7499Z" fill="#603A2D"/>
<path d="M17.3813 19.087C17.3472 19.087 17.3131 19.085 17.279 19.079L17.2449 19.0709L16.2802 18.7901C16.206 18.7681 16.1498 18.754 16.0997 18.746L16.1418 18.4813L16.0856 18.744C16.0114 18.73 15.9292 18.724 15.867 18.7219L14.9464 18.6678C14.796 18.6417 14.6737 18.5595 14.6075 18.4452C14.5493 18.3409 14.5453 18.2205 14.5974 18.1162C14.9003 17.5045 15.8069 17.3401 16.3544 17.4203C16.8197 17.4865 17.8947 18.0019 17.8707 18.6979C17.8667 18.8122 17.8045 18.9205 17.7022 18.9927C17.6119 19.0569 17.4976 19.091 17.3813 19.091V19.087ZM16.218 18.2205C16.3123 18.2386 16.3985 18.2627 16.4647 18.2807L17.2208 18.5013C17.0484 18.2506 16.559 17.9859 16.2641 17.9438C15.9834 17.9036 15.5441 17.9618 15.2914 18.1523L15.9051 18.1864C15.9854 18.1905 16.0917 18.1985 16.2 18.2185L16.1598 18.4833L16.218 18.2205Z" fill="#603A2D"/>
<path d="M26.6694 18.7421C26.5491 18.7641 26.4327 18.6979 26.4287 18.6097C26.4107 18.1163 27.2871 17.663 27.6963 17.6049C28.1656 17.5367 28.9077 17.6811 29.1384 18.1464C29.1765 18.2226 29.1103 18.3068 29 18.3269L28.1175 18.377C28.0312 18.381 27.945 18.3891 27.8608 18.4051C27.8547 18.4051 27.8507 18.4051 27.8447 18.4071C27.7725 18.4211 27.7003 18.4392 27.6301 18.4593L26.6654 18.74L26.6694 18.7421Z" fill="#603A2D"/>
<path d="M26.6233 19.0121C26.5069 19.0121 26.3906 18.978 26.3024 18.9138C26.2001 18.8396 26.1379 18.7313 26.1339 18.619C26.1078 17.923 27.1848 17.4096 27.6502 17.3414C28.1977 17.2632 29.1043 17.4276 29.4071 18.0373C29.4593 18.1436 29.4552 18.264 29.3971 18.3663C29.3309 18.4806 29.2085 18.5628 29.0581 18.5889L29.02 18.5929L28.1375 18.643C28.0754 18.6471 27.9951 18.6531 27.9189 18.6651L27.8467 18.4064L27.9049 18.6691C27.8527 18.6791 27.7966 18.6932 27.7244 18.7132L26.7256 19.0021C26.6915 19.0081 26.6574 19.0101 26.6233 19.0101V19.0121ZM27.9249 17.8548C27.8608 17.8548 27.7986 17.8588 27.7424 17.8669C27.4496 17.909 26.9582 18.1757 26.7857 18.4244L27.5419 18.2038C27.6381 18.1757 27.7123 18.1577 27.7885 18.1436L27.8628 18.4024L27.8066 18.1396C27.9149 18.1196 28.0212 18.1136 28.1014 18.1075L28.7152 18.0734C28.5126 17.921 28.1897 17.8528 27.9249 17.8528V17.8548Z" fill="#603A2D"/>
<path d="M15.5381 25.4008L17.1667 28.9288L18.8494 31.4499L21.2201 33.3191L23.7091 33.1828L25.3838 31.8731L26.3145 30.3107L28.4625 25.5633C28.4625 25.5633 29.2166 24.4201 28.6811 24.2496C28.1456 24.0791 27.2471 24.2496 27.2471 24.2496C27.2471 24.2496 26.0337 25.1461 25.9695 25.1541C25.9053 25.1622 24.6758 25.7237 24.6758 25.7237L23.1455 25.8441L22.0525 25.5653L20.6926 25.8441L18.9517 25.7237L17.9589 25.1983L17.2971 24.5906L16.224 24.1754H15.9332C15.9332 24.1754 14.6737 24.1212 15.5401 25.4008H15.5381Z" fill="#B25F5F"/>
<path d="M22.608 33.5621C22.9931 33.5601 23.3781 33.4538 23.7612 33.2472L23.693 32.3948C23.673 32.1361 23.4564 31.9375 23.1976 31.9375H21.5349C21.2762 31.9375 21.0596 32.1361 21.0396 32.3948L20.9894 33.181C21.4948 33.5601 22.0384 33.5601 22.5939 33.5601C22.5999 33.5601 22.604 33.5601 22.61 33.5601L22.608 33.5621Z" fill="white"/>
<path d="M22.608 33.8918H22.59C22.0244 33.8918 21.3826 33.8918 20.7889 33.4465L20.6465 33.3402L20.7087 32.3755C20.7428 31.9443 21.1058 31.6113 21.531 31.6113H23.1937C23.6209 31.6113 23.9819 31.9443 24.016 32.3695L24.1022 33.4365L23.9137 33.5388C23.4825 33.7694 23.0432 33.8897 22.608 33.8918ZM21.3264 33.0153C21.7055 33.2339 22.1206 33.2339 22.59 33.2339L22.606 33.5628V33.2339C22.8687 33.2339 23.1415 33.1697 23.4143 33.0514L23.3641 32.4236C23.3561 32.3374 23.2839 32.2692 23.1957 32.2692H21.533C21.4447 32.2692 21.3725 32.3374 21.3645 32.4236L21.3264 33.0153Z" fill="#603A2D"/>
<path d="M20.7989 26.3821L20.8571 27.0901C20.8771 27.3488 21.0937 27.5473 21.3525 27.5473H23.0151C23.2739 27.5473 23.4905 27.3488 23.5105 27.0901L23.5667 26.3941C23.1355 26.354 22.6581 26.2537 22.1327 26.0752C21.6473 26.2417 21.204 26.3399 20.7989 26.3841V26.3821Z" fill="white"/>
<path d="M23.0151 27.8746H21.3525C20.9253 27.8746 20.5642 27.5417 20.5301 27.1165L20.4479 26.0916L20.7648 26.0555C21.1619 26.0114 21.5871 25.9131 22.0284 25.7627L22.1347 25.7266L22.241 25.7627C22.7183 25.9251 23.1756 26.0274 23.5988 26.0655L23.9237 26.0956L23.8415 27.1165C23.8074 27.5417 23.4464 27.8746 23.0192 27.8746H23.0151ZM21.1519 26.6652L21.184 27.0643C21.192 27.1506 21.2642 27.2188 21.3525 27.2188H23.0151C23.1034 27.2188 23.1756 27.1506 23.1836 27.0643L23.2137 26.6813C22.8667 26.6291 22.5057 26.5409 22.1327 26.4205C21.7957 26.5308 21.4668 26.6111 21.1499 26.6652H21.1519Z" fill="#603A2D"/>
<path d="M21.853 25.4736C21.8112 25.4876 21.7733 25.4995 21.7315 25.5115H21.8191C21.8291 25.4975 21.8391 25.4856 21.851 25.4736H21.853Z" fill="#333333"/>
<path d="M17.658 24.6305C17.3492 24.3698 17.0804 24.1472 16.7916 24.0689C15.7807 23.7982 14.82 24.5583 14.7799 24.5924C14.6395 24.7067 14.6175 24.9113 14.7298 25.0537C14.8421 25.1961 15.0487 25.2182 15.1911 25.1059C15.1991 25.0998 15.9372 24.5202 16.6211 24.7047C16.7695 24.7448 16.9962 24.9334 17.2348 25.1359C17.8486 25.6494 18.7591 26.4135 20.2714 26.4135C20.4399 26.4135 20.6164 26.4035 20.7989 26.3835L20.7467 25.7316C19.1883 25.9141 18.3239 25.1921 17.658 24.6345V24.6305Z" fill="#603A2D"/>
<path d="M22.4135 25.4749C22.3412 25.4027 22.237 25.3666 22.1327 25.3827C22.1527 25.3867 22.1748 25.3907 22.1948 25.3987C22.269 25.4248 22.3412 25.4509 22.4114 25.4749H22.4135Z" fill="#333333"/>
<path d="M21.9702 26.0171C21.7997 25.9549 21.7115 25.7664 21.7737 25.5959C21.7857 25.5658 21.8017 25.5377 21.8198 25.5137H21.7315C21.3745 25.624 21.0476 25.6942 20.7468 25.7283L20.7989 26.3801C21.2041 26.336 21.6473 26.2377 22.1327 26.0712C22.0785 26.0532 22.0244 26.0351 21.9702 26.0151V26.0171Z" fill="#603A2D"/>
<path d="M22.4453 25.5115H22.5329C22.4931 25.4995 22.4533 25.4876 22.4115 25.4736C22.4234 25.4856 22.4334 25.4975 22.4433 25.5115H22.4453Z" fill="#333333"/>
<path d="M29.4874 24.5923C29.4473 24.5602 28.4846 23.7981 27.4757 24.0688C27.1869 24.147 26.9202 24.3717 26.6093 24.6304C25.9575 25.1779 25.1171 25.8819 23.6189 25.7395L23.5667 26.3914C23.7151 26.4054 23.8575 26.4114 23.9939 26.4114C25.5062 26.4114 26.4168 25.6473 27.0305 25.1338C27.2692 24.9333 27.4958 24.7427 27.6442 24.7026C28.3261 24.5201 29.0622 25.0937 29.0742 25.1037C29.2146 25.216 29.4212 25.194 29.5355 25.0536C29.6499 24.9132 29.6278 24.7046 29.4854 24.5923H29.4874Z" fill="#603A2D"/>
<path d="M22.1326 25.3836C22.0283 25.3676 21.9261 25.4037 21.8519 25.4759C21.9241 25.4518 21.9963 25.4278 22.0685 25.3997C22.0885 25.3917 22.1106 25.3877 22.1306 25.3836H22.1326Z" fill="#333333"/>
<path d="M22.5338 25.5137H22.4455C22.4636 25.5377 22.4796 25.5658 22.4917 25.5959C22.5538 25.7664 22.4656 25.9549 22.2951 26.0171C22.241 26.0371 22.1868 26.0552 22.1327 26.0732C22.6581 26.2518 23.1355 26.354 23.5667 26.3921L23.6188 25.7403C23.2899 25.7102 22.9309 25.636 22.5338 25.5137Z" fill="#603A2D"/>
<path d="M21.8197 25.5112H22.4455C22.4355 25.4972 22.4255 25.4852 22.4134 25.4731C22.3412 25.4491 22.269 25.425 22.1968 25.3969C22.1768 25.3889 22.1547 25.3849 22.1346 25.3809C22.1126 25.3849 22.0925 25.3889 22.0725 25.3969C21.9983 25.423 21.926 25.4491 21.8558 25.4731C21.8438 25.4852 21.8338 25.4972 21.8238 25.5112H21.8197Z" fill="#603A2D"/>
<path d="M21.7756 25.5959C21.7135 25.7664 21.8017 25.9549 21.9722 26.0171C22.0263 26.0371 22.0805 26.0552 22.1346 26.0732C22.1888 26.0552 22.2429 26.0371 22.2971 26.0171C22.4676 25.9549 22.5558 25.7664 22.4937 25.5959C22.4816 25.5658 22.4656 25.5377 22.4475 25.5137H21.8218C21.8037 25.5377 21.7877 25.5658 21.7756 25.5959Z" fill="#603A2D"/>
<path d="M22.3834 33.9609C18.4382 33.9609 15.5541 25.9183 15.4318 25.5753C15.3716 25.4048 15.4619 25.2163 15.6323 25.1561C15.8028 25.096 15.9913 25.1862 16.0515 25.3567C16.0595 25.3768 16.7816 27.4065 17.9469 29.4021C18.9918 31.1891 20.6184 33.3151 22.3994 33.3051C24.391 33.2911 26.3666 30.5433 28.1135 25.3607C28.1717 25.1882 28.3582 25.096 28.5307 25.1541C28.7032 25.2123 28.7954 25.3988 28.7373 25.5713C26.866 31.1229 24.736 33.9449 22.4054 33.9629H22.3854L22.3834 33.9609Z" fill="#603A2D"/>
</g>
<defs>
<filter id="filter0_d_1960_1521" x="0.0811157" y="0.6875" width="43.242" height="43.3926" filterUnits="userSpaceOnUse" color-interpolation-filters="sRGB">
<feFlood flood-opacity="0" result="BackgroundImageFix"/>
<feColorMatrix in="SourceAlpha" type="matrix" values="0 0 0 0 0 0 0 0 0 0 0 0 0 0 0 0 0 0 127 0" result="hardAlpha"/>
<feOffset dy="1"/>
<feGaussianBlur stdDeviation="2"/>
<feComposite in2="hardAlpha" operator="out"/>
<feColorMatrix type="matrix" values="0 0 0 0 0.334018 0 0 0 0 0.334018 0 0 0 0 0.334018 0 0 0 0.25 0"/>
<feBlend mode="normal" in2="BackgroundImageFix" result="effect1_dropShadow_1960_1521"/>
<feBlend mode="normal" in="SourceGraphic" in2="effect1_dropShadow_1960_1521" result="shape"/>
</filter>
</defs>
</svg>
