<svg width="42" height="42" viewBox="0 0 42 42" fill="none" xmlns="http://www.w3.org/2000/svg">
<g filter="url(#filter0_d_1960_1489)">
<path d="M24.5935 7.29188C23.9103 10.3302 25.2687 13.2197 27.625 13.7453C29.9833 14.2709 32.4472 12.2341 33.1324 9.19578C33.8156 6.15747 32.4253 3.41269 30.067 2.88713C27.7087 2.36158 25.2767 4.25556 24.5935 7.29386V7.29188Z" fill="#D3A56A"/>
<path d="M25.6233 8.37663C25.0875 10.7605 25.9718 12.9876 27.5991 13.3506C29.2264 13.7135 30.9812 12.0753 31.517 9.69151C32.0528 7.30767 31.1425 5.19355 29.5152 4.83062C27.8879 4.46769 26.1591 5.99279 25.6233 8.37861V8.37663Z" fill="#603A2D"/>
<path d="M16.5147 7.29191C17.1979 10.3302 15.8395 13.2198 13.4832 13.7453C11.1249 14.2709 8.66104 12.2341 7.97586 9.19581C7.29068 6.1575 8.68295 3.41073 11.0412 2.88518C13.3995 2.35962 15.8315 4.2536 16.5147 7.29191Z" fill="#D3A56A"/>
<path d="M15.491 8.37663C16.0267 10.7605 15.1424 12.9876 13.5151 13.3506C11.8878 13.7135 10.133 12.0753 9.5972 9.69151C9.06141 7.30767 9.97166 5.19355 11.599 4.83062C13.2263 4.46769 14.9552 5.99279 15.491 8.37861V8.37663Z" fill="#603A2D"/>
<path d="M37.0661 22.6138C35.5543 19.9166 33.6382 19.2959 31.744 14.1712C29.0192 6.80155 21.528 6.84914 20.9544 6.81543H20.8329C20.8329 6.81543 20.6616 6.81543 20.6517 6.81543C20.6417 6.81543 20.6357 6.81543 20.6357 6.81543H20.3071C19.7613 6.82535 12.2861 6.80155 9.56128 14.1712C7.66707 19.2939 5.89835 20.0634 4.38657 22.7606C2.59195 25.9595 1.92868 33.6445 9.18284 37.1072C10.2624 37.6229 11.4415 37.7439 12.6386 37.7756C14.1126 37.8153 16.3772 37.8668 18.5682 37.1509C18.861 37.0557 19.1458 36.9724 19.4187 36.903C20.2274 36.6967 21.0759 36.6967 21.8826 36.903C22.1575 36.9724 22.4403 37.0557 22.7331 37.1509C24.9241 37.8688 27.1868 37.8172 28.6627 37.7756C29.8598 37.7439 31.0389 37.6229 32.1185 37.1072C39.3746 33.6445 38.8568 25.8128 37.0641 22.6118L37.0661 22.6138Z" fill="#D3A56A"/>
<path d="M24.0677 19.9408C24.0677 22.0232 22.779 23.7129 21.1795 23.7129C19.5801 23.7129 18.2914 22.0232 18.2914 19.9408C18.2914 17.8584 19.5841 16.8945 21.1795 16.8945C22.775 16.8945 24.0677 17.8584 24.0677 19.9408Z" fill="#603A2D"/>
<path d="M26.332 17.9592C26.8071 17.9124 27.1399 17.3478 27.0754 16.6982C27.0108 16.0486 26.5734 15.5599 26.0983 15.6067C25.6232 15.6535 25.2903 16.218 25.3549 16.8677C25.4194 17.5173 25.8569 18.006 26.332 17.9592Z" fill="#603A2D"/>
<path d="M26.2666 18.2827C25.6472 18.2827 25.1154 17.6976 25.0357 16.9004C24.9978 16.5196 25.0735 16.1467 25.2488 15.8512C25.44 15.528 25.7388 15.3237 26.0674 15.292C26.7307 15.2265 27.3123 15.8314 27.394 16.6683C27.4318 17.0491 27.3561 17.4219 27.1809 17.7174C26.9896 18.0407 26.6909 18.245 26.3622 18.2767C26.3304 18.2807 26.2965 18.2807 26.2646 18.2807L26.2666 18.2827ZM26.1611 15.9226C26.1511 15.9226 26.1411 15.9226 26.1292 15.9226C25.9599 15.9385 25.8503 16.0852 25.7985 16.1705C25.693 16.349 25.6472 16.591 25.6711 16.8349C25.7169 17.293 26.0117 17.6679 26.2985 17.6401C26.4678 17.6242 26.5773 17.4775 26.6291 17.3902C26.7347 17.2117 26.7805 16.9698 26.7566 16.7258C26.7128 16.2836 26.4379 15.9187 26.1591 15.9187L26.1611 15.9226Z" fill="#603A2D"/>
<path d="M17.0072 16.877C17.0718 16.2274 16.7389 15.6628 16.2638 15.616C15.7887 15.5692 15.3513 16.0579 15.2867 16.7075C15.2222 17.3572 15.555 17.9217 16.0301 17.9685C16.5052 18.0153 16.9427 17.5266 17.0072 16.877Z" fill="#603A2D"/>
<path d="M16.0945 18.2885C16.0626 18.2885 16.0307 18.2885 15.9969 18.2845C15.6682 18.2528 15.3695 18.0485 15.1782 17.7253C15.003 17.4298 14.9293 17.0569 14.9671 16.6761C15.0508 15.8392 15.6364 15.2343 16.2936 15.2998C16.9549 15.3652 17.4071 16.0712 17.3254 16.9082C17.2457 17.7034 16.7159 18.2905 16.0945 18.2905V18.2885ZM16.2 15.9304C15.9212 15.9304 15.6463 16.2973 15.6025 16.7376C15.5786 16.9815 15.6244 17.2235 15.73 17.402C15.7798 17.4873 15.8913 17.634 16.0606 17.6499C16.3514 17.6757 16.6442 17.3028 16.688 16.8447C16.7338 16.3866 16.5207 15.9602 16.2299 15.9324C16.22 15.9324 16.21 15.9324 16.198 15.9324L16.2 15.9304Z" fill="#603A2D"/>
<path d="M16.5147 16.7835C16.7171 16.7835 16.8812 16.5925 16.8812 16.3571C16.8812 16.1216 16.7171 15.9307 16.5147 15.9307C16.3123 15.9307 16.1482 16.1216 16.1482 16.3571C16.1482 16.5925 16.3123 16.7835 16.5147 16.7835Z" fill="white"/>
<path d="M26.4359 16.7776C26.6383 16.7776 26.8024 16.5867 26.8024 16.3512C26.8024 16.1157 26.6383 15.9248 26.4359 15.9248C26.2335 15.9248 26.0694 16.1157 26.0694 16.3512C26.0694 16.5867 26.2335 16.7776 26.4359 16.7776Z" fill="white"/>
<path d="M19.9745 25.7122L20.0263 26.3449C20.0442 26.5769 20.2394 26.7534 20.4725 26.7534H21.9683C22.2013 26.7534 22.3945 26.5749 22.4145 26.3449L22.4643 25.7202C22.0759 25.6845 21.6476 25.5952 21.1756 25.4346C20.7394 25.5833 20.339 25.6706 19.9745 25.7102V25.7122Z" fill="white"/>
<path d="M19.2057 26.0509C18.0106 26.0509 17.188 25.2398 16.6203 24.6765C16.3534 24.4127 16.1064 24.2918 15.9172 24.2184C15.3655 24.0042 14.7759 24.4584 14.7699 24.4643C14.6564 24.5793 14.4692 24.5833 14.3516 24.4703C14.2341 24.3572 14.2321 24.1708 14.3457 24.0558C14.3795 24.0201 15.2121 23.316 16.1303 23.671C16.4351 23.788 16.7079 23.9388 17.0346 24.26C17.903 25.1188 18.9846 26.1858 21.0102 24.7876C21.1437 24.6944 21.3289 24.7281 21.4206 24.861C21.5142 24.9938 21.4803 25.1783 21.3469 25.2695C20.5242 25.8367 19.8152 26.0489 19.2037 26.0489L19.2057 26.0509Z" fill="#603A2D"/>
<path d="M23.2012 26.0509C24.3963 26.0509 25.2189 25.2398 25.7866 24.6765C26.0535 24.4127 26.3005 24.2918 26.4897 24.2184C27.0414 24.0042 27.631 24.4584 27.637 24.4643C27.7505 24.5793 27.9377 24.5833 28.0553 24.4703C28.1728 24.3572 28.1748 24.1708 28.0612 24.0558C28.0274 24.0201 27.1948 23.316 26.2766 23.671C25.9718 23.788 25.6989 23.9388 25.3723 24.26C24.5039 25.1188 23.4223 26.1858 21.3966 24.7876C21.2632 24.6944 21.078 24.7281 20.9863 24.861C20.8927 24.9938 20.9266 25.1783 21.06 25.2695C21.8826 25.8367 22.5917 26.0489 23.2032 26.0489L23.2012 26.0509Z" fill="#603A2D"/>
</g>
<defs>
<filter id="filter0_d_1960_1489" x="0.202759" y="0.797852" width="40.9988" height="40.999" filterUnits="userSpaceOnUse" color-interpolation-filters="sRGB">
<feFlood flood-opacity="0" result="BackgroundImageFix"/>
<feColorMatrix in="SourceAlpha" type="matrix" values="0 0 0 0 0 0 0 0 0 0 0 0 0 0 0 0 0 0 127 0" result="hardAlpha"/>
<feOffset dy="1"/>
<feGaussianBlur stdDeviation="1.5"/>
<feComposite in2="hardAlpha" operator="out"/>
<feColorMatrix type="matrix" values="0 0 0 0 0 0 0 0 0 0 0 0 0 0 0 0 0 0 0.25 0"/>
<feBlend mode="normal" in2="BackgroundImageFix" result="effect1_dropShadow_1960_1489"/>
<feBlend mode="normal" in="SourceGraphic" in2="effect1_dropShadow_1960_1489" result="shape"/>
</filter>
</defs>
</svg>
