<svg width="28" height="28" viewBox="0 0 28 28" fill="none" xmlns="http://www.w3.org/2000/svg">
<path d="M20.2997 2.33332C19.0013 2.33348 17.7278 2.6891 16.6173 3.36162C15.5067 4.03413 14.6014 4.99787 13.9997 6.14832C13.2603 4.74106 12.071 3.62187 10.6215 2.96921C9.17199 2.31655 7.54569 2.16799 6.00191 2.54722C4.45813 2.92645 3.08577 3.81164 2.10365 5.06164C1.12153 6.31164 0.586195 7.85448 0.583008 9.44415C0.583008 13.37 3.02134 16.9575 6.17134 19.9033C8.60147 22.0568 11.2216 23.9858 13.9997 25.6666C16.7569 23.9548 19.3745 22.0277 21.828 19.9033C25.328 16.7066 27.4163 13.37 27.4163 9.44415C27.4163 8.50985 27.2322 7.58471 26.8745 6.7216C26.5168 5.8585 25.9925 5.07434 25.3316 4.41397C24.6706 3.75359 23.8861 3.22993 23.0227 2.87292C22.1593 2.51591 21.234 2.33255 20.2997 2.33332Z" stroke="#B4B5BE" stroke-miterlimit="10"/>
</svg>
