<svg width="50" height="50" viewBox="0 0 50 50" fill="none" xmlns="http://www.w3.org/2000/svg">
<rect width="50" height="50" rx="25" fill="#F9D2D2"/>
<path d="M28.2749 13.0374C27.6992 15.5986 28.8439 18.0343 30.8295 18.4773C32.8168 18.9203 34.8931 17.2034 35.4705 14.6423C36.0479 12.0812 34.8747 9.76748 32.8873 9.32447C30.9 8.88145 28.8506 10.478 28.2749 13.0391V13.0374Z" fill="#D3A56A"/>
<path d="M29.1426 13.9518C28.6911 15.9613 29.4364 17.8387 30.8077 18.1446C32.179 18.4505 33.6577 17.0697 34.1092 15.0602C34.5608 13.0508 33.7937 11.2687 32.4224 10.9628C31.051 10.6568 29.5941 11.9424 29.1426 13.9535V13.9518Z" fill="#603A2D"/>
<path d="M21.4674 13.0374C22.0431 15.5986 20.8984 18.0343 18.9127 18.4773C16.9254 18.9203 14.8491 17.2034 14.2717 14.6423C13.696 12.0812 14.8676 9.76748 16.8549 9.32447C18.8422 8.88145 20.8917 10.478 21.4674 13.0391V13.0374Z" fill="#D3A56A"/>
<path d="M20.6041 13.9518C21.0556 15.9613 20.3104 17.8387 18.9391 18.1446C17.5677 18.4505 16.089 17.0697 15.6375 15.0602C15.186 13.0508 15.953 11.2687 17.3244 10.9628C18.6957 10.6568 20.1526 11.9424 20.6041 13.9535V13.9518Z" fill="#603A2D"/>
<path d="M38.7854 25.9534C37.5115 23.6798 35.8968 23.1566 34.3005 18.8368C32.0044 12.6245 25.6916 12.6647 25.2082 12.6362H25.1058C25.1058 12.6362 24.9615 12.6362 24.9531 12.6362C24.9447 12.6362 24.9397 12.6362 24.9397 12.6362H24.6627C24.2028 12.6446 17.9035 12.6245 15.6073 18.8368C14.0111 23.1549 12.5206 23.8035 11.2466 26.0771C9.7343 28.7737 9.17537 35.2517 15.2884 38.1706C16.1981 38.6052 17.1918 38.7072 18.2006 38.734C19.4426 38.7674 21.3511 38.8109 23.1974 38.2074C23.4441 38.1271 23.6841 38.0569 23.9141 37.9984C24.5956 37.8245 25.3106 37.8245 25.9904 37.9984C26.222 38.0569 26.4604 38.1271 26.7071 38.2074C28.5534 38.8125 30.4602 38.7691 31.7039 38.734C32.7127 38.7072 33.7064 38.6052 34.6161 38.1706C40.7308 35.2517 40.2944 28.6499 38.7838 25.9517L38.7854 25.9534Z" fill="#D3A56A"/>
<path d="M27.8324 23.6999C27.8324 25.4552 26.7465 26.8796 25.3986 26.8796C24.0508 26.8796 22.9648 25.4552 22.9648 23.6999C22.9648 21.9446 24.0542 21.1321 25.3986 21.1321C26.7431 21.1321 27.8324 21.9446 27.8324 23.6999Z" fill="#603A2D"/>
<path d="M21.546 21.458C21.6467 21.4764 21.744 21.4213 21.7474 21.3477C21.7625 20.9364 21.029 20.5586 20.6866 20.5101C20.2938 20.4533 19.6728 20.5737 19.4798 20.9615C19.4479 21.025 19.5033 21.0953 19.5956 21.112L20.3341 21.1538C20.4063 21.1571 20.4785 21.1638 20.549 21.1772C20.554 21.1772 20.5574 21.1772 20.5624 21.1788C20.6228 21.1906 20.6832 21.2056 20.742 21.2223L21.5493 21.4564L21.546 21.458Z" fill="#603A2D"/>
<path d="M21.5849 21.7389C21.5564 21.7389 21.5278 21.7372 21.4993 21.7322L21.4708 21.7255L20.6634 21.4914C20.6013 21.473 20.5543 21.4613 20.5124 21.4547L20.5476 21.234L20.5006 21.453C20.4385 21.4413 20.3697 21.4363 20.3176 21.4346L19.5472 21.3895C19.4213 21.3677 19.319 21.2992 19.2636 21.2039C19.2149 21.117 19.2115 21.0167 19.2552 20.9297C19.5086 20.4198 20.2673 20.2828 20.7255 20.3496C21.1149 20.4048 22.0146 20.8344 21.9945 21.4145C21.9911 21.5098 21.9391 21.6001 21.8535 21.6603C21.7779 21.7138 21.6823 21.7422 21.5849 21.7422V21.7389ZM20.6097 21.0167C20.6886 21.0317 20.7608 21.0518 20.8162 21.0668L21.4489 21.2507C21.3046 21.0417 20.895 20.8211 20.6483 20.786C20.4133 20.7525 20.0457 20.801 19.8342 20.9598L20.3479 20.9882C20.415 20.9916 20.504 20.9983 20.5946 21.015L20.561 21.2357L20.6097 21.0167Z" fill="#603A2D"/>
<path d="M29.02 21.4513C28.9193 21.4697 28.8219 21.4145 28.8186 21.341C28.8035 20.9297 29.537 20.5519 29.8794 20.5034C30.2722 20.4466 30.8932 20.567 31.0862 20.9548C31.1181 21.0183 31.0627 21.0885 30.9704 21.1053L30.2319 21.1471C30.1597 21.1504 30.0875 21.1571 30.017 21.1705C30.012 21.1705 30.0086 21.1705 30.0036 21.1721C29.9432 21.1838 29.8827 21.1989 29.824 21.2156L29.0166 21.4496L29.02 21.4513Z" fill="#603A2D"/>
<path d="M28.9832 21.6771C28.8858 21.6771 28.7885 21.6487 28.7146 21.5952C28.629 21.5333 28.577 21.4431 28.5736 21.3494C28.5518 20.7693 29.4532 20.3414 29.8426 20.2845C30.3008 20.2193 31.0595 20.3564 31.3129 20.8646C31.3566 20.9532 31.3532 21.0535 31.3045 21.1388C31.2491 21.2341 31.1467 21.3026 31.0209 21.3244L30.989 21.3277L30.2504 21.3695C30.1984 21.3728 30.1313 21.3779 30.0675 21.3879L30.0071 21.1722L30.0557 21.3912C30.0121 21.3996 29.9651 21.4113 29.9047 21.428L29.0688 21.6687C29.0402 21.6738 29.0117 21.6754 28.9832 21.6754V21.6771ZM30.0708 20.7125C30.0171 20.7125 29.9651 20.7158 29.9181 20.7225C29.673 20.7576 29.2618 20.98 29.1175 21.1873L29.7502 21.0034C29.8308 20.98 29.8929 20.9649 29.9567 20.9532L30.0188 21.1689L29.9718 20.9499C30.0624 20.9332 30.1514 20.9282 30.2185 20.9231L30.7322 20.8947C30.5626 20.7677 30.2924 20.7108 30.0708 20.7108V20.7125Z" fill="#603A2D"/>
<path d="M20.041 27.0016L21.4039 29.9422L22.8122 32.0436L24.7962 33.6017L26.8791 33.488L28.2807 32.3964L29.0595 31.0941L30.8571 27.137C30.8571 27.137 31.4883 26.1841 31.0401 26.042C30.5919 25.8999 29.84 26.042 29.84 26.042C29.84 26.042 28.8245 26.7893 28.7708 26.796C28.7171 26.8027 27.6882 27.2708 27.6882 27.2708L26.4075 27.3711L25.4927 27.1387L24.3547 27.3711L22.8978 27.2708L22.0669 26.8328L21.513 26.3262L20.6151 25.9802H20.3717C20.3717 25.9802 19.3176 25.935 20.0427 27.0016H20.041Z" fill="#B25F5F"/>
<path d="M25.9571 33.8039C26.2793 33.8023 26.6016 33.7137 26.9222 33.5415L26.8651 32.831C26.8483 32.6153 26.6671 32.4498 26.4505 32.4498H25.0591C24.8426 32.4498 24.6613 32.6153 24.6445 32.831L24.6025 33.4863C25.0255 33.8023 25.4804 33.8023 25.9453 33.8023C25.9504 33.8023 25.9537 33.8023 25.9588 33.8023L25.9571 33.8039Z" fill="white"/>
<path d="M25.9589 34.0781H25.9438C25.4705 34.0781 24.9334 34.0781 24.4366 33.707L24.3174 33.6184L24.3694 32.8143C24.3979 32.4549 24.7018 32.1774 25.0576 32.1774H26.4491C26.8066 32.1774 27.1087 32.4549 27.1372 32.8093L27.2094 33.6987L27.0516 33.7839C26.6908 33.9762 26.3232 34.0765 25.9589 34.0781ZM24.8864 33.3476C25.2036 33.5298 25.5511 33.5298 25.9438 33.5298L25.9573 33.804V33.5298C26.1771 33.5298 26.4054 33.4763 26.6337 33.3777L26.5917 32.8544C26.585 32.7825 26.5246 32.7257 26.4507 32.7257H25.0593C24.9854 32.7257 24.925 32.7825 24.9183 32.8544L24.8864 33.3476Z" fill="#603A2D"/>
<path d="M24.4434 27.8191L24.492 28.4093C24.5088 28.6249 24.6901 28.7904 24.9066 28.7904H26.2981C26.5146 28.7904 26.6959 28.6249 26.7127 28.4093L26.7597 27.8292C26.3988 27.7957 25.9993 27.7121 25.5595 27.5634C25.1534 27.7021 24.7824 27.784 24.4434 27.8208V27.8191Z" fill="white"/>
<path d="M26.2979 29.0629H24.9064C24.5489 29.0629 24.2468 28.7854 24.2182 28.431L24.1494 27.5767L24.4146 27.5466C24.747 27.5098 25.1028 27.4279 25.4721 27.3026L25.561 27.2725L25.65 27.3026C26.0495 27.438 26.4321 27.5232 26.7863 27.555L27.0582 27.5801L26.9894 28.431C26.9609 28.7854 26.6587 29.0629 26.3012 29.0629H26.2979ZM24.7386 28.0548L24.7654 28.3875C24.7721 28.4594 24.8326 28.5162 24.9064 28.5162H26.2979C26.3717 28.5162 26.4321 28.4594 26.4389 28.3875L26.464 28.0682C26.1737 28.0247 25.8715 27.9512 25.5593 27.8509C25.2774 27.9428 25.0021 28.0097 24.7369 28.0548H24.7386Z" fill="#603A2D"/>
<path d="M25.326 27.0635C25.2908 27.0752 25.2589 27.0852 25.2236 27.0952H25.2975C25.3059 27.0835 25.3143 27.0735 25.3243 27.0635H25.326Z" fill="#333333"/>
<path d="M21.8152 26.3596C21.5567 26.1423 21.3318 25.9567 21.0901 25.8915C20.2442 25.6658 19.4402 26.2994 19.4066 26.3278C19.2891 26.4231 19.2706 26.5937 19.3646 26.7123C19.4586 26.831 19.6315 26.8494 19.7507 26.7558C19.7574 26.7508 20.3751 26.2677 20.9474 26.4215C21.0716 26.4549 21.2613 26.612 21.461 26.7809C21.9747 27.2089 22.7367 27.8458 24.0023 27.8458C24.1433 27.8458 24.291 27.8374 24.4437 27.8207L24.4001 27.2774C23.0959 27.4295 22.3725 26.8277 21.8152 26.363V26.3596Z" fill="#603A2D"/>
<path d="M25.7946 27.0634C25.7341 27.0033 25.6469 26.9732 25.5596 26.9865C25.5764 26.9899 25.5948 26.9932 25.6116 26.9999C25.6737 27.0216 25.7341 27.0434 25.7929 27.0634H25.7946Z" fill="#333333"/>
<path d="M25.4252 27.5148C25.2826 27.463 25.2087 27.3059 25.2607 27.1638C25.2708 27.1387 25.2842 27.1153 25.2994 27.0952H25.2255C24.9267 27.1872 24.6531 27.2457 24.4014 27.2741L24.445 27.8174C24.7841 27.7806 25.155 27.6987 25.5612 27.56C25.5159 27.5449 25.4706 27.5299 25.4252 27.5132V27.5148Z" fill="#603A2D"/>
<path d="M25.8215 27.0952H25.8954C25.8618 27.0852 25.8282 27.0752 25.793 27.0635C25.803 27.0735 25.8114 27.0835 25.8198 27.0952H25.8215Z" fill="#333333"/>
<path d="M31.7146 26.3279C31.6811 26.3011 30.8754 25.6659 30.0311 25.8915C29.7894 25.9567 29.5662 26.144 29.306 26.3596C28.7605 26.816 28.0572 27.4028 26.8034 27.2841L26.7598 27.8274C26.884 27.8391 27.0031 27.8442 27.1173 27.8442C28.3829 27.8442 29.1449 27.2072 29.6585 26.7792C29.8582 26.6121 30.0479 26.4533 30.1721 26.4198C30.7428 26.2677 31.3588 26.7458 31.3689 26.7542C31.4864 26.8478 31.6592 26.8294 31.7549 26.7124C31.8506 26.5954 31.8321 26.4215 31.713 26.3279H31.7146Z" fill="#603A2D"/>
<path d="M25.5612 26.9865C25.4739 26.9732 25.3883 27.0033 25.3262 27.0634C25.3866 27.0434 25.447 27.0233 25.5074 26.9999C25.5242 26.9932 25.5427 26.9899 25.5595 26.9865H25.5612Z" fill="#333333"/>
<path d="M25.8972 27.0952H25.8234C25.8385 27.1153 25.8519 27.1387 25.862 27.1638C25.914 27.3059 25.8402 27.463 25.6975 27.5148C25.6522 27.5315 25.6068 27.5466 25.5615 27.5616C26.0013 27.7104 26.4008 27.7957 26.7616 27.8274L26.8053 27.2841C26.53 27.259 26.2296 27.1972 25.8972 27.0952Z" fill="#603A2D"/>
<path d="M25.2988 27.0952H25.8225C25.8141 27.0835 25.8057 27.0735 25.7957 27.0635C25.7352 27.0434 25.6748 27.0234 25.6144 26.9999C25.5976 26.9933 25.5791 26.9899 25.5623 26.9866C25.5439 26.9899 25.5271 26.9933 25.5103 26.9999C25.4482 27.0217 25.3878 27.0434 25.329 27.0635C25.319 27.0735 25.3106 27.0835 25.3022 27.0952H25.2988Z" fill="#603A2D"/>
<path d="M25.2608 27.1638C25.2088 27.3059 25.2826 27.463 25.4253 27.5148C25.4706 27.5315 25.5159 27.5466 25.5613 27.5616C25.6066 27.5466 25.6519 27.5315 25.6972 27.5148C25.8399 27.463 25.9137 27.3059 25.8617 27.1638C25.8516 27.1387 25.8382 27.1153 25.8231 27.0952H25.2994C25.2843 27.1153 25.2709 27.1387 25.2608 27.1638Z" fill="#603A2D"/>
<path d="M25.7688 34.1367C22.4672 34.1367 20.0535 27.4329 19.9512 27.1471C19.9008 27.005 19.9763 26.8478 20.119 26.7977C20.2617 26.7475 20.4195 26.8228 20.4698 26.9649C20.4765 26.9816 21.0808 28.6734 22.056 30.3368C22.9305 31.8263 24.2917 33.5984 25.7822 33.59C27.4489 33.5783 29.1022 31.288 30.5642 26.9682C30.6129 26.8244 30.769 26.7475 30.9133 26.796C31.0577 26.8445 31.1349 27 31.0862 27.1437C29.5202 31.7711 27.7376 34.1233 25.7872 34.1383H25.7704L25.7688 34.1367Z" fill="#603A2D"/>
</svg>
