<svg width="50" height="53" viewBox="0 0 50 53" fill="none" xmlns="http://www.w3.org/2000/svg">
<rect y="0.555298" width="50" height="51.8438" rx="25" fill="#DEE4FF"/>
<path d="M28.2759 14.0736C27.7001 16.7291 28.8449 19.2547 30.8305 19.7141C32.8178 20.1734 34.8941 18.3932 35.4715 15.7376C36.0472 13.082 34.8756 10.683 32.8883 10.2237C30.901 9.76431 28.8516 11.4197 28.2759 14.0753V14.0736Z" fill="#D3A56A"/>
<path d="M29.1436 15.0216C28.6921 17.1052 29.4373 19.0518 30.8086 19.369C32.18 19.6862 33.6587 18.2544 34.1102 16.1709C34.5617 14.0873 33.7947 12.2395 32.4233 11.9223C31.052 11.6051 29.5951 12.9381 29.1436 15.0234V15.0216Z" fill="#603A2D"/>
<path d="M21.4674 14.0736C22.0431 16.7291 20.8984 19.2547 18.9127 19.7141C16.9254 20.1734 14.8491 18.3932 14.2717 15.7376C13.696 13.082 14.8676 10.683 16.8549 10.2237C18.8422 9.76431 20.8917 11.4197 21.4674 14.0753V14.0736Z" fill="#D3A56A"/>
<path d="M20.6041 15.0216C21.0556 17.1052 20.3104 19.0518 18.9391 19.369C17.5677 19.6862 16.089 18.2544 15.6375 16.1709C15.186 14.0873 15.953 12.2395 17.3244 11.9223C18.6957 11.6051 20.1526 12.9381 20.6041 15.0234V15.0216Z" fill="#603A2D"/>
<path d="M38.7854 27.4658C37.5115 25.1083 35.8968 24.5658 34.3005 20.0867C32.0044 13.6453 25.6916 13.6869 25.2082 13.6575H25.1058C25.1058 13.6575 24.9615 13.6575 24.9531 13.6575C24.9447 13.6575 24.9397 13.6575 24.9397 13.6575H24.6627C24.2028 13.6661 17.9035 13.6453 15.6073 20.0867C14.0111 24.564 12.5206 25.2366 11.2466 27.594C9.7343 30.39 9.17537 37.107 15.2884 40.1335C16.1981 40.5842 17.1918 40.6899 18.2006 40.7176C19.4426 40.7523 21.3511 40.7974 23.1974 40.1716C23.4441 40.0884 23.6841 40.0156 23.9141 39.9549C24.5956 39.7747 25.3106 39.7747 25.9904 39.9549C26.222 40.0156 26.4604 40.0884 26.7071 40.1716C28.5534 40.7991 30.4602 40.754 31.7039 40.7176C32.7127 40.6899 33.7063 40.5842 34.6161 40.1335C40.7308 37.107 40.2944 30.2617 38.7838 27.464L38.7854 27.4658Z" fill="#D3A56A"/>
<path d="M27.8324 25.1292C27.8324 26.9493 26.7465 28.4261 25.3986 28.4261C24.0508 28.4261 22.9648 26.9493 22.9648 25.1292C22.9648 23.3091 24.0542 22.4667 25.3986 22.4667C26.7431 22.4667 27.8324 23.3091 27.8324 25.1292Z" fill="#603A2D"/>
<path d="M29.7403 23.3959C30.1406 23.355 30.4211 22.8616 30.3667 22.2938C30.3123 21.726 29.9436 21.2988 29.5433 21.3398C29.1429 21.3807 28.8625 21.8741 28.9168 22.4419C28.9712 23.0097 29.3399 23.4368 29.7403 23.3959Z" fill="#603A2D"/>
<path d="M29.686 23.6801C29.1639 23.6801 28.7158 23.1687 28.6487 22.4719C28.6168 22.1391 28.6805 21.8132 28.8283 21.5549C28.9894 21.2724 29.2412 21.0939 29.5181 21.0661C30.077 21.0089 30.5672 21.5376 30.636 22.2691C30.6679 22.6019 30.6041 22.9278 30.4564 23.1861C30.2952 23.4686 30.0435 23.6472 29.7665 23.6749C29.7397 23.6784 29.7111 23.6784 29.6843 23.6784L29.686 23.6801ZM29.597 21.6173C29.5886 21.6173 29.5802 21.6173 29.5701 21.6173C29.4275 21.6312 29.3352 21.7595 29.2915 21.834C29.2026 21.99 29.1639 22.2015 29.1841 22.4147C29.2227 22.8151 29.4711 23.1427 29.7128 23.1185C29.8555 23.1046 29.9478 22.9763 29.9914 22.9001C30.0804 22.7441 30.119 22.5326 30.0989 22.3194C30.0619 21.9328 29.8303 21.6139 29.5953 21.6139L29.597 21.6173Z" fill="#603A2D"/>
<path d="M21.8823 22.45C21.9367 21.8822 21.6562 21.3887 21.2559 21.3478C20.8555 21.3069 20.4869 21.7341 20.4325 22.3019C20.3781 22.8697 20.6585 23.3631 21.0589 23.404C21.4593 23.4449 21.8279 23.0178 21.8823 22.45Z" fill="#603A2D"/>
<path d="M21.1125 23.6853C21.0856 23.6853 21.0588 23.6853 21.0302 23.6819C20.7533 23.6541 20.5015 23.4756 20.3404 23.193C20.1927 22.9348 20.1306 22.6089 20.1625 22.2761C20.2329 21.5446 20.7264 21.0159 21.2803 21.0731C21.8376 21.1303 22.2186 21.7474 22.1498 22.4789C22.0826 23.174 21.6362 23.6871 21.1125 23.6871V23.6853ZM21.2014 21.6243C20.9664 21.6243 20.7348 21.945 20.6979 22.3298C20.6777 22.543 20.7164 22.7545 20.8053 22.9105C20.8473 22.985 20.9413 23.1133 21.0839 23.1272C21.329 23.1497 21.5757 22.8238 21.6127 22.4234C21.6513 22.023 21.4717 21.6503 21.2266 21.626C21.2182 21.626 21.2098 21.626 21.1998 21.626L21.2014 21.6243Z" fill="#603A2D"/>
<path d="M21.467 22.3698C21.6376 22.3698 21.7759 22.2029 21.7759 21.9971C21.7759 21.7912 21.6376 21.6244 21.467 21.6244C21.2965 21.6244 21.1582 21.7912 21.1582 21.9971C21.1582 22.2029 21.2965 22.3698 21.467 22.3698Z" fill="white"/>
<path d="M29.8284 22.3644C29.9989 22.3644 30.1372 22.1975 30.1372 21.9917C30.1372 21.7859 29.9989 21.619 29.8284 21.619C29.6578 21.619 29.5195 21.7859 29.5195 21.9917C29.5195 22.1975 29.6578 22.3644 29.8284 22.3644Z" fill="white"/>
<path d="M24.3828 30.1733L24.4265 30.7263C24.4416 30.9291 24.6061 31.0834 24.8024 31.0834H26.063C26.2594 31.0834 26.4222 30.9274 26.439 30.7263L26.4809 30.1803C26.1536 30.1491 25.7927 30.0711 25.3949 29.9307C25.0273 30.0607 24.69 30.1369 24.3828 30.1716V30.1733Z" fill="white"/>
<path d="M23.7344 30.4696C22.7273 30.4696 22.0341 29.7607 21.5557 29.2684C21.3308 29.0378 21.1227 28.9321 20.9632 28.868C20.4983 28.6807 20.0014 29.0777 19.9964 29.0829C19.9007 29.1834 19.7429 29.1869 19.6439 29.0881C19.5449 28.9893 19.5432 28.8264 19.6389 28.7258C19.6674 28.6946 20.369 28.0793 21.1428 28.3895C21.3996 28.4918 21.6296 28.6235 21.9048 28.9044C22.6366 29.6549 23.5481 30.5875 25.2551 29.3654C25.3675 29.284 25.5236 29.3134 25.6008 29.4296C25.6797 29.5457 25.6512 29.7069 25.5387 29.7867C24.8455 30.2824 24.248 30.4679 23.7327 30.4679L23.7344 30.4696Z" fill="#603A2D"/>
<path d="M27.1026 30.4696C28.1097 30.4696 28.8029 29.7607 29.2812 29.2684C29.5061 29.0378 29.7143 28.9321 29.8737 28.868C30.3387 28.6807 30.8355 29.0777 30.8405 29.0829C30.9362 29.1834 31.094 29.1869 31.193 29.0881C31.2921 28.9893 31.2937 28.8264 31.1981 28.7258C31.1695 28.6946 30.4679 28.0793 29.6941 28.3895C29.4373 28.4918 29.2074 28.6235 28.9321 28.9044C28.2003 29.6549 27.2889 30.5875 25.5819 29.3654C25.4694 29.284 25.3133 29.3134 25.2361 29.4296C25.1572 29.5457 25.1857 29.7069 25.2982 29.7867C25.9914 30.2824 26.589 30.4679 27.1042 30.4679L27.1026 30.4696Z" fill="#603A2D"/>
</svg>
