<svg width="50" height="53" viewBox="0 0 50 53" fill="none" xmlns="http://www.w3.org/2000/svg">
<rect y="0.555298" width="50" height="51.8438" rx="25" fill="#FDDDEC"/>
<path d="M22.2901 45.2003V44.1694C21.9283 44.1775 21.5962 44.1694 21.3518 44.1613C20.9413 44.1532 21.0384 44.1613 20.639 44.1613C20.2771 44.1613 19.8478 44.1175 19.652 43.9068C19.486 43.7317 19.4766 43.4853 19.6223 43.2827C19.8181 43.0006 20.2285 42.9925 20.6578 42.9925H22.2901V42.5435C22.2901 42.3587 22.2901 42.2711 22.2698 42.0766C22.2604 42.015 22.251 41.8837 22.1821 41.8562C22.1131 41.8205 22.0254 41.8383 21.9471 41.8302C21.8593 41.8221 21.7716 41.8383 20.3648 41.8302C20.2677 41.8383 20.1784 41.8302 20.0813 41.8302C19.934 41.8302 19.768 41.8302 19.6411 41.7508C19.4546 41.6373 19.4061 41.4428 19.4061 41.258C19.3967 41.1429 19.4249 41.0294 19.4844 40.9241C19.5142 40.8625 19.5533 40.809 19.6113 40.7749C19.6802 40.7133 19.8259 40.6696 19.9136 40.6517C20.1878 40.5901 20.4995 40.5983 20.7831 40.5983H22.6787C22.8447 40.6161 23.0499 40.6339 23.2066 40.6858C23.3037 40.7214 23.4212 40.783 23.4807 40.8609C23.5982 41.0278 23.5982 41.1867 23.617 41.3796C23.6468 41.7054 23.6374 42.0296 23.6374 42.3554V44.9961C23.6374 45.022 23.6562 45.1047 23.6374 45.4743C23.617 45.7126 23.5591 46.0027 23.2176 46.1162C23.1001 46.16 22.9826 46.1778 22.8854 46.1778C22.7194 46.1778 22.5236 46.1162 22.4562 45.9849C22.3591 45.8098 22.2995 45.5894 22.2995 45.3608V45.1355C22.2901 44.9945 22.2901 45.3397 22.2901 45.2003Z" fill="#844D31"/>
<path d="M29.2365 45.2003V44.2585C28.8746 44.2666 28.5425 44.2585 28.2981 44.2504C27.8877 44.2423 27.8783 44.2504 27.4772 44.2504C27.1154 44.2504 26.7833 44.2148 26.4903 43.9862C26.2945 43.8273 26.2162 43.6247 26.3634 43.4237C26.5389 43.1773 26.8428 43.1335 27.1248 43.0979C27.4772 43.0541 27.1436 43.0979 27.496 43.08H29.235V42.798C29.235 42.6132 29.235 42.2695 29.2162 42.0766C29.2068 42.015 29.1958 41.8837 29.1284 41.8562C29.0595 41.8205 28.9718 41.8383 28.8934 41.8302C28.8057 41.8221 28.718 41.8383 28.6303 41.8302H27.8689C27.6543 41.8383 27.4193 41.8221 27.2047 41.8302C27.1075 41.8383 27.0182 41.8302 26.9211 41.8302C26.7739 41.8302 26.6078 41.8302 26.4809 41.7508C26.2945 41.6373 26.2459 41.4428 26.2459 41.258C26.2365 41.1429 26.2647 41.0294 26.3242 40.9241C26.354 40.8625 26.3932 40.809 26.4511 40.7749C26.5201 40.7133 26.6658 40.6696 26.7535 40.6517C27.0276 40.5901 27.3394 40.5983 27.6229 40.5983H29.6266C29.7927 40.6161 29.9979 40.6339 30.1545 40.6858C30.2517 40.7214 30.3692 40.783 30.4287 40.8609C30.5462 41.0278 30.5462 41.1867 30.565 41.3796C30.5947 41.7054 30.5838 42.0296 30.5838 42.3554V44.9961C30.5838 45.022 30.6026 45.1047 30.5838 45.4743C30.565 45.7126 30.5055 46.0027 30.1639 46.1162C30.0464 46.16 29.9289 46.1778 29.8318 46.1778C29.6658 46.1778 29.4699 46.1162 29.4026 45.9849C29.3054 45.8098 29.2459 45.5894 29.2459 45.3608V45.1355C29.2365 44.9945 29.2365 45.3397 29.2365 45.2003Z" fill="#844D31"/>
<path d="M28.0569 12.7653C27.5196 15.2487 28.588 17.6105 30.4413 18.0401C32.2961 18.4697 34.234 16.8049 34.7729 14.3215C35.3102 11.8381 34.2167 9.59458 32.3619 9.16501C30.5071 8.73543 28.5943 10.2835 28.0569 12.7669V12.7653Z" fill="#D3A56A"/>
<path d="M28.8662 13.6519C28.4448 15.6004 29.1404 17.4208 30.4203 17.7174C31.7002 18.0141 33.0804 16.6751 33.5018 14.7266C33.9232 12.7782 33.2072 11.0502 31.9273 10.7535C30.6475 10.4569 29.2877 11.7034 28.8662 13.6535V13.6519Z" fill="#603A2D"/>
<path d="M21.7025 12.7653C22.2398 15.2487 21.1714 17.6105 19.3182 18.0401C17.4633 18.4697 15.5255 16.8049 14.9866 14.3215C14.4492 11.8381 15.5427 9.59458 17.3975 9.16501C19.2524 8.73543 21.1652 10.2835 21.7025 12.7669V12.7653Z" fill="#D3A56A"/>
<path d="M20.8972 13.6519C21.3186 15.6004 20.623 17.4208 19.3431 17.7174C18.0632 18.0141 16.6831 16.6751 16.2617 14.7266C15.8402 12.7782 16.5562 11.0502 17.8361 10.7535C19.116 10.4569 20.4758 11.7034 20.8972 13.6535V13.6519Z" fill="#603A2D"/>
<path d="M37.8664 25.2892C36.6774 23.0846 35.1703 22.5772 33.6805 18.3885C31.5374 12.3648 25.6455 12.4037 25.1943 12.3761H25.0988C25.0988 12.3761 24.964 12.3761 24.9562 12.3761C24.9484 12.3761 24.9437 12.3761 24.9437 12.3761H24.6852C24.2559 12.3842 18.3766 12.3648 16.2335 18.3885C14.7437 22.5756 13.3525 23.2045 12.1635 25.4091C10.752 28.0238 10.2303 34.3053 15.9358 37.1356C16.7849 37.5571 17.7123 37.656 18.6539 37.6819C19.8131 37.7143 21.5943 37.7565 23.3176 37.1713C23.5479 37.0935 23.7719 37.0254 23.9865 36.9687C24.6225 36.8001 25.2899 36.8001 25.9244 36.9687C26.1405 37.0254 26.363 37.0935 26.5933 37.1713C28.3165 37.7581 30.0962 37.7159 31.257 37.6819C32.1985 37.656 33.1259 37.5571 33.975 37.1356C39.6821 34.3053 39.2748 27.9039 37.8648 25.2876L37.8664 25.2892Z" fill="#D3A56A"/>
</svg>
