<svg width="50" height="53" viewBox="0 0 50 53" fill="none" xmlns="http://www.w3.org/2000/svg">
<rect y="0.555298" width="50" height="51.8438" rx="25" fill="#FFF7B0"/>
<path d="M28.2749 16.0374C27.6992 18.5986 28.8439 21.0343 30.8295 21.4773C32.8168 21.9203 34.8931 20.2034 35.4705 17.6423C36.0479 15.0812 34.8747 12.7675 32.8873 12.3245C30.9 11.8815 28.8506 13.478 28.2749 16.0391V16.0374Z" fill="#D3A56A"/>
<path d="M29.1426 16.9518C28.6911 18.9613 29.4364 20.8387 30.8077 21.1446C32.179 21.4505 33.6577 20.0697 34.1092 18.0602C34.5608 16.0508 33.7937 14.2687 32.4224 13.9628C31.051 13.6568 29.5941 14.9424 29.1426 16.9535V16.9518Z" fill="#603A2D"/>
<path d="M21.4674 16.0374C22.0431 18.5986 20.8984 21.0343 18.9127 21.4773C16.9254 21.9203 14.8491 20.2034 14.2717 17.6423C13.696 15.0812 14.8676 12.7675 16.8549 12.3245C18.8422 11.8815 20.8917 13.478 21.4674 16.0391V16.0374Z" fill="#D3A56A"/>
<path d="M20.6041 16.9518C21.0556 18.9613 20.3104 20.8387 18.9391 21.1446C17.5677 21.4505 16.089 20.0697 15.6375 18.0602C15.186 16.0508 15.953 14.2687 17.3244 13.9628C18.6957 13.6568 20.1526 14.9424 20.6041 16.9535V16.9518Z" fill="#603A2D"/>
<path d="M38.7854 28.9534C37.5115 26.6798 35.8968 26.1566 34.3005 21.8368C32.0044 15.6245 25.6916 15.6647 25.2082 15.6362H25.1058C25.1058 15.6362 24.9615 15.6362 24.9531 15.6362C24.9447 15.6362 24.9397 15.6362 24.9397 15.6362H24.6627C24.2028 15.6446 17.9035 15.6245 15.6073 21.8368C14.0111 26.1549 12.5206 26.8035 11.2466 29.0771C9.7343 31.7737 9.17537 38.2517 15.2884 41.1706C16.1981 41.6052 17.1918 41.7072 18.2006 41.734C19.4426 41.7674 21.3511 41.8109 23.1974 41.2074C23.4441 41.1271 23.6841 41.0569 23.9141 40.9984C24.5956 40.8245 25.3106 40.8245 25.9904 40.9984C26.222 41.0569 26.4604 41.1271 26.7071 41.2074C28.5534 41.8125 30.4602 41.7691 31.7039 41.734C32.7127 41.7072 33.7064 41.6052 34.6161 41.1706C40.7308 38.2517 40.2944 31.6499 38.7838 28.9517L38.7854 28.9534Z" fill="#D3A56A"/>
<path d="M27.8324 26.6999C27.8324 28.4552 26.7465 29.8796 25.3986 29.8796C24.0508 29.8796 22.9648 28.4552 22.9648 26.6999C22.9648 24.9446 24.0542 24.1321 25.3986 24.1321C26.7431 24.1321 27.8324 24.9446 27.8324 26.6999Z" fill="#603A2D"/>
<path d="M21.546 24.458C21.6467 24.4764 21.744 24.4213 21.7474 24.3477C21.7625 23.9364 21.029 23.5586 20.6866 23.5101C20.2938 23.4533 19.6728 23.5737 19.4798 23.9615C19.4479 24.025 19.5033 24.0953 19.5956 24.112L20.3341 24.1538C20.4063 24.1571 20.4785 24.1638 20.549 24.1772C20.554 24.1772 20.5574 24.1772 20.5624 24.1788C20.6228 24.1906 20.6832 24.2056 20.742 24.2223L21.5493 24.4564L21.546 24.458Z" fill="#603A2D"/>
<path d="M21.5849 24.7389C21.5564 24.7389 21.5278 24.7372 21.4993 24.7322L21.4708 24.7255L20.6634 24.4914C20.6013 24.473 20.5543 24.4613 20.5124 24.4547L20.5476 24.234L20.5006 24.453C20.4385 24.4413 20.3697 24.4363 20.3176 24.4346L19.5472 24.3895C19.4213 24.3677 19.319 24.2992 19.2636 24.2039C19.2149 24.117 19.2115 24.0167 19.2552 23.9297C19.5086 23.4198 20.2673 23.2828 20.7255 23.3496C21.1149 23.4048 22.0146 23.8344 21.9945 24.4145C21.9911 24.5098 21.9391 24.6001 21.8535 24.6603C21.7779 24.7138 21.6823 24.7422 21.5849 24.7422V24.7389ZM20.6097 24.0167C20.6886 24.0317 20.7608 24.0518 20.8162 24.0668L21.4489 24.2507C21.3046 24.0417 20.895 23.8211 20.6483 23.786C20.4133 23.7525 20.0457 23.801 19.8342 23.9598L20.3479 23.9882C20.415 23.9916 20.504 23.9983 20.5946 24.015L20.561 24.2357L20.6097 24.0167Z" fill="#603A2D"/>
<path d="M29.02 24.4513C28.9193 24.4697 28.8219 24.4145 28.8186 24.341C28.8035 23.9297 29.537 23.5519 29.8794 23.5034C30.2722 23.4466 30.8932 23.567 31.0862 23.9548C31.1181 24.0183 31.0627 24.0885 30.9704 24.1053L30.2319 24.1471C30.1597 24.1504 30.0875 24.1571 30.017 24.1705C30.012 24.1705 30.0086 24.1705 30.0036 24.1721C29.9432 24.1838 29.8827 24.1989 29.824 24.2156L29.0166 24.4496L29.02 24.4513Z" fill="#603A2D"/>
<path d="M28.9832 24.6771C28.8858 24.6771 28.7885 24.6487 28.7146 24.5952C28.629 24.5333 28.577 24.4431 28.5736 24.3494C28.5518 23.7693 29.4532 23.3414 29.8426 23.2845C30.3008 23.2193 31.0595 23.3564 31.3129 23.8646C31.3566 23.9532 31.3532 24.0535 31.3045 24.1388C31.2491 24.2341 31.1467 24.3026 31.0209 24.3244L30.989 24.3277L30.2504 24.3695C30.1984 24.3728 30.1313 24.3779 30.0675 24.3879L30.0071 24.1722L30.0557 24.3912C30.0121 24.3996 29.9651 24.4113 29.9047 24.428L29.0688 24.6687C29.0402 24.6738 29.0117 24.6754 28.9832 24.6754V24.6771ZM30.0708 23.7125C30.0171 23.7125 29.9651 23.7158 29.9181 23.7225C29.673 23.7576 29.2618 23.98 29.1175 24.1873L29.7502 24.0034C29.8308 23.98 29.8929 23.9649 29.9567 23.9532L30.0188 24.1689L29.9718 23.9499C30.0624 23.9332 30.1514 23.9282 30.2185 23.9231L30.7322 23.8947C30.5626 23.7677 30.2924 23.7108 30.0708 23.7108V23.7125Z" fill="#603A2D"/>
<path d="M20.041 30.0016L21.4039 32.9422L22.8122 35.0436L24.7962 36.6017L26.8791 36.488L28.2807 35.3964L29.0595 34.0941L30.8571 30.137C30.8571 30.137 31.4883 29.1841 31.0401 29.042C30.5919 28.8999 29.84 29.042 29.84 29.042C29.84 29.042 28.8245 29.7893 28.7708 29.796C28.7171 29.8027 27.6882 30.2708 27.6882 30.2708L26.4075 30.3711L25.4927 30.1387L24.3547 30.3711L22.8978 30.2708L22.0669 29.8328L21.513 29.3262L20.6151 28.9802H20.3717C20.3717 28.9802 19.3176 28.935 20.0427 30.0016H20.041Z" fill="#B25F5F"/>
<path d="M25.9571 36.8039C26.2793 36.8023 26.6016 36.7137 26.9222 36.5415L26.8651 35.831C26.8483 35.6153 26.6671 35.4498 26.4505 35.4498H25.0591C24.8426 35.4498 24.6613 35.6153 24.6445 35.831L24.6025 36.4863C25.0255 36.8023 25.4804 36.8023 25.9453 36.8023C25.9504 36.8023 25.9537 36.8023 25.9588 36.8023L25.9571 36.8039Z" fill="white"/>
<path d="M25.9589 37.0781H25.9438C25.4705 37.0781 24.9334 37.0781 24.4366 36.707L24.3174 36.6184L24.3694 35.8143C24.3979 35.4549 24.7018 35.1774 25.0576 35.1774H26.4491C26.8066 35.1774 27.1087 35.4549 27.1372 35.8093L27.2094 36.6987L27.0516 36.7839C26.6908 36.9762 26.3232 37.0765 25.9589 37.0781ZM24.8864 36.3476C25.2036 36.5298 25.5511 36.5298 25.9438 36.5298L25.9573 36.804V36.5298C26.1771 36.5298 26.4054 36.4763 26.6337 36.3777L26.5917 35.8544C26.585 35.7825 26.5246 35.7257 26.4507 35.7257H25.0593C24.9854 35.7257 24.925 35.7825 24.9183 35.8544L24.8864 36.3476Z" fill="#603A2D"/>
<path d="M24.4434 30.8191L24.492 31.4093C24.5088 31.6249 24.6901 31.7904 24.9066 31.7904H26.2981C26.5146 31.7904 26.6959 31.6249 26.7127 31.4093L26.7597 30.8292C26.3988 30.7957 25.9993 30.7121 25.5595 30.5634C25.1534 30.7021 24.7824 30.784 24.4434 30.8208V30.8191Z" fill="white"/>
<path d="M26.2979 32.0629H24.9064C24.5489 32.0629 24.2468 31.7854 24.2182 31.431L24.1494 30.5767L24.4146 30.5466C24.747 30.5098 25.1028 30.4279 25.4721 30.3026L25.561 30.2725L25.65 30.3026C26.0495 30.438 26.4321 30.5232 26.7863 30.555L27.0582 30.5801L26.9894 31.431C26.9609 31.7854 26.6587 32.0629 26.3012 32.0629H26.2979ZM24.7386 31.0548L24.7654 31.3875C24.7721 31.4594 24.8326 31.5162 24.9064 31.5162H26.2979C26.3717 31.5162 26.4321 31.4594 26.4389 31.3875L26.464 31.0682C26.1737 31.0247 25.8715 30.9512 25.5593 30.8509C25.2774 30.9428 25.0021 31.0097 24.7369 31.0548H24.7386Z" fill="#603A2D"/>
<path d="M25.326 30.0635C25.2908 30.0752 25.2589 30.0852 25.2236 30.0952H25.2975C25.3059 30.0835 25.3143 30.0735 25.3243 30.0635H25.326Z" fill="#333333"/>
<path d="M21.8152 29.3596C21.5567 29.1423 21.3318 28.9567 21.0901 28.8915C20.2442 28.6658 19.4402 29.2994 19.4066 29.3278C19.2891 29.4231 19.2706 29.5937 19.3646 29.7123C19.4586 29.831 19.6315 29.8494 19.7507 29.7558C19.7574 29.7508 20.3751 29.2677 20.9474 29.4215C21.0716 29.4549 21.2613 29.612 21.461 29.7809C21.9747 30.2089 22.7367 30.8458 24.0023 30.8458C24.1433 30.8458 24.291 30.8374 24.4437 30.8207L24.4001 30.2774C23.0959 30.4295 22.3725 29.8277 21.8152 29.363V29.3596Z" fill="#603A2D"/>
<path d="M25.7946 30.0634C25.7341 30.0033 25.6469 29.9732 25.5596 29.9865C25.5764 29.9899 25.5948 29.9932 25.6116 29.9999C25.6737 30.0216 25.7341 30.0434 25.7929 30.0634H25.7946Z" fill="#333333"/>
<path d="M25.4252 30.5148C25.2826 30.463 25.2087 30.3059 25.2607 30.1638C25.2708 30.1387 25.2842 30.1153 25.2994 30.0952H25.2255C24.9267 30.1872 24.6531 30.2457 24.4014 30.2741L24.445 30.8174C24.7841 30.7806 25.155 30.6987 25.5612 30.56C25.5159 30.5449 25.4706 30.5299 25.4252 30.5132V30.5148Z" fill="#603A2D"/>
<path d="M25.8215 30.0952H25.8954C25.8618 30.0852 25.8282 30.0752 25.793 30.0635C25.803 30.0735 25.8114 30.0835 25.8198 30.0952H25.8215Z" fill="#333333"/>
<path d="M31.7146 29.3279C31.6811 29.3011 30.8754 28.6659 30.0311 28.8915C29.7894 28.9567 29.5662 29.144 29.306 29.3596C28.7605 29.816 28.0572 30.4028 26.8034 30.2841L26.7598 30.8274C26.884 30.8391 27.0031 30.8442 27.1173 30.8442C28.3829 30.8442 29.1449 30.2072 29.6585 29.7792C29.8582 29.6121 30.0479 29.4533 30.1721 29.4198C30.7428 29.2677 31.3588 29.7458 31.3689 29.7542C31.4864 29.8478 31.6592 29.8294 31.7549 29.7124C31.8506 29.5954 31.8321 29.4215 31.713 29.3279H31.7146Z" fill="#603A2D"/>
<path d="M25.5612 29.9865C25.4739 29.9732 25.3883 30.0033 25.3262 30.0634C25.3866 30.0434 25.447 30.0233 25.5074 29.9999C25.5242 29.9932 25.5427 29.9899 25.5595 29.9865H25.5612Z" fill="#333333"/>
<path d="M25.8972 30.0952H25.8234C25.8385 30.1153 25.8519 30.1387 25.862 30.1638C25.914 30.3059 25.8402 30.463 25.6975 30.5148C25.6522 30.5315 25.6068 30.5466 25.5615 30.5616C26.0013 30.7104 26.4008 30.7957 26.7616 30.8274L26.8053 30.2841C26.53 30.259 26.2296 30.1972 25.8972 30.0952Z" fill="#603A2D"/>
<path d="M25.2988 30.0952H25.8225C25.8141 30.0835 25.8057 30.0735 25.7957 30.0635C25.7352 30.0434 25.6748 30.0234 25.6144 29.9999C25.5976 29.9933 25.5791 29.9899 25.5623 29.9866C25.5439 29.9899 25.5271 29.9933 25.5103 29.9999C25.4482 30.0217 25.3878 30.0434 25.329 30.0635C25.319 30.0735 25.3106 30.0835 25.3022 30.0952H25.2988Z" fill="#603A2D"/>
<path d="M25.2608 30.1638C25.2088 30.3059 25.2826 30.463 25.4253 30.5148C25.4706 30.5315 25.5159 30.5466 25.5613 30.5616C25.6066 30.5466 25.6519 30.5315 25.6972 30.5148C25.8399 30.463 25.9137 30.3059 25.8617 30.1638C25.8516 30.1387 25.8382 30.1153 25.8231 30.0952H25.2994C25.2843 30.1153 25.2709 30.1387 25.2608 30.1638Z" fill="#603A2D"/>
<path d="M25.7688 37.1367C22.4672 37.1367 20.0535 30.4329 19.9512 30.1471C19.9008 30.005 19.9763 29.8478 20.119 29.7977C20.2617 29.7475 20.4195 29.8228 20.4698 29.9649C20.4765 29.9816 21.0808 31.6734 22.056 33.3368C22.9305 34.8263 24.2917 36.5984 25.7822 36.59C27.4489 36.5783 29.1022 34.288 30.5642 29.9682C30.6129 29.8244 30.769 29.7475 30.9133 29.796C31.0577 29.8445 31.1349 30 31.0862 30.1437C29.5202 34.7711 27.7376 37.1233 25.7872 37.1383H25.7704L25.7688 37.1367Z" fill="#603A2D"/>
</svg>
