<svg width="50" height="53" viewBox="0 0 50 53" fill="none" xmlns="http://www.w3.org/2000/svg">
<rect y="0.87854" width="50" height="51.8438" rx="25" fill="#F0F0F0"/>
<path fill-rule="evenodd" clip-rule="evenodd" d="M13 17H38V36.48H13V17ZM15 19V34.48H36V19H15Z" fill="#7C3D1A"/>
<path fill-rule="evenodd" clip-rule="evenodd" d="M23.402 23.2837L27.2631 29.9828L29.6042 26.8869L34.3622 34.9729L32.6385 35.9871L29.3964 30.4775L27.0376 33.5968L23.3986 27.283L18.3659 35.9808L16.6348 34.9792L23.402 23.2837Z" fill="#7C3D1A"/>
<path fill-rule="evenodd" clip-rule="evenodd" d="M32.25 22.8844C31.808 22.8844 31.5 23.225 31.5 23.5838C31.5 23.9427 31.808 24.2833 32.25 24.2833C32.692 24.2833 33 23.9427 33 23.5838C33 23.225 32.692 22.8844 32.25 22.8844ZM29.5 23.5838C29.5 22.0656 30.7591 20.8844 32.25 20.8844C33.7409 20.8844 35 22.0656 35 23.5838C35 25.1021 33.7409 26.2833 32.25 26.2833C30.7591 26.2833 29.5 25.1021 29.5 23.5838Z" fill="#7C3D1A"/>
</svg>
