<svg width="50" height="50" viewBox="0 0 50 50" fill="none" xmlns="http://www.w3.org/2000/svg">
<rect width="50" height="50" rx="25" fill="#D2FBF4"/>
<path d="M38.6591 27.65C37.4112 25.4388 35.709 24.929 34.146 20.7288C33.9859 20.3 33.8049 19.9022 33.6065 19.5285C34.3688 18.8534 34.9675 17.8563 35.2356 16.6749C35.7995 14.1847 34.6525 11.9339 32.7084 11.5034C30.7765 11.0745 28.7836 12.6038 28.204 15.0664C25.9693 14.3053 23.7467 14.3449 21.538 15.156C21.5346 15.1422 21.5328 15.1284 21.5293 15.1147C20.9672 12.6245 18.9604 11.0728 17.0145 11.5034C15.0687 11.9339 13.9235 14.1847 14.4874 16.6749C14.7763 17.9527 15.4533 19.0135 16.3062 19.6869C16.1408 20.0124 15.9877 20.3602 15.8502 20.7271C14.2872 24.9273 12.585 25.4371 11.3371 27.6483C9.85771 30.2711 9.55313 37.0528 15.5386 39.8909C16.428 40.3128 17.4027 40.5332 18.3895 40.5591C19.6061 40.5918 21.4736 40.5143 23.2802 39.9253C23.5222 39.8461 23.7571 39.7789 23.9834 39.7221C24.65 39.5533 25.3497 39.5533 26.0163 39.7221C26.2425 39.7789 26.4758 39.8461 26.7194 39.9253C28.526 40.5126 30.3936 40.5918 31.6102 40.5591C32.597 40.5315 33.5699 40.3128 34.4611 39.8909C40.4465 37.0528 40.142 30.2711 38.6626 27.6483L38.6591 27.65Z" fill="#FFBF69"/>
<path d="M27.9439 26.2842C27.9439 28.3955 26.6298 30.1056 25.0008 30.1056C23.3717 30.1056 22.0576 28.3938 22.0576 26.2842C22.0576 24.1746 23.3752 23.1981 25.0008 23.1981C26.6264 23.1981 27.9439 24.1746 27.9439 26.2842Z" fill="#E98C00"/>
</svg>
