<svg width="50" height="50" viewBox="0 0 50 50" fill="none" xmlns="http://www.w3.org/2000/svg">
<rect width="50" height="50" rx="25" fill="#F0F0F0"/>
<path fill-rule="evenodd" clip-rule="evenodd" d="M21.136 15H29.0845L31.3823 18.1667H38.0001V30.7778C38.0001 33.6209 35.745 36 32.915 36H17.5958C14.7659 36 12.5107 33.6209 12.5107 30.7778V18.1667H19.0934L21.136 15ZM22.2259 17L20.1834 20.1667H14.5107V30.7778C14.5107 32.5791 15.9322 34 17.5958 34H32.915C34.5787 34 36.0001 32.5791 36.0001 30.7778V20.1667H30.3625L28.0647 17H22.2259Z" fill="#7C3D1A"/>
<path fill-rule="evenodd" clip-rule="evenodd" d="M17.0851 18.0555H13V16.0555H17.0851V18.0555Z" fill="#7C3D1A"/>
<path fill-rule="evenodd" clip-rule="evenodd" d="M25.2549 23.3334C23.2999 23.3334 21.6592 24.9809 21.6592 27.0834C21.6592 29.1858 23.2999 30.8334 25.2549 30.8334C27.2099 30.8334 28.8507 29.1858 28.8507 27.0834C28.8507 24.9809 27.2099 23.3334 25.2549 23.3334ZM19.6592 27.0834C19.6592 23.9391 22.1336 21.3334 25.2549 21.3334C28.3762 21.3334 30.8507 23.9391 30.8507 27.0834C30.8507 30.2276 28.3762 32.8334 25.2549 32.8334C22.1336 32.8334 19.6592 30.2276 19.6592 27.0834Z" fill="#7C3D1A"/>
<path d="M33.9363 23.3888C34.5004 23.3888 34.9576 22.9162 34.9576 22.3333C34.9576 21.7503 34.5004 21.2777 33.9363 21.2777C33.3723 21.2777 32.915 21.7503 32.915 22.3333C32.915 22.9162 33.3723 23.3888 33.9363 23.3888Z" fill="#7C3D1A"/>
</svg>
