<svg width="50" height="52" viewBox="0 0 50 52" fill="none" xmlns="http://www.w3.org/2000/svg">
<rect width="50" height="51.8438" rx="25" fill="#EBD9F3"/>
<g clip-path="url(#clip0_2432_1565)">
<path d="M31.8928 21.2214C31.6419 21.2214 31.3889 21.1957 31.1381 21.1423C28.8116 20.6464 27.4556 17.9591 28.1149 15.1533C28.428 13.8176 29.1496 12.6637 30.1449 11.905C31.1588 11.1324 32.351 10.8419 33.5018 11.0869C34.6526 11.3319 35.6002 12.0788 36.1725 13.1913C36.7323 14.282 36.8692 15.6177 36.554 16.9554C35.9651 19.4588 33.9704 21.2233 31.8949 21.2233L31.8928 21.2214ZM32.7015 11.7904C31.9965 11.7904 31.2915 12.0393 30.6632 12.5195C29.8152 13.1656 29.1973 14.1614 28.9236 15.3233C28.3637 17.7042 29.4378 19.9686 31.3184 20.3697C33.197 20.7689 35.1834 19.1605 35.7433 16.7795C36.017 15.6177 35.9029 14.4657 35.426 13.5371C34.9678 12.6459 34.2192 12.0492 33.3194 11.8575C33.1141 11.8141 32.9088 11.7923 32.7015 11.7923V11.7904Z" fill="#CC8E3E"/>
<path d="M17.9287 21.2214C15.8532 21.2214 13.8564 19.4569 13.2696 16.9534C12.9565 15.6177 13.0913 14.28 13.6512 13.1893C14.2234 12.0769 15.171 11.33 16.3218 11.085C17.4726 10.84 18.6648 11.1304 19.6788 11.903C20.674 12.6617 21.3956 13.8157 21.7087 15.1514C22.3681 17.9572 21.012 20.6444 18.6856 21.1404C18.4347 21.1937 18.1817 21.2194 17.9308 21.2194L17.9287 21.2214ZM17.1201 11.7904C16.9127 11.7904 16.7075 11.8121 16.5022 11.8556C15.6023 12.0472 14.8538 12.644 14.3955 13.5351C13.9166 14.4658 13.8046 15.6177 14.0783 16.7776C14.6381 19.1585 16.6225 20.7689 18.5031 20.3678C20.3837 19.9667 21.4578 17.7023 20.898 15.3213C20.6243 14.1595 20.0084 13.1636 19.1583 12.5175C18.5301 12.0393 17.823 11.7884 17.1201 11.7884V11.7904Z" fill="#CC8E3E"/>
<path d="M19.6655 42C19.1886 42 18.7428 41.9841 18.3427 41.9683C18.1623 41.9624 17.9902 41.9545 17.8284 41.9506C16.6714 41.9209 15.5766 41.672 14.5731 41.2135C12.0393 40.0557 10.2789 38.1766 9.47854 35.7778C8.52059 32.9009 9.13019 29.8047 10.1027 28.1449C10.6003 27.2972 11.1145 26.6926 11.6619 26.0544C12.6302 24.9202 13.6317 23.7485 14.6996 20.9822C17.0695 14.8451 23.4061 14.4499 24.6523 14.4341H24.9882H25.0068C24.9944 14.4341 25.1582 14.4341 25.1582 14.4341H25.2909C25.3095 14.4341 25.3386 14.4361 25.378 14.438C27.6298 14.5171 33.1038 15.3114 35.2933 20.9822C36.3612 23.7485 37.3627 24.9202 38.331 26.0544C38.8763 26.6946 39.3926 27.2972 39.8902 28.1449C40.8627 29.8047 41.4723 32.9009 40.5144 35.7778C39.7161 38.1766 37.9536 40.0576 35.4198 41.2135C34.4163 41.672 33.3215 41.9189 32.1645 41.9506C32.0027 41.9545 31.8306 41.9604 31.6502 41.9683C30.3274 42.0158 28.5131 42.0829 26.7257 41.5238C26.4811 41.4467 26.2322 41.3775 25.9917 41.3183C25.3386 41.1602 24.6481 41.1602 23.995 41.3183C23.7544 41.3775 23.5077 41.4467 23.2609 41.5238C22.0148 41.913 20.7562 42 19.6593 42H19.6655ZM25.0006 40.4094C25.4049 40.4094 25.8113 40.4568 26.2053 40.5536C26.4645 40.6168 26.7299 40.6899 26.9932 40.7729C28.6375 41.2886 30.3647 41.2254 31.6254 41.18C31.8099 41.174 31.9841 41.1661 32.1479 41.1622C33.1867 41.1345 34.1695 40.9132 35.0673 40.5042C37.4228 39.4293 38.9904 37.7597 39.7285 35.5407C40.6118 32.8891 40.0582 30.0497 39.1708 28.5322C38.7084 27.7438 38.2149 27.1668 37.6924 26.5543C36.7282 25.4261 35.6355 24.1457 34.5199 21.2569C32.5024 16.0346 27.4369 15.3015 25.351 15.2284C25.3116 15.2284 25.2805 15.2264 25.2577 15.2244H24.6668C23.0495 15.2462 17.6086 15.7461 15.4813 21.2569C14.3657 24.1457 13.273 25.4261 12.3088 26.5543C11.7863 27.1668 11.2928 27.7438 10.8304 28.5322C9.943 30.0477 9.38938 32.8871 10.2727 35.5407C11.0108 37.7577 12.5805 39.4273 14.9339 40.5042C15.8317 40.9152 16.8145 41.1365 17.8533 41.1622C18.0171 41.1661 18.1913 41.1721 18.3758 41.18C19.6365 41.2254 21.3637 41.2886 23.008 40.7729C23.2713 40.6899 23.5367 40.6168 23.7959 40.5536C24.1899 40.4568 24.5942 40.4094 25.0006 40.4094Z" fill="#CC8E3E"/>
<path d="M25.2685 30.1702C23.618 30.1702 22.2744 28.546 22.2744 26.5503C22.2744 24.7285 23.4501 23.5509 25.2685 23.5509C27.087 23.5509 28.2626 24.7285 28.2626 26.5503C28.2626 28.546 26.919 30.1702 25.2685 30.1702ZM25.2685 24.3413C24.6174 24.3413 23.1038 24.5566 23.1038 26.5503C23.1038 28.0836 24.0949 29.3798 25.2685 29.3798C26.4421 29.3798 27.4332 28.1093 27.4332 26.5503C27.4332 24.5566 25.9196 24.3413 25.2685 24.3413Z" fill="#CC8E3E"/>
<path d="M13.085 22.8238C16.1371 21.2431 25.6378 17.3288 36.7703 22.7428C36.9424 22.8258 36.8366 23.0747 36.6542 23.0174C33.0194 21.905 24.5948 20.1682 13.2031 23.0945C13.0248 23.1399 12.9232 22.9068 13.085 22.8218V22.8238Z" fill="#D1A669"/>
<path d="M13.1551 23.4976C12.927 23.4976 12.7176 23.3671 12.6284 23.1537C12.5206 22.8949 12.6284 22.6104 12.8856 22.476C14.4179 21.6837 17.6172 20.2768 21.843 19.769C27.0142 19.1466 32.0984 20.0298 36.9566 22.3911C37.2241 22.5215 37.3402 22.8198 37.2261 23.0846C37.1121 23.3474 36.8114 23.4818 36.5253 23.3928C32.623 22.1994 24.4162 20.6226 13.3085 23.4758C13.2567 23.4897 13.2049 23.4956 13.1551 23.4956V23.4976ZM25.0424 20.3657C24.016 20.3657 22.9834 20.429 21.9487 20.5535C19.3984 20.8597 17.2336 21.5039 15.608 22.1322C23.3069 20.5376 29.4755 21.0257 33.5996 21.8477C30.8025 20.8617 27.9411 20.3657 25.0424 20.3657Z" fill="#895924"/>
<path d="M35.8038 22.3476C35.8162 22.2943 35.8224 22.239 35.8183 22.1817C35.5093 16.6728 30.7631 12.2626 24.889 12.1915C19.0169 12.1184 14.1504 16.412 13.6943 21.911C13.6818 22.073 13.7316 22.2231 13.8228 22.3457C17.4929 20.6582 25.9548 17.9117 35.8038 22.3496V22.3476Z" fill="#E8C080"/>
<path d="M36.1066 22.9206L35.6276 22.7053C26.1228 18.4215 18.001 20.8617 14.0054 22.6993L13.6902 22.8456L13.487 22.5729C13.3336 22.3654 13.2631 22.1263 13.2838 21.8793C13.7566 16.1966 18.7765 11.7943 24.7481 11.7943C24.7978 11.7943 24.8476 11.7943 24.8974 11.7943C30.9333 11.8694 35.9138 16.4219 36.2352 22.1599C36.2393 22.2449 36.2331 22.3318 36.2123 22.4267L36.1066 22.9206ZM24.7481 12.5847C19.2679 12.5847 14.6482 16.5839 14.1257 21.7726C18.3099 19.9509 26.1809 17.8248 35.3684 21.7213C34.8293 16.6254 30.3195 12.6519 24.887 12.5847C24.8414 12.5847 24.7937 12.5847 24.7481 12.5847Z" fill="#895924"/>
<path d="M24.5926 16.983C24.5864 17.3703 24.8352 17.4651 25.055 17.4691C25.2126 17.4691 25.3142 17.4533 25.4386 17.3999C25.507 17.3683 25.5837 17.3248 25.675 17.311C25.8139 17.2893 25.9569 17.3367 26.0378 17.4671C26.1684 17.6785 26.0461 17.9275 25.818 18.0579C25.6397 18.1606 25.366 18.2535 25.0446 18.2496C24.35 18.2417 23.5932 17.9492 23.6056 16.9672L23.6139 16.3507C23.6264 15.3924 24.3935 15.096 25.0529 15.1039C25.393 15.1079 25.6459 15.1988 25.7973 15.2916C26.0212 15.426 26.1373 15.6651 26.0088 15.8686C25.9155 16.0188 25.7724 16.0484 25.619 16.0286C25.5319 16.0188 25.4614 15.9812 25.3909 15.9476C25.2955 15.9061 25.225 15.8864 25.0757 15.8844C24.8642 15.8824 24.605 15.9694 24.5988 16.3586L24.5905 16.985L24.5926 16.983Z" fill="#CC8E3E"/>
</g>
<defs>
<clipPath id="clip0_2432_1565">
<rect width="32" height="31" fill="white" transform="translate(9 11)"/>
</clipPath>
</defs>
</svg>
