<svg width="50" height="53" viewBox="0 0 50 53" fill="none" xmlns="http://www.w3.org/2000/svg">
<rect y="0.87854" width="50" height="51.8438" rx="25" fill="#FFE8D7"/>
<g clip-path="url(#clip0_2432_1566)">
<path d="M30.3336 43.3905C29.2367 43.3905 27.9781 43.3003 26.732 42.8967C26.4873 42.8168 26.2385 42.7451 25.9979 42.6837C25.3448 42.5198 24.6543 42.5198 24.0012 42.6837C23.7586 42.7451 23.5118 42.8168 23.2672 42.8967C21.4819 43.4765 19.6676 43.4089 18.3427 43.3598C18.1623 43.3536 17.9902 43.3454 17.8284 43.3413C16.6714 43.3106 15.5766 43.0524 14.5731 42.5771C12.0393 41.3765 10.2789 39.4282 9.47854 36.941C8.52059 33.9579 9.13019 30.7475 10.1027 29.0266C10.6003 28.1476 11.1145 27.5207 11.6619 26.859C12.6302 25.683 13.6317 24.468 14.6996 21.5998C14.8177 21.2822 14.9504 20.9687 15.0956 20.6635C14.204 19.8501 13.5591 18.711 13.2647 17.4182C12.9516 16.0332 13.0864 14.6462 13.6462 13.5153C14.2227 12.3639 15.1702 11.5895 16.321 11.3354C17.4718 11.0814 18.664 11.3825 19.678 12.1836C20.6027 12.915 21.2911 13.9988 21.6353 15.2609C22.6244 14.9843 23.6819 14.8265 24.6564 14.8122H25.2847H25.2971C25.3158 14.8122 25.3448 14.8142 25.3842 14.8163C25.7636 14.8306 26.8439 14.8695 28.2 15.2301C28.5483 13.9824 29.2326 12.9109 30.149 12.1857C31.163 11.3846 32.3552 11.0834 33.506 11.3375C34.6568 11.5915 35.6044 12.3659 36.1767 13.5194C36.7365 14.6503 36.8733 16.0353 36.5582 17.4223C36.2803 18.6495 35.6769 19.7497 34.8496 20.5549C35.0217 20.9011 35.171 21.2474 35.3037 21.6059C36.3716 24.4742 37.373 25.6891 38.3414 26.8651C38.8867 27.5289 39.403 28.1538 39.9006 29.0327C40.8731 30.7537 41.4827 33.9641 40.5247 36.9451C39.7264 39.4343 37.964 41.3827 35.4302 42.5833C34.4266 43.0586 33.3318 43.3147 32.1748 43.3475C32.0131 43.3516 31.841 43.3577 31.6606 43.3659C31.2604 43.3802 30.8146 43.3987 30.3377 43.3987L30.3336 43.3905ZM25.0006 41.7412C25.4049 41.7412 25.8113 41.7904 26.2032 41.8908C26.4624 41.9563 26.7278 42.0321 26.9911 42.1182C28.6354 42.6529 30.3626 42.5874 31.6233 42.5402C31.8078 42.5341 31.982 42.5259 32.1458 42.5218C33.1846 42.4931 34.1674 42.2637 35.0653 41.8396C37.4207 40.725 38.9883 38.9938 39.7264 36.6931C40.6097 33.9436 40.0561 30.9995 39.1687 29.4261C38.7063 28.6086 38.2128 28.0104 37.6903 27.3752C36.7261 26.2054 35.6334 24.8778 34.5179 21.8825C34.3603 21.4604 34.1799 21.0568 33.9642 20.6491L33.8129 20.3623L34.0596 20.1492C34.8786 19.4445 35.4779 18.4119 35.7433 17.2379C36.017 16.0332 35.9029 14.8388 35.426 13.8759C34.9678 12.9519 34.2193 12.3332 33.3194 12.1344C32.4195 11.9357 31.4761 12.1795 30.6633 12.8228C29.8152 13.4928 29.1973 14.5254 28.9236 15.73L28.8117 16.2627L28.3762 16.1295C26.931 15.6891 25.7408 15.646 25.3489 15.6317C25.3095 15.6317 25.2784 15.6296 25.2556 15.6276H24.6647C23.628 15.644 22.4896 15.8345 21.457 16.1664L21.0154 16.3098L20.9138 15.812C20.9075 15.7853 20.9034 15.7567 20.8972 15.73C20.6235 14.5254 20.0077 13.4928 19.1575 12.8228C18.3447 12.1795 17.4013 11.9357 16.5014 12.1344C15.6015 12.3332 14.853 12.9519 14.3948 13.8759C13.9158 14.8409 13.8038 16.0353 14.0775 17.2379C14.3574 18.4713 14.994 19.5366 15.8731 20.2414L16.1323 20.4504L15.981 20.7454C15.7944 21.1101 15.6264 21.4912 15.4792 21.8825C14.3637 24.8778 13.2709 26.2054 12.3068 27.3752C11.7842 28.0104 11.2908 28.6086 10.8284 29.4261C9.94092 30.9975 9.3873 33.9416 10.2706 36.6931C11.0088 38.9918 12.5784 40.723 14.9318 41.8396C15.8296 42.2657 16.8124 42.4952 17.8512 42.5218C18.015 42.5259 18.1892 42.5321 18.3738 42.5402C19.6344 42.5874 21.3616 42.6529 23.0059 42.1182C23.2692 42.0321 23.5346 41.9563 23.7938 41.8908C24.1878 41.7904 24.5921 41.7412 24.9985 41.7412H25.0006Z" fill="#CC8E3E"/>
<path d="M25.2685 31.3293C23.618 31.3293 22.2744 29.6452 22.2744 27.576C22.2744 25.687 23.4501 24.4659 25.2685 24.4659C27.087 24.4659 28.2626 25.687 28.2626 27.576C28.2626 29.6452 26.919 31.3293 25.2685 31.3293ZM25.2685 25.2855C24.6174 25.2855 23.1038 25.5088 23.1038 27.576C23.1038 29.1658 24.0949 30.5098 25.2685 30.5098C26.4421 30.5098 27.4332 29.1925 27.4332 27.576C27.4332 25.5088 25.9196 25.2855 25.2685 25.2855Z" fill="#CC8E3E"/>
</g>
<defs>
<clipPath id="clip0_2432_1566">
<rect width="32" height="32.1432" fill="white" transform="translate(9 11.2473)"/>
</clipPath>
</defs>
</svg>
