<svg width="50" height="50" viewBox="0 0 50 50" fill="none" xmlns="http://www.w3.org/2000/svg">
<rect width="50" height="50" rx="25" fill="#FFDEAE"/>
<path d="M28.2759 13.0374C27.7001 15.5986 28.8449 18.0343 30.8305 18.4773C32.8178 18.9203 34.8941 17.2035 35.4715 14.6423C36.0472 12.0812 34.8756 9.76748 32.8883 9.32447C30.901 8.88145 28.8516 10.478 28.2759 13.0391V13.0374Z" fill="#D3A56A"/>
<path d="M29.1436 13.9519C28.6921 15.9613 29.4373 17.8387 30.8086 18.1446C32.18 18.4505 33.6587 17.0697 34.1102 15.0602C34.5617 13.0508 33.7947 11.2687 32.4233 10.9628C31.052 10.6568 29.5951 11.9424 29.1436 13.9535V13.9519Z" fill="#603A2D"/>
<path d="M21.4674 13.0374C22.0431 15.5986 20.8984 18.0343 18.9127 18.4773C16.9254 18.9203 14.8491 17.2035 14.2717 14.6423C13.696 12.0812 14.8676 9.76748 16.8549 9.32447C18.8422 8.88145 20.8917 10.478 21.4674 13.0391V13.0374Z" fill="#D3A56A"/>
<path d="M20.6041 13.9519C21.0556 15.9613 20.3104 17.8387 18.9391 18.1446C17.5677 18.4505 16.089 17.0697 15.6375 15.0602C15.186 13.0508 15.953 11.2687 17.3244 10.9628C18.6957 10.6568 20.1526 11.9424 20.6041 13.9535V13.9519Z" fill="#603A2D"/>
<path d="M38.7854 25.9534C37.5115 23.6798 35.8968 23.1566 34.3005 18.8368C32.0044 12.6245 25.6916 12.6647 25.2082 12.6362H25.1058C25.1058 12.6362 24.9615 12.6362 24.9531 12.6362C24.9447 12.6362 24.9397 12.6362 24.9397 12.6362H24.6627C24.2028 12.6446 17.9035 12.6245 15.6073 18.8368C14.0111 23.1549 12.5206 23.8036 11.2466 26.0771C9.7343 28.7737 9.17537 35.2517 15.2884 38.1706C16.1981 38.6053 17.1918 38.7073 18.2006 38.734C19.4426 38.7674 21.3511 38.8109 23.1974 38.2074C23.4441 38.1272 23.6841 38.0569 23.9141 37.9984C24.5956 37.8246 25.3106 37.8246 25.9904 37.9984C26.222 38.0569 26.4604 38.1272 26.7071 38.2074C28.5534 38.8126 30.4602 38.7691 31.7039 38.734C32.7127 38.7073 33.7063 38.6053 34.6161 38.1706C40.7308 35.2517 40.2944 28.65 38.7838 25.9518L38.7854 25.9534Z" fill="#D3A56A"/>
<path d="M27.8324 23.6999C27.8324 25.4552 26.7465 26.8796 25.3986 26.8796C24.0508 26.8796 22.9648 25.4552 22.9648 23.6999C22.9648 21.9446 24.0542 21.1321 25.3986 21.1321C26.7431 21.1321 27.8324 21.9446 27.8324 23.6999Z" fill="#603A2D"/>
<path d="M29.7403 22.0283C30.1406 21.9889 30.4211 21.513 30.3667 20.9654C30.3123 20.4178 29.9436 20.0058 29.5433 20.0453C29.1429 20.0847 28.8625 20.5606 28.9168 21.1082C28.9712 21.6558 29.3399 22.0678 29.7403 22.0283Z" fill="#603A2D"/>
<path d="M29.686 22.3023C29.1639 22.3023 28.7158 21.8091 28.6487 21.1371C28.6168 20.8161 28.6805 20.5018 28.8283 20.2527C28.9894 19.9802 29.2412 19.8081 29.5181 19.7813C30.077 19.7261 30.5672 20.236 30.636 20.9415C30.6679 21.2625 30.6041 21.5768 30.4564 21.8259C30.2952 22.0984 30.0435 22.2706 29.7665 22.2973C29.7397 22.3006 29.7111 22.3006 29.6843 22.3006L29.686 22.3023ZM29.597 20.3129C29.5886 20.3129 29.5802 20.3129 29.5701 20.3129C29.4275 20.3263 29.3352 20.45 29.2915 20.5219C29.2026 20.6724 29.1639 20.8763 29.1841 21.0819C29.2227 21.4681 29.4711 21.7841 29.7128 21.7607C29.8555 21.7473 29.9478 21.6236 29.9914 21.55C30.0804 21.3996 30.119 21.1956 30.0989 20.99C30.0619 20.6172 29.8303 20.3096 29.5953 20.3096L29.597 20.3129Z" fill="#603A2D"/>
<path d="M21.8823 21.1161C21.9367 20.5685 21.6562 20.0926 21.2559 20.0531C20.8555 20.0137 20.4869 20.4256 20.4325 20.9732C20.3781 21.5208 20.6585 21.9967 21.0589 22.0362C21.4593 22.0756 21.8279 21.6637 21.8823 21.1161Z" fill="#603A2D"/>
<path d="M21.1125 22.3074C21.0856 22.3074 21.0588 22.3074 21.0302 22.304C20.7533 22.2773 20.5015 22.1051 20.3404 21.8326C20.1927 21.5835 20.1306 21.2692 20.1625 20.9482C20.2329 20.2427 20.7264 19.7329 21.2803 19.788C21.8376 19.8432 22.2186 20.4383 22.1498 21.1438C22.0826 21.8142 21.6362 22.309 21.1125 22.309V22.3074ZM21.2014 20.3196C20.9664 20.3196 20.7348 20.6289 20.6979 21C20.6777 21.2057 20.7164 21.4096 20.8053 21.5601C20.8473 21.632 20.9413 21.7557 21.0839 21.769C21.329 21.7908 21.5757 21.4765 21.6127 21.0903C21.6513 20.7041 21.4717 20.3447 21.2266 20.3213C21.2182 20.3213 21.2098 20.3213 21.1998 20.3213L21.2014 20.3196Z" fill="#603A2D"/>
<path d="M21.467 21.0386C21.6376 21.0386 21.7759 20.8776 21.7759 20.6791C21.7759 20.4806 21.6376 20.3197 21.467 20.3197C21.2965 20.3197 21.1582 20.4806 21.1582 20.6791C21.1582 20.8776 21.2965 21.0386 21.467 21.0386Z" fill="white"/>
<path d="M29.8284 21.0334C29.9989 21.0334 30.1372 20.8725 30.1372 20.674C30.1372 20.4755 29.9989 20.3146 29.8284 20.3146C29.6578 20.3146 29.5195 20.4755 29.5195 20.674C29.5195 20.8725 29.6578 21.0334 29.8284 21.0334Z" fill="white"/>
<path d="M24.3828 28.5646L24.4265 29.0979C24.4416 29.2935 24.6061 29.4423 24.8024 29.4423H26.063C26.2594 29.4423 26.4222 29.2918 26.439 29.0979L26.4809 28.5713C26.1536 28.5412 25.7927 28.466 25.3949 28.3306C25.0273 28.4559 24.69 28.5295 24.3828 28.5629V28.5646Z" fill="white"/>
<path d="M23.7344 28.8504C22.7273 28.8504 22.0341 28.1667 21.5557 27.6919C21.3308 27.4696 21.1227 27.3676 20.9632 27.3057C20.4983 27.1252 20.0014 27.508 19.9964 27.513C19.9007 27.61 19.7429 27.6133 19.6439 27.518C19.5449 27.4228 19.5432 27.2656 19.6389 27.1686C19.6674 27.1386 20.369 26.5451 21.1428 26.8443C21.3996 26.943 21.6296 27.07 21.9048 27.3408C22.6366 28.0647 23.5481 28.9641 25.2551 27.7855C25.3675 27.707 25.5236 27.7354 25.6008 27.8474C25.6797 27.9594 25.6512 28.1149 25.5387 28.1918C24.8455 28.6699 24.248 28.8488 23.7327 28.8488L23.7344 28.8504Z" fill="#603A2D"/>
<path d="M27.1026 28.8504C28.1097 28.8504 28.8029 28.1667 29.2812 27.6919C29.5061 27.4696 29.7143 27.3676 29.8737 27.3057C30.3387 27.1252 30.8355 27.508 30.8405 27.513C30.9362 27.61 31.094 27.6133 31.193 27.518C31.2921 27.4228 31.2937 27.2656 31.1981 27.1686C31.1695 27.1386 30.4679 26.5451 29.6941 26.8443C29.4373 26.943 29.2074 27.07 28.9321 27.3408C28.2003 28.0647 27.2889 28.9641 25.5819 27.7855C25.4694 27.707 25.3133 27.7354 25.2361 27.8474C25.1572 27.9594 25.1857 28.1149 25.2982 28.1918C25.9914 28.6699 26.589 28.8488 27.1042 28.8488L27.1026 28.8504Z" fill="#603A2D"/>
</svg>
