<svg width="50" height="50" viewBox="0 0 50 50" fill="none" xmlns="http://www.w3.org/2000/svg">
<rect width="50" height="50" rx="25" fill="#603A2D"/>
<g filter="url(#filter0_iii_2441_1515)">
<path d="M28.2749 13.0374C27.6992 15.5985 28.8439 18.0343 30.8295 18.4773C32.8168 18.9203 34.8931 17.2034 35.4705 14.6423C36.0479 12.0812 34.8747 9.76748 32.8873 9.32447C30.9 8.88145 28.8506 10.478 28.2749 13.0391V13.0374Z" fill="#D3A56A"/>
<path d="M29.1426 13.9518C28.6911 15.9613 29.4364 17.8387 30.8077 18.1446C32.179 18.4505 33.6577 17.0697 34.1092 15.0602C34.5608 13.0508 33.7937 11.2687 32.4224 10.9628C31.051 10.6568 29.5941 11.9424 29.1426 13.9535V13.9518Z" fill="#603A2D"/>
<path d="M21.4674 13.0374C22.0431 15.5985 20.8984 18.0343 18.9127 18.4773C16.9254 18.9203 14.8491 17.2034 14.2717 14.6423C13.696 12.0812 14.8676 9.76748 16.8549 9.32447C18.8422 8.88145 20.8917 10.478 21.4674 13.0391V13.0374Z" fill="#D3A56A"/>
<path d="M20.6051 13.9518C21.0566 15.9613 20.3114 17.8387 18.94 18.1446C17.5687 18.4505 16.09 17.0697 15.6385 15.0602C15.187 13.0508 15.954 11.2687 17.3253 10.9628C18.6967 10.6568 20.1536 11.9424 20.6051 13.9535V13.9518Z" fill="#603A2D"/>
<path d="M38.7854 25.9534C37.5115 23.6798 35.8968 23.1566 34.3005 18.8368C32.0044 12.6245 25.6916 12.6647 25.2082 12.6362H25.1058C25.1058 12.6362 24.9615 12.6362 24.9531 12.6362C24.9447 12.6362 24.9397 12.6362 24.9397 12.6362H24.6627C24.2028 12.6446 17.9035 12.6245 15.6073 18.8368C14.0111 23.1549 12.5206 23.8035 11.2466 26.0771C9.7343 28.7736 9.17537 35.2517 15.2884 38.1706C16.1981 38.6052 17.1918 38.7072 18.2006 38.7339C19.4426 38.7674 21.3511 38.8108 23.1974 38.2073C23.4441 38.1271 23.6841 38.0569 23.9141 37.9984C24.5956 37.8245 25.3106 37.8245 25.9904 37.9984C26.222 38.0569 26.4604 38.1271 26.7071 38.2073C28.5534 38.8125 30.4602 38.7691 31.7039 38.7339C32.7127 38.7072 33.7064 38.6052 34.6161 38.1706C40.7308 35.2517 40.2944 28.6499 38.7838 25.9517L38.7854 25.9534Z" fill="#D3A56A"/>
<path d="M27.8324 23.6999C27.8324 25.4552 26.7465 26.8796 25.3986 26.8796C24.0508 26.8796 22.9648 25.4552 22.9648 23.6999C22.9648 21.9446 24.0542 21.1321 25.3986 21.1321C26.7431 21.1321 27.8324 21.9446 27.8324 23.6999Z" fill="#603A2D"/>
</g>
<defs>
<filter id="filter0_iii_2441_1515" x="0.249023" y="3.25085" width="49.4932" height="45.5007" filterUnits="userSpaceOnUse" color-interpolation-filters="sRGB">
<feFlood flood-opacity="0" result="BackgroundImageFix"/>
<feBlend mode="normal" in="SourceGraphic" in2="BackgroundImageFix" result="shape"/>
<feColorMatrix in="SourceAlpha" type="matrix" values="0 0 0 0 0 0 0 0 0 0 0 0 0 0 0 0 0 0 127 0" result="hardAlpha"/>
<feOffset dx="-10" dy="-6"/>
<feGaussianBlur stdDeviation="12"/>
<feComposite in2="hardAlpha" operator="arithmetic" k2="-1" k3="1"/>
<feColorMatrix type="matrix" values="0 0 0 0 0.376471 0 0 0 0 0.227451 0 0 0 0 0.176471 0 0 0 0.5 0"/>
<feBlend mode="normal" in2="shape" result="effect1_innerShadow_2441_1515"/>
<feColorMatrix in="SourceAlpha" type="matrix" values="0 0 0 0 0 0 0 0 0 0 0 0 0 0 0 0 0 0 127 0" result="hardAlpha"/>
<feOffset dx="10" dy="10"/>
<feGaussianBlur stdDeviation="12"/>
<feComposite in2="hardAlpha" operator="arithmetic" k2="-1" k3="1"/>
<feColorMatrix type="matrix" values="0 0 0 0 0.984474 0 0 0 0 0.880845 0 0 0 0 0.822553 0 0 0 0.3 0"/>
<feBlend mode="normal" in2="effect1_innerShadow_2441_1515" result="effect2_innerShadow_2441_1515"/>
<feColorMatrix in="SourceAlpha" type="matrix" values="0 0 0 0 0 0 0 0 0 0 0 0 0 0 0 0 0 0 127 0" result="hardAlpha"/>
<feOffset dx="2" dy="2"/>
<feGaussianBlur stdDeviation="2"/>
<feComposite in2="hardAlpha" operator="arithmetic" k2="-1" k3="1"/>
<feColorMatrix type="matrix" values="0 0 0 0 0.947456 0 0 0 0 0.818031 0 0 0 0 0.698563 0 0 0 0.25 0"/>
<feBlend mode="normal" in2="effect2_innerShadow_2441_1515" result="effect3_innerShadow_2441_1515"/>
</filter>
</defs>
</svg>
