<svg width="50" height="53" viewBox="0 0 50 53" fill="none" xmlns="http://www.w3.org/2000/svg">
<rect y="0.87854" width="50" height="51.8438" rx="25" fill="#DBFFD2"/>
<path d="M38.6591 29.5481C37.4112 27.2554 35.709 26.7268 34.146 22.3717C33.9859 21.9271 33.8049 21.5146 33.6065 21.1271C34.3688 20.4271 34.9675 19.3932 35.2356 18.1683C35.7995 15.5863 34.6525 13.2525 32.7084 12.8061C30.7765 12.3614 28.7836 13.9471 28.204 16.5005C25.9693 15.7113 23.7467 15.7523 21.538 16.5934C21.5346 16.5791 21.5328 16.5648 21.5293 16.5505C20.9672 13.9685 18.9604 12.3596 17.0145 12.8061C15.0687 13.2525 13.9235 15.5863 14.4874 18.1683C14.7763 19.4932 15.4533 20.5932 16.3062 21.2914C16.1408 21.6289 15.9877 21.9896 15.8502 22.3699C14.2872 26.7251 12.585 27.2536 11.3371 29.5463C9.85771 32.2659 9.55313 39.2977 15.5386 42.2404C16.428 42.6779 17.4027 42.9064 18.3895 42.9332C19.6061 42.9672 21.4736 42.8868 23.2802 42.2761C23.5222 42.194 23.7571 42.1243 23.9834 42.0654C24.65 41.8904 25.3497 41.8904 26.0163 42.0654C26.2425 42.1243 26.4758 42.194 26.7194 42.2761C28.526 42.885 30.3936 42.9672 31.6102 42.9332C32.597 42.9047 33.5699 42.6779 34.4611 42.2404C40.4465 39.2977 40.142 32.2659 38.6626 29.5463L38.6591 29.5481Z" fill="#FFBF69"/>
<path d="M27.9439 28.132C27.9439 30.3212 26.6298 32.0943 25.0008 32.0943C23.3717 32.0943 22.0576 30.3194 22.0576 28.132C22.0576 25.9446 23.3752 24.9321 25.0008 24.9321C26.6264 24.9321 27.9439 25.9446 27.9439 28.132Z" fill="#E98C00"/>
</svg>
