<svg width="12" height="10" viewBox="0 0 12 10" fill="none" xmlns="http://www.w3.org/2000/svg">
<path d="M3.06447 9.58691L1.95947 5.50491H0.620474V4.49091H1.68647L0.568474 0.382914H1.71247L2.75247 4.49091H4.55947L5.63847 0.382914H6.91247L7.99147 4.49091H9.79847L10.8385 0.382914H12.0085L10.8905 4.49091H11.9305V5.50491H10.6175L9.51247 9.58691H8.31647L7.19847 5.50491H5.35247L4.23447 9.58691H3.06447ZM3.01247 5.50491L3.61047 7.84491H3.68847L4.29947 5.50491H3.01247ZM5.63847 4.49091H6.91247L6.31447 2.30691H6.23647L5.63847 4.49091ZM8.25147 5.50491L8.86247 7.84491H8.94047L9.53847 5.50491H8.25147Z" fill="#7C7C7C"/>
</svg>
